<svg width="32" height="32" viewBox="0 0 32 32" fill="none" xmlns="http://www.w3.org/2000/svg">
<path d="M12.6464 20.6464C12.4512 20.8417 12.4512 21.1583 12.6464 21.3536C12.8417 21.5488 13.1583 21.5488 13.3536 21.3536L12.6464 20.6464ZM17.6464 11.6464C17.4512 11.8417 17.4512 12.1583 17.6464 12.3536C17.8417 12.5488 18.1583 12.5488 18.3536 12.3536L17.6464 11.6464ZM20.6464 12.6464C20.4512 12.8417 20.4512 13.1583 20.6464 13.3536C20.8417 13.5488 21.1583 13.5488 21.3536 13.3536L20.6464 12.6464ZM20.6464 16.6464C20.4512 16.8417 20.4512 17.1583 20.6464 17.3536C20.8417 17.5488 21.1583 17.5488 21.3536 17.3536L20.6464 16.6464ZM13.5714 12.4286L13.925 12.7821L13.5714 12.4286ZM18.7071 23.2929L18.3536 22.9393L18.7071 23.2929ZM15.2929 24.7071L15.6464 25.0607L15.2929 24.7071ZM21.9142 6.91421L21.5607 7.26777L21.9142 6.91421ZM25.5858 9.58579L25.2322 9.93934L25.5858 9.58579ZM7.82843 18.1716L7.47487 17.818L7.82843 18.1716ZM26.0858 13.0858L26.4393 12.7322L26.0858 13.0858ZM10.2929 28.2929L9.93934 28.6464L10.2929 28.2929ZM11.7071 28.2929L11.3536 27.9393L11.7071 28.2929ZM4.70711 22.7071L5.06066 22.3536L4.70711 22.7071ZM4.70711 21.2929L4.35355 20.9393L4.70711 21.2929ZM4.35355 23.0607L9.93934 28.6464L10.6464 27.9393L5.06066 22.3536L4.35355 23.0607ZM26.4393 12.7322L25.8536 12.1464L25.1464 12.8536L25.7322 13.4393L26.4393 12.7322ZM25.8536 12.8536L25.9393 12.7678L25.2322 12.0607L25.1464 12.1464L25.8536 12.8536ZM25.9393 9.23223L25.3536 8.64645L24.6464 9.35355L25.2322 9.93934L25.9393 9.23223ZM22.6464 6.64645L22.1464 7.14645L22.8536 7.85355L23.3536 7.35355L22.6464 6.64645ZM22.8536 7.14645L22.2678 6.56066L21.5607 7.26777L22.1464 7.85355L22.8536 7.14645ZM18.7322 6.56066L16.6464 8.64645L17.3536 9.35355L19.4393 7.26777L18.7322 6.56066ZM17.3536 8.64645L16.7678 8.06066L16.0607 8.76777L16.6464 9.35355L17.3536 8.64645ZM13.2322 8.06066L9.81802 11.4749L10.5251 12.182L13.9393 8.76777L13.2322 8.06066ZM8.5 14.6569V15.3431H9.5V14.6569H8.5ZM7.47487 17.818L4.35355 20.9393L5.06066 21.6464L8.18198 18.5251L7.47487 17.818ZM12.0607 28.6464L15.6464 25.0607L14.9393 24.3536L11.3536 27.9393L12.0607 28.6464ZM19.0607 23.6464L26.4393 16.2678L25.7322 15.5607L18.3536 22.9393L19.0607 23.6464ZM16.6464 8.64645L13.2179 12.075L13.925 12.7821L17.3536 9.35355L16.6464 8.64645ZM13.2179 20.075L12.6464 20.6464L13.3536 21.3536L13.925 20.7821L13.2179 20.075ZM22.1464 7.14645L17.6464 11.6464L18.3536 12.3536L22.8536 7.85355L22.1464 7.14645ZM24.6464 8.64645L20.6464 12.6464L21.3536 13.3536L25.3536 9.35355L24.6464 8.64645ZM25.1464 12.1464L20.6464 16.6464L21.3536 17.3536L25.8536 12.8536L25.1464 12.1464ZM13.2179 13.925C14.9162 15.6233 14.9162 18.3767 13.2179 20.075L13.925 20.7821C16.0138 18.6933 16.0138 15.3067 13.925 13.2179L13.2179 13.925ZM13.2179 12.075C12.707 12.5859 12.707 13.4141 13.2179 13.925L13.925 13.2179C13.8047 13.0975 13.8047 12.9025 13.925 12.7821L13.2179 12.075ZM17 24.5C17.7729 24.5 18.5141 24.193 19.0607 23.6464L18.3536 22.9393C17.9946 23.2983 17.5077 23.5 17 23.5V24.5ZM15.6464 25.0607C16.0054 24.7017 16.4923 24.5 17 24.5V23.5C16.2271 23.5 15.4859 23.807 14.9393 24.3536L15.6464 25.0607ZM22.2678 6.56066C21.2915 5.58435 19.7085 5.58435 18.7322 6.56066L19.4393 7.26777C20.0251 6.68198 20.9749 6.68198 21.5607 7.26777L22.2678 6.56066ZM25.3536 6.64645C24.606 5.8989 23.394 5.8989 22.6464 6.64645L23.3536 7.35355C23.7106 6.99653 24.2894 6.99653 24.6464 7.35355L25.3536 6.64645ZM25.9393 12.7678C26.9157 11.7915 26.9157 10.2085 25.9393 9.23223L25.2322 9.93934C25.818 10.5251 25.818 11.4749 25.2322 12.0607L25.9393 12.7678ZM8.5 15.3431C8.5 16.2714 8.13125 17.1616 7.47487 17.818L8.18198 18.5251C9.02589 17.6812 9.5 16.5366 9.5 15.3431H8.5ZM25.7322 13.4393C26.318 14.0251 26.318 14.9749 25.7322 15.5607L26.4393 16.2678C27.4157 15.2915 27.4157 13.7085 26.4393 12.7322L25.7322 13.4393ZM25.3536 9.35355C26.1011 8.60601 26.1011 7.39399 25.3536 6.64645L24.6464 7.35355C25.0035 7.71058 25.0035 8.28942 24.6464 8.64645L25.3536 9.35355ZM9.81802 11.4749C8.97411 12.3188 8.5 13.4634 8.5 14.6569H9.5C9.5 13.7286 9.86875 12.8384 10.5251 12.182L9.81802 11.4749ZM9.93934 28.6464C10.5251 29.2322 11.4749 29.2322 12.0607 28.6464L11.3536 27.9393C11.1583 28.1346 10.8417 28.1346 10.6464 27.9393L9.93934 28.6464ZM16.7678 8.06066C15.7915 7.08435 14.2085 7.08435 13.2322 8.06066L13.9393 8.76777C14.5251 8.18198 15.4749 8.18198 16.0607 8.76777L16.7678 8.06066ZM5.06066 22.3536C4.8654 22.1583 4.8654 21.8417 5.06066 21.6464L4.35355 20.9393C3.76777 21.5251 3.76777 22.4749 4.35355 23.0607L5.06066 22.3536Z" fill="#2F80ED"/>
<path d="M6 20L13 27" stroke="#2F80ED"/>
</svg>
