<svg width="32" height="32" viewBox="0 0 32 32" fill="none" xmlns="http://www.w3.org/2000/svg">
<path d="M12 17.5H9.86758C9.19078 17.5 8.70945 16.8417 8.91466 16.1968L11.1132 9.28719C11.6413 7.62727 13.183 6.5 14.9249 6.5H17.0751C18.817 6.5 20.3587 7.62727 20.8868 9.28719L23.0853 16.1968C23.2906 16.8417 22.8092 17.5 22.1324 17.5H20" stroke="#2F80ED"/>
<path d="M14 6.5V5.5C14 4.94772 14.4477 4.5 15 4.5H17C17.5523 4.5 18 4.94772 18 5.5V6.5" stroke="#2F80ED"/>
<path d="M12.5 14C12.5 13.7239 12.2761 13.5 12 13.5C11.7239 13.5 11.5 13.7239 11.5 14H12.5ZM12 17.5L12.4851 17.6213L12.5 17.5616V17.5H12ZM20 17.5H19.5V17.5616L19.5149 17.6213L20 17.5ZM20.5 14C20.5 13.7239 20.2761 13.5 20 13.5C19.7239 13.5 19.5 13.7239 19.5 14H20.5ZM9.81063 26.2575L9.32556 26.1362L9.81063 26.2575ZM11.5 14V17.5H12.5V14H11.5ZM11.5149 17.3787L9.32556 26.1362L10.2957 26.3787L12.4851 17.6213L11.5149 17.3787ZM22.6744 26.1362L20.4851 17.3787L19.5149 17.6213L21.7043 26.3787L22.6744 26.1362ZM20.5 17.5V14H19.5V17.5H20.5ZM10.7808 28H13.5V27H10.7808V28ZM13.5 28H16V27H13.5V28ZM18.5 28H21.2192V27H18.5V28ZM16 28H18.5V27H16V28ZM21.7043 26.3787C21.7832 26.6943 21.5445 27 21.2192 27V28C22.1951 28 22.9111 27.0829 22.6744 26.1362L21.7043 26.3787ZM9.32556 26.1362C9.08888 27.0829 9.80492 28 10.7808 28V27C10.4555 27 10.2168 26.6943 10.2957 26.3787L9.32556 26.1362Z" fill="#2F80ED"/>
<path d="M10 25L22 25" stroke="#2F80ED"/>
<path d="M15.5 13C15.5 13.2761 15.7239 13.5 16 13.5C16.2761 13.5 16.5 13.2761 16.5 13H15.5ZM15.5 7V13H16.5V7H15.5Z" fill="#2F80ED"/>
</svg>
