<svg xmlns="http://www.w3.org/2000/svg" xmlns:xlink="http://www.w3.org/1999/xlink" viewBox="0 0 1020.59 618"><defs><style>.cls-1,.cls-2,.cls-8{fill:#fff;}.cls-1{fill-rule:evenodd;}.cls-14,.cls-2,.cls-6{stroke:#eaf2fd;stroke-width:2px;}.cls-3{fill:#ff5a5a;}.cls-11,.cls-12,.cls-4{fill:#304256;}.cls-5{fill:#6984a3;}.cls-10,.cls-14,.cls-6,.cls-9{fill:none;}.cls-6,.cls-9{stroke-linecap:round;}.cls-7{mask:url(#mask);}.cls-10,.cls-9{stroke:#fff;stroke-width:1.5px;}.cls-9{stroke-linejoin:round;}.cls-11{opacity:0.1;}.cls-11,.cls-12,.cls-13{isolation:isolate;}.cls-12,.cls-13{opacity:0.2;}.cls-13{fill:#2f80ed;}</style><mask id="mask" x="167.5" y="83.5" width="23" height="23" maskUnits="userSpaceOnUse"><g id="path-9-inside-1"><path class="cls-1" d="M184.94,89.37a7.66,7.66,0,0,0,1.72,2.49A7.09,7.09,0,0,1,189,97c0,4.42-4.48,8-10,8s-10-3.58-10-8a7.09,7.09,0,0,1,2.34-5.14,7.66,7.66,0,0,0,1.72-2.49,6.22,6.22,0,0,1,11.88,0Z"/></g></mask></defs><title>hero-img</title><g id="Layer_2" data-name="Layer 2"><g id="Layer_1-2" data-name="Layer 1"><rect class="cls-2" x="119" y="1" width="774" height="546" rx="8"/><rect class="cls-3" x="159" y="75" width="40" height="40" rx="4"/><path class="cls-4" d="M223,96.43h-3.3V103h-3V85.94h6a7,7,0,0,1,4.56,1.32,4.68,4.68,0,0,1,1.61,3.83,4.82,4.82,0,0,1-.83,2.87,5.23,5.23,0,0,1-2.3,1.77l3.83,7.12V103h-3.17Zm-3.3-2.38h3.05a3.39,3.39,0,0,0,2.34-.75,2.67,2.67,0,0,0,.84-2.08,2.81,2.81,0,0,0-.78-2.12,3.27,3.27,0,0,0-2.32-.77H219.7ZM237,103.23a5.9,5.9,0,0,1-4.39-1.69A6.23,6.23,0,0,1,231,97v-.35a7.54,7.54,0,0,1,.73-3.39,5.57,5.57,0,0,1,2.06-2.33,5.39,5.39,0,0,1,2.95-.83,5,5,0,0,1,4,1.65,7,7,0,0,1,1.41,4.67v1.15h-8.28a3.85,3.85,0,0,0,1,2.49,3.17,3.17,0,0,0,2.32.91,3.86,3.86,0,0,0,3.19-1.58l1.54,1.46a5.16,5.16,0,0,1-2,1.77A6.34,6.34,0,0,1,237,103.23Zm-.34-10.86a2.42,2.42,0,0,0-1.9.82,4.32,4.32,0,0,0-.91,2.29h5.42v-.21a3.38,3.38,0,0,0-.76-2.16A2.37,2.37,0,0,0,236.68,92.37Zm7.11,4.18a7.54,7.54,0,0,1,1.36-4.72,4.44,4.44,0,0,1,3.68-1.74,4.16,4.16,0,0,1,3.37,1.48l.16-1.25h2.53v17.56H252v-6a4.22,4.22,0,0,1-3.23,1.31,4.39,4.39,0,0,1-3.65-1.77A7.87,7.87,0,0,1,243.79,96.55Zm2.85.25a5.41,5.41,0,0,0,.76,3.06,2.49,2.49,0,0,0,2.14,1.1,2.68,2.68,0,0,0,2.5-1.44V93.75a2.69,2.69,0,0,0-2.48-1.38,2.51,2.51,0,0,0-2.15,1.09A5.86,5.86,0,0,0,246.64,96.8Zm19,5a4.42,4.42,0,0,1-3.56,1.47A4,4,0,0,1,259,102a5.13,5.13,0,0,1-1.06-3.49V90.32h2.85V98.5c0,1.61.67,2.41,2,2.41a2.8,2.8,0,0,0,2.8-1.48V90.32h2.85V103h-2.68Zm11.24,1.47a5.94,5.94,0,0,1-4.4-1.69A6.27,6.27,0,0,1,270.82,97v-.35a7.68,7.68,0,0,1,.72-3.39,5.64,5.64,0,0,1,2.06-2.33,5.42,5.42,0,0,1,3-.83,4.93,4.93,0,0,1,4,1.65A6.93,6.93,0,0,1,282,96.41v1.15h-8.28a3.8,3.8,0,0,0,1,2.49,3.17,3.17,0,0,0,2.32.91,3.88,3.88,0,0,0,3.19-1.58l1.53,1.46a5,5,0,0,1-2,1.77A6.27,6.27,0,0,1,276.89,103.23Zm-.34-10.86a2.4,2.4,0,0,0-1.9.82,4.33,4.33,0,0,0-.92,2.29h5.43v-.21a3.44,3.44,0,0,0-.76-2.16A2.38,2.38,0,0,0,276.55,92.37Zm14.75,7.19a1.31,1.31,0,0,0-.63-1.17,6.75,6.75,0,0,0-2.08-.7,10.79,10.79,0,0,1-2.42-.77,3.25,3.25,0,0,1-2.13-3,3.37,3.37,0,0,1,1.38-2.74,5.42,5.42,0,0,1,3.51-1.1,5.66,5.66,0,0,1,3.67,1.12A3.56,3.56,0,0,1,294,94.13h-2.85a1.72,1.72,0,0,0-.61-1.36,2.31,2.31,0,0,0-1.62-.55,2.54,2.54,0,0,0-1.53.43,1.38,1.38,0,0,0-.59,1.16,1.16,1.16,0,0,0,.55,1,7.74,7.74,0,0,0,2.23.74,10.06,10.06,0,0,1,2.62.88,3.61,3.61,0,0,1,1.42,1.22,3,3,0,0,1,.47,1.73,3.31,3.31,0,0,1-1.42,2.78,6.07,6.07,0,0,1-3.71,1,6.48,6.48,0,0,1-2.78-.56,4.63,4.63,0,0,1-1.9-1.54,3.72,3.72,0,0,1-.68-2.13h2.77a2,2,0,0,0,.76,1.56,3,3,0,0,0,1.86.54,2.92,2.92,0,0,0,1.71-.42A1.34,1.34,0,0,0,291.3,99.56Zm8.86-12.32v3.08h2.24v2.11h-2.24v7.08a1.59,1.59,0,0,0,.28,1,1.38,1.38,0,0,0,1,.32,4.34,4.34,0,0,0,1-.12V103a7,7,0,0,1-1.88.27c-2.18,0-3.28-1.2-3.28-3.62V92.43h-2.08V90.32h2.08V87.24ZM311.56,103V92.43h-1.93V90.32h1.93V89.16a4.37,4.37,0,0,1,1.17-3.26A4.54,4.54,0,0,1,316,84.75a6.56,6.56,0,0,1,1.59.21l-.07,2.23a5.85,5.85,0,0,0-1.09-.09,1.83,1.83,0,0,0-2,2.1v1.12H317v2.11h-2.58V103Zm7-6.46a7.46,7.46,0,0,1,.73-3.35,5.47,5.47,0,0,1,2.08-2.3,5.88,5.88,0,0,1,3.07-.8,5.52,5.52,0,0,1,4.16,1.65,6.45,6.45,0,0,1,1.73,4.38v.67a7.53,7.53,0,0,1-.72,3.35,5.33,5.33,0,0,1-2.06,2.29,6,6,0,0,1-3.1.8,5.52,5.52,0,0,1-4.3-1.78,6.86,6.86,0,0,1-1.6-4.77Zm2.84.25a5.13,5.13,0,0,0,.81,3.07,2.65,2.65,0,0,0,2.25,1.1,2.58,2.58,0,0,0,2.24-1.12,5.62,5.62,0,0,0,.81-3.3,5,5,0,0,0-.83-3,2.78,2.78,0,0,0-4.46,0A5.59,5.59,0,0,0,321.38,96.79Zm18-3.87a7.27,7.27,0,0,0-1.16-.09,2.63,2.63,0,0,0-2.64,1.5V103h-2.84V90.32h2.72l.07,1.42a3.2,3.2,0,0,1,2.86-1.65,2.62,2.62,0,0,1,1,.16Zm14.32,3.51h-3.3V103h-3V85.94h6A7,7,0,0,1,358,87.26a4.68,4.68,0,0,1,1.61,3.83,4.76,4.76,0,0,1-.84,2.87,5.14,5.14,0,0,1-2.29,1.77l3.83,7.12V103h-3.18Zm-3.3-2.38h3a3.44,3.44,0,0,0,2.35-.75,2.67,2.67,0,0,0,.84-2.08,2.81,2.81,0,0,0-.78-2.12,3.27,3.27,0,0,0-2.32-.77h-3.13Zm17.32,9.18a5.94,5.94,0,0,1-4.4-1.69A6.27,6.27,0,0,1,361.64,97v-.35a7.68,7.68,0,0,1,.72-3.39,5.53,5.53,0,0,1,2.07-2.33,5.36,5.36,0,0,1,2.95-.83,5,5,0,0,1,4,1.65,7,7,0,0,1,1.41,4.67v1.15h-8.28a3.8,3.8,0,0,0,1,2.49,3.17,3.17,0,0,0,2.32.91,3.86,3.86,0,0,0,3.19-1.58l1.53,1.46a5,5,0,0,1-2,1.77A6.27,6.27,0,0,1,367.71,103.23Zm-.34-10.86a2.4,2.4,0,0,0-1.9.82,4.33,4.33,0,0,0-.92,2.29H370v-.21a3.44,3.44,0,0,0-.76-2.16A2.38,2.38,0,0,0,367.37,92.37Zm14.75,7.19a1.31,1.31,0,0,0-.63-1.17,6.75,6.75,0,0,0-2.08-.7,10.79,10.79,0,0,1-2.42-.77,3.25,3.25,0,0,1-2.13-3,3.37,3.37,0,0,1,1.38-2.74,5.42,5.42,0,0,1,3.51-1.1,5.66,5.66,0,0,1,3.67,1.12,3.56,3.56,0,0,1,1.41,2.92H382a1.72,1.72,0,0,0-.61-1.36,2.31,2.31,0,0,0-1.62-.55,2.54,2.54,0,0,0-1.53.43,1.38,1.38,0,0,0-.59,1.16,1.16,1.16,0,0,0,.55,1,7.74,7.74,0,0,0,2.23.74,10.29,10.29,0,0,1,2.63.88,3.58,3.58,0,0,1,1.41,1.22,3,3,0,0,1,.47,1.73,3.31,3.31,0,0,1-1.42,2.78,6.07,6.07,0,0,1-3.71,1,6.48,6.48,0,0,1-2.78-.56,4.63,4.63,0,0,1-1.9-1.54,3.72,3.72,0,0,1-.68-2.13h2.77a2,2,0,0,0,.76,1.56,3.59,3.59,0,0,0,3.58.12A1.33,1.33,0,0,0,382.12,99.56Zm16.4-2.77a7.58,7.58,0,0,1-1.34,4.7,4.66,4.66,0,0,1-6.93.37v6h-2.84V90.32H390l.12,1.29a4.16,4.16,0,0,1,3.41-1.52,4.27,4.27,0,0,1,3.63,1.73,7.73,7.73,0,0,1,1.33,4.79Zm-2.84-.25a5.24,5.24,0,0,0-.76-3,2.45,2.45,0,0,0-2.16-1.11,2.63,2.63,0,0,0-2.51,1.44v5.62a2.65,2.65,0,0,0,2.54,1.48,2.44,2.44,0,0,0,2.12-1.09A5.85,5.85,0,0,0,395.68,96.54ZM404,103h-2.84V90.32H404Zm-3-16a1.54,1.54,0,0,1,.41-1.09,1.84,1.84,0,0,1,2.39,0,1.61,1.61,0,0,1,0,2.17,1.91,1.91,0,0,1-2.39,0A1.53,1.53,0,0,1,400.94,87Zm12.77,5.89a7.27,7.27,0,0,0-1.16-.09,2.6,2.6,0,0,0-2.63,1.5V103h-2.85V90.32h2.72l.07,1.42a3.21,3.21,0,0,1,2.86-1.65,2.67,2.67,0,0,1,1,.16Zm9,10.08a4.1,4.1,0,0,1-.33-1.18,4.81,4.81,0,0,1-6.45.32,3.48,3.48,0,0,1-1.2-2.69,3.6,3.6,0,0,1,1.5-3.11,7.33,7.33,0,0,1,4.31-1.09h1.75v-.83a2.24,2.24,0,0,0-.55-1.57,2.18,2.18,0,0,0-1.68-.6,2.46,2.46,0,0,0-1.59.5,1.47,1.47,0,0,0-.62,1.23H415a3.14,3.14,0,0,1,.69-2,4.61,4.61,0,0,1,1.87-1.43,6.75,6.75,0,0,1,2.66-.51,5.28,5.28,0,0,1,3.55,1.12,3.94,3.94,0,0,1,1.36,3.14v5.72a6.49,6.49,0,0,0,.48,2.73v.2Zm-3.13-2a3.24,3.24,0,0,0,1.58-.41,2.73,2.73,0,0,0,1.13-1.1V97.05h-1.54a4.19,4.19,0,0,0-2.38.55,1.77,1.77,0,0,0-.79,1.56,1.72,1.72,0,0,0,.53,1.31A2.17,2.17,0,0,0,419.61,101Zm12.1-13.71v3.08H434v2.11h-2.24v7.08a1.59,1.59,0,0,0,.29,1,1.36,1.36,0,0,0,1,.32,4.19,4.19,0,0,0,1-.12V103a6.93,6.93,0,0,1-1.87.27c-2.19,0-3.28-1.2-3.28-3.62V92.43h-2.09V90.32h2.09V87.24Zm3.54,9.3a7.46,7.46,0,0,1,.74-3.35,5.41,5.41,0,0,1,2.08-2.3,5.88,5.88,0,0,1,3.07-.8,5.54,5.54,0,0,1,4.16,1.65A6.45,6.45,0,0,1,447,96.12v.67a7.53,7.53,0,0,1-.72,3.35,5.29,5.29,0,0,1-2.07,2.29,5.93,5.93,0,0,1-3.09.8,5.52,5.52,0,0,1-4.3-1.78,6.87,6.87,0,0,1-1.61-4.77Zm2.85.25a5.13,5.13,0,0,0,.81,3.07,2.65,2.65,0,0,0,2.25,1.1,2.58,2.58,0,0,0,2.24-1.12,5.62,5.62,0,0,0,.81-3.3,5,5,0,0,0-.83-3,2.78,2.78,0,0,0-4.46,0A5.59,5.59,0,0,0,438.1,96.79Zm18-3.87a7.36,7.36,0,0,0-1.16-.09,2.63,2.63,0,0,0-2.64,1.5V103h-2.84V90.32h2.71l.07,1.42a3.22,3.22,0,0,1,2.86-1.65,2.64,2.64,0,0,1,1,.16ZM465,99.56a1.3,1.3,0,0,0-.64-1.17,6.58,6.58,0,0,0-2.07-.7,10.72,10.72,0,0,1-2.43-.77,3.25,3.25,0,0,1-2.13-3,3.37,3.37,0,0,1,1.38-2.74,5.47,5.47,0,0,1,3.52-1.1,5.68,5.68,0,0,1,3.67,1.12,3.58,3.58,0,0,1,1.4,2.92h-2.84a1.76,1.76,0,0,0-.61-1.36,2.32,2.32,0,0,0-1.62-.55,2.55,2.55,0,0,0-1.54.43,1.37,1.37,0,0,0-.58,1.16,1.14,1.14,0,0,0,.55,1,7.74,7.74,0,0,0,2.23.74,10.19,10.19,0,0,1,2.62.88,3.68,3.68,0,0,1,1.42,1.22,3.08,3.08,0,0,1,.47,1.73,3.34,3.34,0,0,1-1.42,2.78,6.1,6.1,0,0,1-3.72,1,6.47,6.47,0,0,1-2.77-.56,4.51,4.51,0,0,1-1.9-1.54,3.72,3.72,0,0,1-.68-2.13h2.76a2,2,0,0,0,.77,1.56,3,3,0,0,0,1.86.54,2.92,2.92,0,0,0,1.71-.42A1.34,1.34,0,0,0,465,99.56Z"/><path class="cls-5" d="M499.24,97.68a6.12,6.12,0,0,1-1.94,4.13,6.34,6.34,0,0,1-4.34,1.42,6.08,6.08,0,0,1-3.37-.94,6.37,6.37,0,0,1-2.25-2.69,9.49,9.49,0,0,1-.8-4V93.4a9.69,9.69,0,0,1,.79-4,6.18,6.18,0,0,1,2.29-2.71,6.25,6.25,0,0,1,3.44-1,6.09,6.09,0,0,1,4.33,1.49,6.19,6.19,0,0,1,1.85,4.09h-1.45q-.54-4.35-4.73-4.35a4.49,4.49,0,0,0-3.7,1.74A7.54,7.54,0,0,0,488,93.46v2.09a7.59,7.59,0,0,0,1.33,4.71A4.35,4.35,0,0,0,493,102a4.83,4.83,0,0,0,3.41-1.08,5.26,5.26,0,0,0,1.42-3.26Zm16.11-2.29a9.77,9.77,0,0,1-.82,4.14,6.15,6.15,0,0,1-2.32,2.74,6.37,6.37,0,0,1-3.49,1,6.08,6.08,0,0,1-4.83-2.13,8.55,8.55,0,0,1-1.84-5.78V93.57a9.79,9.79,0,0,1,.82-4.13,6.38,6.38,0,0,1,2.34-2.76,6.38,6.38,0,0,1,9.29,2.66,9.67,9.67,0,0,1,.85,4Zm-1.44-1.85a7.56,7.56,0,0,0-1.39-4.83,5,5,0,0,0-7.62,0,7.56,7.56,0,0,0-1.41,4.88v1.78a7.55,7.55,0,0,0,1.41,4.82,4.62,4.62,0,0,0,3.82,1.77,4.57,4.57,0,0,0,3.82-1.75,7.78,7.78,0,0,0,1.37-4.88Zm10,7.35.09.36.11-.36,5.37-15H531L524.67,103h-1.38l-6.36-17.06h1.57Zm13.26-4.83h-5.62V94.88h5.62Zm8.81,6.94h-1.41V87.63l-4.64,1.72V88l5.81-2.16h.24Zm17.47,0H552.72v-1.08l5.85-6.63a15.58,15.58,0,0,0,2-2.77,4.64,4.64,0,0,0,.56-2.12,3.42,3.42,0,0,0-.95-2.55,3.49,3.49,0,0,0-2.61-.95A3.72,3.72,0,0,0,554.8,88a3.94,3.94,0,0,0-1.06,2.86h-1.39a5.42,5.42,0,0,1,.64-2.63,4.84,4.84,0,0,1,1.85-1.85,5.55,5.55,0,0,1,2.75-.68,5.12,5.12,0,0,1,3.65,1.23,4.34,4.34,0,0,1,1.33,3.36,5.68,5.68,0,0,1-.75,2.61,20,20,0,0,1-2.62,3.54l-4.75,5.38h9Zm5.74-9.29h1.46a4.92,4.92,0,0,0,2.1-.42,3.22,3.22,0,0,0,1.38-1.18,3.11,3.11,0,0,0,.48-1.72,3.48,3.48,0,0,0-.93-2.57A3.63,3.63,0,0,0,571,86.9a3.8,3.8,0,0,0-2.69,1,3.28,3.28,0,0,0-1,2.54h-1.4a4.52,4.52,0,0,1,2.52-4.11,5.68,5.68,0,0,1,2.62-.6A5.12,5.12,0,0,1,574.64,87,4.54,4.54,0,0,1,576,90.44a3.7,3.7,0,0,1-.78,2.27,4.71,4.71,0,0,1-2.14,1.55,4.37,4.37,0,0,1,2.42,1.53,4.12,4.12,0,0,1,.82,2.58,4.62,4.62,0,0,1-1.43,3.53,5.37,5.37,0,0,1-3.82,1.33,6.48,6.48,0,0,1-2.8-.6,4.48,4.48,0,0,1-2.66-4.26H567a3.42,3.42,0,0,0,1.14,2.66,4.21,4.21,0,0,0,2.92,1,4,4,0,0,0,2.82-.92,3.51,3.51,0,0,0,1-2.71,3.19,3.19,0,0,0-1.1-2.62,5,5,0,0,0-3.22-.9h-1.41ZM585.88,103h-1.41V87.63l-4.64,1.72V88l5.81-2.16h.24Z"/><line class="cls-6" x1="136" y1="146" x2="876" y2="146"/><line class="cls-6" x1="136" y1="268" x2="876" y2="268"/><g class="cls-7"><path class="cls-8" d="M171.34,91.86l-1-1.09Zm13.6-2.49,1.38-.59Zm.69,3.57A5.61,5.61,0,0,1,187.5,97h3a8.59,8.59,0,0,0-2.8-6.23ZM187.5,97c0,3.29-3.48,6.5-8.5,6.5v3c6,0,11.5-4,11.5-9.5Zm-8.5,6.5c-5,0-8.5-3.21-8.5-6.5h-3c0,5.54,5.48,9.5,11.5,9.5ZM170.5,97a5.61,5.61,0,0,1,1.87-4.06l-2.07-2.17A8.59,8.59,0,0,0,167.5,97Zm3.94-7A5.16,5.16,0,0,1,179,86.5v-3a8.14,8.14,0,0,0-7.32,5.28ZM179,86.5A5.16,5.16,0,0,1,183.56,90l2.76-1.17A8.14,8.14,0,0,0,179,83.5Zm-6.63,6.44a9,9,0,0,0,2.07-3l-2.76-1.17a5.88,5.88,0,0,1-1.38,2Zm15.33-2.17a5.88,5.88,0,0,1-1.38-2L183.56,90a9,9,0,0,0,2.07,3Z"/></g><path class="cls-9" d="M176,91l1.4-1.87a2,2,0,0,1,3.2,0L182,91"/><circle class="cls-10" cx="179" cy="98" r="2.75"/><path class="cls-10" d="M172,102l-1.05,1a2.75,2.75,0,0,1-3.9,0h0a2.76,2.76,0,0,1-.76-2.5l.4-2a8.29,8.29,0,0,0,0-3.14l-.4-2a2.76,2.76,0,0,1,.76-2.5h0a2.75,2.75,0,0,1,3.9,0L172,92"/><path class="cls-10" d="M186,102l1.05,1a2.75,2.75,0,0,0,3.9,0h0a2.76,2.76,0,0,0,.76-2.5l-.4-2a8.29,8.29,0,0,1,0-3.14l.4-2A2.76,2.76,0,0,0,191,91h0a2.75,2.75,0,0,0-3.9,0L186,92"/><path class="cls-10" d="M177,98h4"/><rect class="cls-11" x="159" y="41" width="58" height="18" rx="4"/><rect class="cls-11" x="159" y="179" width="65" height="18" rx="4"/><rect class="cls-12" x="159" y="213" width="89" height="24" rx="4"/><rect class="cls-12" x="288" y="213" width="69" height="24" rx="4"/><rect class="cls-12" x="595" y="213" width="97" height="24" rx="4"/><rect class="cls-12" x="733" y="213" width="55" height="24" rx="4"/><rect class="cls-11" x="288" y="179" width="130" height="18" rx="4"/><rect class="cls-11" x="457" y="179" width="50" height="18" rx="4"/><rect class="cls-13" x="458" y="213" width="97" height="24" rx="4"/><rect class="cls-11" x="595" y="179" width="61" height="18" rx="4"/><rect class="cls-11" x="732" y="179" width="69" height="18" rx="4"/><rect class="cls-11" x="159" y="371" width="694" height="64" rx="4"/><rect class="cls-12" x="159" y="325" width="171" height="30" rx="4"/><rect class="cls-11" x="159" y="443" width="694" height="64" rx="4"/><rect class="cls-8" x="366.04" y="494" width="241" height="124" rx="4"/><rect class="cls-14" x="367.04" y="495" width="239" height="122" rx="3"/><path class="cls-3" d="M432.21,535h-2l-5.07-8.07V535h-2V523.63h2l5.08,8.1v-8.1h2Zm10-5.08h-4.67v3.5H443V535h-7.44V523.63h7.38v1.59h-5.4v3.14h4.67Zm10.05,0h-4.68v3.5H453V535H445.6V523.63H453v1.59h-5.41v3.14h4.68Zm3.39,5.08V523.63H459a5.25,5.25,0,0,1,2.68.67,4.55,4.55,0,0,1,1.81,1.9,6.05,6.05,0,0,1,.64,2.83v.57a6.05,6.05,0,0,1-.65,2.85,4.59,4.59,0,0,1-1.84,1.89,5.5,5.5,0,0,1-2.72.66Zm2-9.78v8.2h1.29a2.94,2.94,0,0,0,2.38-1,4.21,4.21,0,0,0,.85-2.79V529a4.31,4.31,0,0,0-.8-2.82,2.83,2.83,0,0,0-2.34-1Zm16.13,4.7h-4.68v3.5h5.47V535H467.1V523.63h7.38v1.59h-5.41v3.14h4.68Zm3.39,5.08V523.63h3.36a5.25,5.25,0,0,1,2.68.67,4.55,4.55,0,0,1,1.81,1.9,6.05,6.05,0,0,1,.64,2.83v.57a6.05,6.05,0,0,1-.65,2.85,4.59,4.59,0,0,1-1.84,1.89,5.5,5.5,0,0,1-2.72.66Zm2-9.78v8.2h1.29a2.94,2.94,0,0,0,2.38-1,4.21,4.21,0,0,0,.85-2.79V529a4.31,4.31,0,0,0-.8-2.82,2.83,2.83,0,0,0-2.34-1ZM493.58,535V523.63h3.9a4.73,4.73,0,0,1,2.94.77,2.72,2.72,0,0,1,1,2.3,2.42,2.42,0,0,1-.43,1.41,2.69,2.69,0,0,1-1.23,1,2.46,2.46,0,0,1,1.42.94,2.71,2.71,0,0,1,.51,1.66,3,3,0,0,1-1,2.46,4.46,4.46,0,0,1-2.94.86Zm2-5.13v3.55h2.19a2.13,2.13,0,0,0,1.46-.46,1.82,1.82,0,0,0-1.29-3.09Zm0-1.46h1.94a2.19,2.19,0,0,0,1.43-.41,1.44,1.44,0,0,0,.53-1.19,1.46,1.46,0,0,0-.49-1.22,2.4,2.4,0,0,0-1.49-.37h-1.92ZM508,529l2.62-5.39h2.18l-3.81,7.18V535h-2v-4.19l-3.82-7.18h2.19Z"/><path class="cls-4" d="M412.1,569.33h-5.32V584h-2.94V569.33h-5.28v-2.39H412.1Zm4.78,3.37a4.47,4.47,0,0,1,3.53-1.61q4.05,0,4.11,4.62V584h-2.85v-8.18a2.48,2.48,0,0,0-.57-1.85,2.29,2.29,0,0,0-1.67-.55,2.74,2.74,0,0,0-2.55,1.52V584H414V566h2.85ZM430.44,584h-2.85V571.32h2.85Zm-3-16a1.54,1.54,0,0,1,.41-1.09,1.61,1.61,0,0,1,1.2-.44,1.57,1.57,0,0,1,1.19.44,1.58,1.58,0,0,1,0,2.17,1.6,1.6,0,0,1-1.19.42,1.64,1.64,0,0,1-1.2-.42A1.53,1.53,0,0,1,427.41,568Zm13.25,12.52a1.29,1.29,0,0,0-.64-1.16,6.58,6.58,0,0,0-2.07-.7,10.72,10.72,0,0,1-2.43-.77,3.25,3.25,0,0,1-2.13-3,3.37,3.37,0,0,1,1.38-2.74,5.47,5.47,0,0,1,3.52-1.1,5.68,5.68,0,0,1,3.67,1.12,3.58,3.58,0,0,1,1.4,2.92h-2.84a1.76,1.76,0,0,0-.61-1.36,2.32,2.32,0,0,0-1.62-.55,2.55,2.55,0,0,0-1.54.43,1.37,1.37,0,0,0-.58,1.16,1.14,1.14,0,0,0,.55,1,7.74,7.74,0,0,0,2.23.74,10.19,10.19,0,0,1,2.62.88,3.68,3.68,0,0,1,1.42,1.22,3.08,3.08,0,0,1,.47,1.73,3.34,3.34,0,0,1-1.42,2.78,6.1,6.1,0,0,1-3.72,1.05,6.47,6.47,0,0,1-2.77-.56,4.51,4.51,0,0,1-1.9-1.54A3.72,3.72,0,0,1,433,580h2.76a2,2,0,0,0,.77,1.56,3,3,0,0,0,1.86.54,2.92,2.92,0,0,0,1.71-.42A1.34,1.34,0,0,0,440.66,580.55Zm24.92-.77,2.63-12.84h2.94L467.21,584h-2.83l-3.25-12.46L457.81,584H455L451,566.94H454l2.65,12.82,3.26-12.82h2.48Zm12.67,4.45a5.92,5.92,0,0,1-4.39-1.69,6.23,6.23,0,0,1-1.68-4.55v-.35a7.54,7.54,0,0,1,.73-3.39,5.57,5.57,0,0,1,2.06-2.33,5.39,5.39,0,0,1,2.95-.83,5,5,0,0,1,4,1.65,7,7,0,0,1,1.42,4.67v1.15h-8.29a3.85,3.85,0,0,0,1,2.49,3.17,3.17,0,0,0,2.32.91,3.86,3.86,0,0,0,3.19-1.58l1.54,1.46a5.16,5.16,0,0,1-2,1.77A6.31,6.31,0,0,1,478.25,584.23Zm-.34-10.86a2.42,2.42,0,0,0-1.9.82,4.32,4.32,0,0,0-.91,2.29h5.42v-.21a3.38,3.38,0,0,0-.76-2.16A2.37,2.37,0,0,0,477.91,573.37Zm7.11,4.2a7.54,7.54,0,0,1,1.36-4.7,4.35,4.35,0,0,1,3.65-1.78,4.14,4.14,0,0,1,3.26,1.4V566h2.84v18h-2.57l-.15-1.31a4.18,4.18,0,0,1-3.41,1.54,4.35,4.35,0,0,1-3.61-1.79A7.85,7.85,0,0,1,485,577.57Zm2.85.24a5.39,5.39,0,0,0,.74,3,2.45,2.45,0,0,0,2.12,1.07,2.71,2.71,0,0,0,2.56-1.55v-5.42a2.67,2.67,0,0,0-2.54-1.52,2.43,2.43,0,0,0-2.13,1.1A5.84,5.84,0,0,0,487.87,577.81Zm13.88-6.49.08,1.47a4.53,4.53,0,0,1,3.69-1.7q4,0,4,4.53V584H506.7v-8.21a2.6,2.6,0,0,0-.52-1.79,2.19,2.19,0,0,0-1.7-.58,2.74,2.74,0,0,0-2.57,1.56v9h-2.85V571.32Zm16.3,12.91a5.94,5.94,0,0,1-4.4-1.69A6.27,6.27,0,0,1,512,578v-.35a7.68,7.68,0,0,1,.72-3.39,5.64,5.64,0,0,1,2.06-2.33,5.42,5.42,0,0,1,3-.83,4.93,4.93,0,0,1,4,1.65,6.93,6.93,0,0,1,1.42,4.67v1.15h-8.28a3.8,3.8,0,0,0,1,2.49,3.17,3.17,0,0,0,2.32.91,3.88,3.88,0,0,0,3.19-1.58l1.53,1.46a5,5,0,0,1-2,1.77A6.27,6.27,0,0,1,518.05,584.23Zm-.34-10.86a2.4,2.4,0,0,0-1.9.82,4.33,4.33,0,0,0-.92,2.29h5.43v-.21a3.44,3.44,0,0,0-.76-2.16A2.38,2.38,0,0,0,517.71,573.37Zm14.75,7.18a1.3,1.3,0,0,0-.63-1.16,6.75,6.75,0,0,0-2.08-.7,10.79,10.79,0,0,1-2.42-.77,3.25,3.25,0,0,1-2.13-3,3.37,3.37,0,0,1,1.38-2.74,5.42,5.42,0,0,1,3.51-1.1,5.66,5.66,0,0,1,3.67,1.12,3.56,3.56,0,0,1,1.41,2.92h-2.85a1.72,1.72,0,0,0-.61-1.36,2.31,2.31,0,0,0-1.62-.55,2.54,2.54,0,0,0-1.53.43,1.38,1.38,0,0,0-.59,1.16,1.16,1.16,0,0,0,.55,1,7.74,7.74,0,0,0,2.23.74,10.29,10.29,0,0,1,2.63.88,3.65,3.65,0,0,1,1.41,1.22,3,3,0,0,1,.47,1.73,3.31,3.31,0,0,1-1.42,2.78,6.07,6.07,0,0,1-3.71,1.05,6.48,6.48,0,0,1-2.78-.56,4.63,4.63,0,0,1-1.9-1.54,3.72,3.72,0,0,1-.68-2.13h2.77a2,2,0,0,0,.76,1.56,3.59,3.59,0,0,0,3.58.12A1.36,1.36,0,0,0,532.46,580.55Zm4.76-3a7.48,7.48,0,0,1,1.36-4.7,4.33,4.33,0,0,1,3.64-1.78,4.12,4.12,0,0,1,3.26,1.4V566h2.85v18h-2.58l-.14-1.31a4.2,4.2,0,0,1-3.41,1.54,4.32,4.32,0,0,1-3.61-1.79A7.85,7.85,0,0,1,537.22,577.57Zm2.85.24a5.31,5.31,0,0,0,.74,3,2.44,2.44,0,0,0,2.12,1.07,2.69,2.69,0,0,0,2.55-1.55v-5.42a2.65,2.65,0,0,0-2.53-1.52,2.43,2.43,0,0,0-2.13,1.1A5.84,5.84,0,0,0,540.07,577.81ZM558.88,584a4.1,4.1,0,0,1-.33-1.18,4.81,4.81,0,0,1-6.45.32,3.49,3.49,0,0,1-1.21-2.69,3.6,3.6,0,0,1,1.5-3.11,7.37,7.37,0,0,1,4.32-1.09h1.74v-.83a2.2,2.2,0,0,0-.55-1.57,2.14,2.14,0,0,0-1.67-.6,2.51,2.51,0,0,0-1.6.5A1.5,1.5,0,0,0,554,575h-2.85a3.09,3.09,0,0,1,.7-2,4.61,4.61,0,0,1,1.87-1.43,6.71,6.71,0,0,1,2.66-.51,5.28,5.28,0,0,1,3.55,1.12,4,4,0,0,1,1.36,3.14v5.72a6.49,6.49,0,0,0,.48,2.73v.2Zm-3.13-2a3.24,3.24,0,0,0,1.58-.41,2.7,2.7,0,0,0,1.12-1.1v-2.39h-1.53a4.16,4.16,0,0,0-2.38.55,1.77,1.77,0,0,0-.8,1.56,1.7,1.7,0,0,0,.54,1.31A2.17,2.17,0,0,0,555.75,582Zm12.78-2,2.58-8.6h3l-5,14.6q-1.17,3.2-3.94,3.2a5.08,5.08,0,0,1-1.37-.21v-2.2l.54,0a2.65,2.65,0,0,0,1.61-.4,2.48,2.48,0,0,0,.87-1.31l.41-1.09-4.45-12.62h3.07Z"/><path class="cls-3" d="M407.18,527.14a.28.28,0,0,0-.29-.28h-.57a.28.28,0,0,0-.29.28v3.15h-2a.27.27,0,0,0-.28.28v.57a.28.28,0,0,0,.28.29h2.86a.29.29,0,0,0,.29-.29Zm3.71,3.15a4.86,4.86,0,1,1-4.86-4.86A4.86,4.86,0,0,1,410.89,530.29Zm2,0a6.86,6.86,0,1,0-6.86,6.85A6.86,6.86,0,0,0,412.89,530.29Z"/><rect class="cls-8" x="811.59" y="278" width="209" height="124" rx="4"/><rect class="cls-14" x="812.59" y="279" width="207" height="122" rx="3"/><path class="cls-3" d="M870.72,317.42h5.16V319h-7.14V307.63h2ZM887,313.61a7.14,7.14,0,0,1-.58,2.94,4.37,4.37,0,0,1-1.66,1.93,4.51,4.51,0,0,1-2.47.68,4.61,4.61,0,0,1-2.47-.68,4.52,4.52,0,0,1-1.67-1.93,6.7,6.7,0,0,1-.59-2.88V313a7,7,0,0,1,.58-2.94,4.49,4.49,0,0,1,1.67-1.94,4.84,4.84,0,0,1,4.93,0,4.29,4.29,0,0,1,1.66,1.92A7,7,0,0,1,887,313Zm-2-.59a5,5,0,0,0-.72-2.9,2.52,2.52,0,0,0-4,0,4.84,4.84,0,0,0-.73,2.83v.66a5,5,0,0,0,.72,2.9,2.37,2.37,0,0,0,2,1,2.31,2.31,0,0,0,2-1,5.05,5.05,0,0,0,.71-2.92Zm13.62,2.28a4.1,4.1,0,0,1-1.34,2.84,4.58,4.58,0,0,1-3.12,1,4.52,4.52,0,0,1-2.39-.64,4.36,4.36,0,0,1-1.6-1.84,6.6,6.6,0,0,1-.58-2.76v-1.06a6.7,6.7,0,0,1,.57-2.84,4.37,4.37,0,0,1,1.63-1.89,4.61,4.61,0,0,1,2.47-.66,4.41,4.41,0,0,1,3,1,4.28,4.28,0,0,1,1.33,2.89h-2a2.85,2.85,0,0,0-.72-1.76,2.67,2.67,0,0,0-3.67.4,4.66,4.66,0,0,0-.7,2.75v1a5,5,0,0,0,.66,2.81,2.18,2.18,0,0,0,1.93,1,2.54,2.54,0,0,0,1.75-.52,2.77,2.77,0,0,0,.75-1.74Zm9.15,1.05h-4.41l-.92,2.65h-2.06l4.3-11.37h1.77L910.76,319h-2.07Zm-3.86-1.59h3.3L905.56,310Zm16.43-5.54h-3.55V319h-2v-9.78h-3.52v-1.59h9Zm4.58,9.78h-2V307.63h2Zm12.51-5.39a7,7,0,0,1-.58,2.94,4.31,4.31,0,0,1-1.66,1.93,4.5,4.5,0,0,1-2.46.68,4.56,4.56,0,0,1-2.47-.68,4.39,4.39,0,0,1-1.67-1.93,6.7,6.7,0,0,1-.6-2.88V313a7,7,0,0,1,.59-2.94,4.41,4.41,0,0,1,1.66-1.94,4.56,4.56,0,0,1,2.47-.68,4.49,4.49,0,0,1,2.46.67,4.37,4.37,0,0,1,1.67,1.92,7,7,0,0,1,.59,2.92Zm-2-.59a5,5,0,0,0-.72-2.9,2.32,2.32,0,0,0-2-1,2.36,2.36,0,0,0-2,1A4.84,4.84,0,0,0,930,313v.66a5,5,0,0,0,.72,2.9,2.37,2.37,0,0,0,2,1,2.3,2.3,0,0,0,2-1,5,5,0,0,0,.71-2.92Zm14,6h-2l-5.07-8.07V319h-2V307.63h2l5.09,8.1v-8.1h2Z"/><path class="cls-4" d="M858.86,368h-3l-7.61-12.11V368h-3V350.94h3l7.63,12.15V350.94h3Zm8.81.23a5.94,5.94,0,0,1-4.4-1.69A6.27,6.27,0,0,1,861.6,362v-.35a7.68,7.68,0,0,1,.72-3.39,5.59,5.59,0,0,1,2.07-2.33,5.36,5.36,0,0,1,3-.83,5,5,0,0,1,4,1.65,7,7,0,0,1,1.41,4.67v1.15h-8.28a3.8,3.8,0,0,0,1,2.49,3.17,3.17,0,0,0,2.32.91,3.86,3.86,0,0,0,3.19-1.58l1.53,1.46a5.06,5.06,0,0,1-2,1.77A6.34,6.34,0,0,1,867.67,368.23Zm-.34-10.86a2.4,2.4,0,0,0-1.9.82,4.25,4.25,0,0,0-.91,2.29h5.42v-.21a3.44,3.44,0,0,0-.76-2.16A2.38,2.38,0,0,0,867.33,357.37Zm18.78,6.7,2-8.75h2.78L887.45,368h-2.34l-2.72-8.71L879.71,368h-2.34l-3.47-12.68h2.78l2.05,8.66,2.6-8.66h2.15ZM904.63,359l3.92-8.08h3.29l-5.72,10.78V368h-3v-6.28l-5.73-10.78h3.29Zm7.48,2.52a7.46,7.46,0,0,1,.73-3.35,5.47,5.47,0,0,1,2.08-2.3,5.88,5.88,0,0,1,3.07-.8,5.52,5.52,0,0,1,4.16,1.65,6.45,6.45,0,0,1,1.73,4.38v.67a7.53,7.53,0,0,1-.72,3.35,5.33,5.33,0,0,1-2.06,2.29,6,6,0,0,1-3.1.8,5.52,5.52,0,0,1-4.3-1.78,6.86,6.86,0,0,1-1.6-4.77Zm2.84.25a5.13,5.13,0,0,0,.81,3.07A2.65,2.65,0,0,0,918,366a2.58,2.58,0,0,0,2.24-1.12,5.62,5.62,0,0,0,.81-3.3,5,5,0,0,0-.83-3,2.78,2.78,0,0,0-4.46,0A5.59,5.59,0,0,0,915,361.79Zm18-3.87a7.27,7.27,0,0,0-1.16-.09,2.63,2.63,0,0,0-2.64,1.5V368H926.3V355.32H929l.07,1.42a3.2,3.2,0,0,1,2.85-1.65,2.64,2.64,0,0,1,1,.16Zm5.92,4.64-1.27,1.3V368h-2.84V350h2.84v10.38l.89-1.11,3.51-3.95h3.42l-4.71,5.29,5.21,7.39h-3.29Zm8.82,9.28-1.53-.91a7.92,7.92,0,0,0,.92-1.86,5,5,0,0,0,.27-1.61v-2.21h2.57v2.05a5.7,5.7,0,0,1-.63,2.48A6.11,6.11,0,0,1,947.68,371.84ZM972.34,368h-3l-7.6-12.11V368h-3V350.94h3l7.63,12.15V350.94h2.94Zm8.74-9,3.93-8.08h3.28l-5.72,10.78V368h-3v-6.28l-5.73-10.78h3.3Z"/><path class="cls-3" d="M853.87,312a2.29,2.29,0,1,1-2.28-2.29A2.29,2.29,0,0,1,853.87,312Zm2.29,0a4.57,4.57,0,1,0-9.14,0,3.79,3.79,0,0,0,.29,1.6l3.26,6.91a1.14,1.14,0,0,0,2,0l3.25-6.91A3.65,3.65,0,0,0,856.16,312Z"/><rect class="cls-3" x="763.59" y="54" width="96" height="40" rx="8"/><path class="cls-8" d="M784.28,79.63H792V82H781.32V64.94h3ZM802.43,82h-2.95V64.94h2.95Zm14.66-3.71,4.34-13.35h3.25L818.54,82h-2.87l-6.12-17.06h3.25Zm24.5-3.91h-7v5.25h8.19V82H831.62V64.94h11.07v2.39h-8.11V72h7Z"/><rect class="cls-8" y="309.84" width="199" height="124" rx="4"/><rect class="cls-14" x="1" y="310.84" width="197" height="122" rx="3"/><path class="cls-3" d="M66.2,345.45a7.08,7.08,0,0,1-.52,2.81,4.59,4.59,0,0,1-1.43,1.87l2,1.53-1.28,1.15L62.5,350.9a4.77,4.77,0,0,1-1,.1,4.4,4.4,0,0,1-4.14-2.6,6.89,6.89,0,0,1-.59-2.88v-.64a7,7,0,0,1,.59-2.94A4.44,4.44,0,0,1,59,340a4.55,4.55,0,0,1,2.46-.68,4.65,4.65,0,0,1,2.48.67,4.37,4.37,0,0,1,1.66,1.93,6.93,6.93,0,0,1,.6,2.91Zm-2-.59a4.92,4.92,0,0,0-.72-2.91,2.52,2.52,0,0,0-4,0,4.86,4.86,0,0,0-.73,2.83v.66a5,5,0,0,0,.72,2.89,2.52,2.52,0,0,0,4,0,5.09,5.09,0,0,0,.71-2.93Zm13.31-5.39v7.6A3.7,3.7,0,0,1,76.36,350,4.42,4.42,0,0,1,73.27,351a4.47,4.47,0,0,1-3.1-1,3.74,3.74,0,0,1-1.15-2.9v-7.59h2v7.61a2.39,2.39,0,0,0,.58,1.74,2.26,2.26,0,0,0,1.7.6q2.28,0,2.28-2.4v-7.55Zm9.32,8.73H82.43l-.92,2.64H79.45l4.3-11.37h1.77l4.31,11.37H87.77ZM83,346.6h3.3l-1.65-4.72Zm18.17,4.24h-2l-5.07-8.07v8.07h-2V339.47h2l5.09,8.1v-8.1h2Zm11.32-9.78h-3.55v9.78h-2v-9.78h-3.52v-1.59h9Zm4.59,9.78h-2V339.47h2Zm11.41-9.78h-3.55v9.78h-2v-9.78h-3.52v-1.59h9Zm6.33,3.8,2.62-5.39h2.19l-3.81,7.19v4.18h-2v-4.18L130,339.47h2.2Z"/><path class="cls-4" d="M41,399.84H38.15v-13.7L34,387.57v-2.4l6.66-2.45H41Zm17-7.18a9.31,9.31,0,0,1-1.38,5.55,4.85,4.85,0,0,1-4.19,1.87,5,5,0,0,1-4.17-1.82,8.94,8.94,0,0,1-1.43-5.4v-2.95a9.2,9.2,0,0,1,1.37-5.52,4.92,4.92,0,0,1,4.21-1.84,4.89,4.89,0,0,1,4.17,1.79A8.85,8.85,0,0,1,58,389.71Zm-2.85-3.19a7.25,7.25,0,0,0-.65-3.51,2.5,2.5,0,0,0-4.14-.06,6.55,6.55,0,0,0-.69,3.3v3.87a7.34,7.34,0,0,0,.67,3.56,2.23,2.23,0,0,0,2.09,1.17,2.2,2.2,0,0,0,2-1.07,7,7,0,0,0,.69-3.4Zm6,14.22-1.53-.92a8.42,8.42,0,0,0,.93-1.86,5.17,5.17,0,0,0,.26-1.61v-2.21h2.57v2.05a5.74,5.74,0,0,1-.63,2.49A6.21,6.21,0,0,1,61.14,403.69Zm15.81-11a9.31,9.31,0,0,1-1.38,5.55,4.83,4.83,0,0,1-4.18,1.87,5,5,0,0,1-4.18-1.82,9,9,0,0,1-1.42-5.4v-2.95a9.13,9.13,0,0,1,1.37-5.52,4.9,4.9,0,0,1,4.2-1.84,4.92,4.92,0,0,1,4.18,1.79A8.85,8.85,0,0,1,77,389.71Zm-2.84-3.19a7.12,7.12,0,0,0-.66-3.51,2.5,2.5,0,0,0-4.14-.06,6.65,6.65,0,0,0-.69,3.3v3.87a7.34,7.34,0,0,0,.67,3.56,2.24,2.24,0,0,0,2.1,1.17,2.18,2.18,0,0,0,2-1.07,7.05,7.05,0,0,0,.7-3.4Zm16.48,3.19a9.31,9.31,0,0,1-1.38,5.55A4.83,4.83,0,0,1,85,400.08a4.93,4.93,0,0,1-4.17-1.82,8.94,8.94,0,0,1-1.43-5.4v-2.95a9.13,9.13,0,0,1,1.37-5.52,5.74,5.74,0,0,1,8.38-.05,8.85,8.85,0,0,1,1.41,5.37Zm-2.84-3.19a7.12,7.12,0,0,0-.66-3.51A2.5,2.5,0,0,0,83,385.9a6.77,6.77,0,0,0-.69,3.3v3.87a7.34,7.34,0,0,0,.67,3.56A2.25,2.25,0,0,0,85,397.8a2.18,2.18,0,0,0,2-1.07,7.05,7.05,0,0,0,.7-3.4Zm16.48,3.19a9.31,9.31,0,0,1-1.38,5.55,4.83,4.83,0,0,1-4.18,1.87,4.93,4.93,0,0,1-4.17-1.82,8.94,8.94,0,0,1-1.43-5.4v-2.95a9.13,9.13,0,0,1,1.37-5.52,5.74,5.74,0,0,1,8.38-.05,8.85,8.85,0,0,1,1.41,5.37Zm-2.84-3.19a7.12,7.12,0,0,0-.66-3.51,2.5,2.5,0,0,0-4.14-.06,6.77,6.77,0,0,0-.69,3.3v3.87a7.46,7.46,0,0,0,.67,3.56,2.25,2.25,0,0,0,2.1,1.17,2.18,2.18,0,0,0,2-1.07,7.05,7.05,0,0,0,.7-3.4Zm24.28-6.69v11.4a5.55,5.55,0,0,1-1.75,4.32,7.64,7.64,0,0,1-9.28,0,5.59,5.59,0,0,1-1.72-4.35V382.78h3V394.2a3.61,3.61,0,0,0,.87,2.61,3.39,3.39,0,0,0,2.55.9q3.42,0,3.42-3.61V382.78Zm5.54,4.38.08,1.47a4.57,4.57,0,0,1,3.69-1.7c2.65,0,4,1.51,4,4.53v8.38h-2.85v-8.21a2.56,2.56,0,0,0-.53-1.78,2.16,2.16,0,0,0-1.7-.59,2.73,2.73,0,0,0-2.56,1.56v9h-2.85V387.16ZM145,399.84h-2.85V387.16H145Zm-3-16a1.54,1.54,0,0,1,.41-1.09,1.6,1.6,0,0,1,1.2-.43,1.58,1.58,0,0,1,1.19.43,1.58,1.58,0,0,1,0,2.17,1.61,1.61,0,0,1-1.19.42,1.64,1.64,0,0,1-1.2-.42A1.53,1.53,0,0,1,141.93,383.87Zm9.71.21v3.08h2.24v2.11h-2.24v7.08a1.6,1.6,0,0,0,.28,1.06,1.36,1.36,0,0,0,1,.31,4.94,4.94,0,0,0,1-.11v2.2a7.06,7.06,0,0,1-1.88.27q-3.28,0-3.28-3.62v-7.19H146.7v-2.11h2.09v-3.08Zm11.53,12.32a1.28,1.28,0,0,0-.63-1.16,6.5,6.5,0,0,0-2.08-.7,10.93,10.93,0,0,1-2.42-.78,3.23,3.23,0,0,1-2.14-3,3.37,3.37,0,0,1,1.39-2.74,5.47,5.47,0,0,1,3.51-1.1,5.66,5.66,0,0,1,3.67,1.12,3.57,3.57,0,0,1,1.41,2.92H163a1.77,1.77,0,0,0-.61-1.36,2.37,2.37,0,0,0-1.62-.55,2.52,2.52,0,0,0-1.53.44,1.37,1.37,0,0,0-.59,1.16,1.17,1.17,0,0,0,.55,1,7.82,7.82,0,0,0,2.23.73,10.59,10.59,0,0,1,2.62.88,3.69,3.69,0,0,1,1.42,1.22,3.14,3.14,0,0,1,.47,1.74,3.3,3.3,0,0,1-1.42,2.77,6,6,0,0,1-3.71,1.06,6.63,6.63,0,0,1-2.78-.56,4.59,4.59,0,0,1-1.9-1.55,3.68,3.68,0,0,1-.68-2.12h2.77a2,2,0,0,0,.76,1.56,3,3,0,0,0,1.86.54,2.91,2.91,0,0,0,1.71-.43A1.34,1.34,0,0,0,163.17,396.4Z"/><path class="cls-3" d="M40.64,346.42h-1.7l.42-1.72h1.7ZM45.78,343a.26.26,0,0,0,0-.19.25.25,0,0,0-.17-.08H43.49l.52-2.09a.23.23,0,0,0,0-.18.23.23,0,0,0-.17-.08H42.3a.21.21,0,0,0-.21.16l-.54,2.19h-1.7l.52-2.09a.23.23,0,0,0,0-.18.23.23,0,0,0-.17-.08h-1.5a.21.21,0,0,0-.21.16l-.55,2.19H35.71a.2.2,0,0,0-.2.16l-.38,1.5a.21.21,0,0,0,.21.27h2.08L37,346.42H34.8a.19.19,0,0,0-.2.16l-.38,1.5a.23.23,0,0,0,0,.18.21.21,0,0,0,.17.08h2.08L36,350.43a.25.25,0,0,0,0,.19.23.23,0,0,0,.17.08h1.5a.23.23,0,0,0,.21-.16l.54-2.2h1.7l-.52,2.09a.25.25,0,0,0,0,.19.23.23,0,0,0,.18.08h1.5a.21.21,0,0,0,.2-.16l.55-2.2h2.19a.19.19,0,0,0,.2-.16l.38-1.5a.2.2,0,0,0,0-.18.21.21,0,0,0-.17-.08H42.58L43,344.7H45.2a.2.2,0,0,0,.2-.16Z"/></g></g></svg>