<svg width="32" height="32" viewBox="0 0 32 32" fill="none" xmlns="http://www.w3.org/2000/svg">
<path d="M6.5 21.0997V11.1108C6.5 10.5171 7.01425 10.0541 7.60468 10.1163L11.8126 10.5592C14.5965 10.8523 17.4035 10.8523 20.1874 10.5592L24.3953 10.1163C24.9858 10.0541 25.5 10.5171 25.5 11.1108V21.0997C25.5 21.6115 25.1136 22.0407 24.6047 22.0942L20.1874 22.5592C17.4035 22.8523 14.5965 22.8523 11.8126 22.5592L7.39532 22.0942C6.88637 22.0407 6.5 21.6115 6.5 21.0997Z" stroke="#2F80ED"/>
<path d="M8.875 14.25L11.25 14.5L11.8126 14.5592C14.5965 14.8523 17.4035 14.8523 20.1874 14.5592L20.75 14.5L23.125 14.25" stroke="#2F80ED" stroke-linecap="round"/>
<path d="M9 18L11.375 18.25L11.9376 18.3092C14.7215 18.6023 17.5285 18.6023 20.3124 18.3092L20.875 18.25L23.25 18" stroke="#2F80ED" stroke-linecap="round"/>
<path d="M6.5 13.5L5.06066 12.0607C4.47487 11.4749 3.52513 11.4749 2.93934 12.0607V12.0607C2.65804 12.342 2.5 12.7235 2.5 13.1213V14.8431C2.5 15.904 2.92143 16.9214 3.67157 17.6716L6.5 20.5" stroke="#2F80ED"/>
<path d="M25.5 13.5L26.9393 12.0607C27.5251 11.4749 28.4749 11.4749 29.0607 12.0607V12.0607C29.342 12.342 29.5 12.7235 29.5 13.1213V14.8431C29.5 15.904 29.0786 16.9214 28.3284 17.6716L25.5 20.5" stroke="#2F80ED"/>
</svg>
