<svg width="32" height="32" viewBox="0 0 32 32" fill="none" xmlns="http://www.w3.org/2000/svg">
<mask id="path-2-inside-1" fill="white">
<path fill-rule="evenodd" clip-rule="evenodd" d="M21.9412 10.3671C22.3393 11.3027 22.9264 12.1574 23.6624 12.8589C25.1214 14.2492 26 16.0423 26 17.9996C26 22.4178 21.5228 25.9996 16 25.9996C10.4772 25.9996 6 22.4178 6 17.9996C6 16.0423 6.87862 14.2492 8.33755 12.8589C9.07364 12.1574 9.66069 11.3027 10.0588 10.3671C11.1617 7.77491 13.4081 6 16 6C18.5919 6 20.8383 7.77491 21.9412 10.3671Z"/>
</mask>
<path d="M8.33755 12.8589L7.64768 12.135L8.33755 12.8589ZM21.9412 10.3671L22.8614 9.9756L21.9412 10.3671ZM22.9726 13.5828C24.2656 14.815 25 16.3572 25 17.9996H27C27 15.7273 25.9772 13.6834 24.3523 12.135L22.9726 13.5828ZM25 17.9996C25 21.6689 21.1903 24.9996 16 24.9996V26.9996C21.8554 26.9996 27 23.1668 27 17.9996H25ZM16 24.9996C10.8097 24.9996 7 21.6689 7 17.9996H5C5 23.1668 10.1446 26.9996 16 26.9996V24.9996ZM7 17.9996C7 16.3572 7.73443 14.815 9.02742 13.5828L7.64768 12.135C6.02281 13.6834 5 15.7273 5 17.9996H7ZM10.9789 10.7586C11.9637 8.44425 13.8996 7 16 7V5C12.9166 5 10.3597 7.10558 9.1386 9.9756L10.9789 10.7586ZM16 7C18.1004 7 20.0363 8.44425 21.0211 10.7586L22.8614 9.9756C21.6403 7.10558 19.0834 5 16 5V7ZM9.02742 13.5828C9.86413 12.7855 10.5286 11.817 10.9789 10.7586L9.1386 9.9756C8.79274 10.7885 8.28314 11.5294 7.64768 12.135L9.02742 13.5828ZM24.3523 12.135C23.7169 11.5294 23.2073 10.7885 22.8614 9.9756L21.0211 10.7586C21.4714 11.817 22.1359 12.7855 22.9726 13.5828L24.3523 12.135Z" fill="#2F80ED" mask="url(#path-2-inside-1)"/>
<path d="M13 12L14.4 10.1333C15.2 9.06667 16.8 9.06667 17.6 10.1333L19 12" stroke="#2F80ED" stroke-linecap="round" stroke-linejoin="round"/>
<circle cx="16" cy="19" r="2.5" stroke="#2F80ED"/>
<path d="M9 23L7.95416 24.0458C6.87491 25.1251 5.12509 25.1251 4.04584 24.0458V24.0458C3.39246 23.3925 3.10885 22.4558 3.29006 21.5497L3.68621 19.5689C3.89335 18.5332 3.89335 17.4668 3.68621 16.4311L3.29006 14.4503C3.10885 13.5442 3.39246 12.6075 4.04584 11.9542V11.9542C5.12509 10.8749 6.87491 10.8749 7.95416 11.9542L9 13" stroke="#2F80ED"/>
<path d="M23 23L24.0458 24.0458C25.1251 25.1251 26.8749 25.1251 27.9542 24.0458V24.0458C28.6075 23.3925 28.8912 22.4558 28.7099 21.5497L28.3138 19.5689C28.1066 18.5332 28.1066 17.4668 28.3138 16.4311L28.7099 14.4503C28.8912 13.5442 28.6075 12.6075 27.9542 11.9542V11.9542C26.8749 10.8749 25.1251 10.8749 24.0458 11.9542L23 13" stroke="#2F80ED"/>
<path d="M14 19H18" stroke="#2F80ED"/>
</svg>
