<svg width="32" height="32" viewBox="0 0 32 32" fill="none" xmlns="http://www.w3.org/2000/svg">
<path d="M8.30191 15.2643C8.14205 14.0654 9.07479 13 10.2844 13H21.7156C22.9252 13 23.858 14.0654 23.6981 15.2643L22.2314 26.2643C22.0989 27.2579 21.2514 28 20.249 28H11.751C10.7486 28 9.90106 27.2579 9.76858 26.2643L8.30191 15.2643Z" stroke="#2F80ED"/>
<path d="M16 4V9" stroke="#2F80ED"/>
<path d="M12 3.5C11.7239 3.5 11.5 3.72386 11.5 4C11.5 4.27614 11.7239 4.5 12 4.5V3.5ZM21.5 7C21.5 7.27614 21.7239 7.5 22 7.5C22.2761 7.5 22.5 7.27614 22.5 7H21.5ZM12 4.5H20V3.5H12V4.5ZM21.5 6V7H22.5V6H21.5ZM20 4.5C20.8284 4.5 21.5 5.17157 21.5 6H22.5C22.5 4.61929 21.3807 3.5 20 3.5V4.5Z" fill="#2F80ED"/>
<path d="M12 13V12C12 11.4477 12.4477 11 13 11H19C19.5523 11 20 11.4477 20 12V13" stroke="#2F80ED"/>
<path d="M14 11V10C14 9.44772 14.4477 9 15 9H17C17.5523 9 18 9.44772 18 10V11" stroke="#2F80ED"/>
<path d="M16 17V23" stroke="#2F80ED" stroke-linecap="round"/>
<path d="M19 20L13 20" stroke="#2F80ED" stroke-linecap="round"/>
</svg>
