<svg width="32" height="32" viewBox="0 0 32 32" fill="none" xmlns="http://www.w3.org/2000/svg">
<path d="M26 13C26 12.9933 26 12.9865 26 12.9797M26 12.9797C25.9951 10.8035 25.2018 8.70244 23.7666 7.06591C22.3269 5.42429 20.3395 4.36202 18.1747 4.07702C16.0099 3.79202 13.8154 4.30372 11.9999 5.5168C10.1844 6.72987 9 8 8 12.9797L7.2381 16.8047C7.11489 17.4232 7.58811 18 8.21884 18H9V20C9 21.1046 9.89543 22 11 22H11.9999V26C11.9999 26.5523 12.4476 27 12.9999 27H21C21.5523 27 22 26.5523 22 26V24.8284C22 23.0174 22.7194 21.2806 24 20V20C25.2806 18.7194 26 16.9826 26 15.1716V12.9797Z" stroke="#2F80ED"/>
<circle cx="12" cy="14" r="1" fill="#2F80ED"/>
<path d="M5 23.8922V11C5 10.4477 5.44772 10 6 10H15.4825C16.7698 10 17.7218 11.1984 17.4307 12.4523L15.073 22.6084C14.8798 23.4409 14.179 24.0586 13.3289 24.1458L6.10203 24.887C5.51249 24.9474 5 24.4848 5 23.8922Z" stroke="#2F80ED"/>
<path d="M15 10V4.5M13 5V10" stroke="#2F80ED" stroke-linecap="round"/>
<path d="M17 15L26 15M26 13L17.5 13" stroke="#2F80ED" stroke-linecap="round"/>
</svg>
