<svg width="864" height="450" viewBox="0 0 864 450" fill="none" xmlns="http://www.w3.org/2000/svg">
<g filter="url(#filter0_d)">
<rect x="16" y="16" width="800" height="418" rx="8" fill="white"/>
<rect x="15" y="15" width="802" height="420" rx="9" stroke="#EAF2FD" stroke-width="2"/>
</g>
<rect opacity="0.05" x="16" y="82" width="800" height="88" fill="#2F80ED"/>
<path d="M16 346H816V426C816 430.418 812.418 434 808 434H24C19.5817 434 16 430.418 16 426V346Z" fill="#304256" fill-opacity="0.01"/>
<path d="M120.551 50.5977H119.238L118.793 53H117.809L118.254 50.5977H116.9V49.6719H118.43L118.77 47.8379H117.346V46.9062H118.945L119.402 44.4688H120.381L119.924 46.9062H121.242L121.699 44.4688H122.678L122.221 46.9062H123.439V47.8379H122.045L121.705 49.6719H123V50.5977H121.529L121.084 53H120.105L120.551 50.5977ZM119.414 49.6719H120.727L121.066 47.8379H119.754L119.414 49.6719Z" fill="#6984A3"/>
<path d="M168.506 50.8027C168.506 50.4277 168.373 50.1387 168.107 49.9355C167.846 49.7324 167.371 49.5273 166.684 49.3203C165.996 49.1133 165.449 48.8828 165.043 48.6289C164.266 48.1406 163.877 47.5039 163.877 46.7188C163.877 46.0312 164.156 45.4648 164.715 45.0195C165.277 44.5742 166.006 44.3516 166.9 44.3516C167.494 44.3516 168.023 44.4609 168.488 44.6797C168.953 44.8984 169.318 45.2109 169.584 45.6172C169.85 46.0195 169.982 46.4668 169.982 46.959H168.506C168.506 46.5137 168.365 46.166 168.084 45.916C167.807 45.6621 167.408 45.5352 166.889 45.5352C166.404 45.5352 166.027 45.6387 165.758 45.8457C165.492 46.0527 165.359 46.3418 165.359 46.7129C165.359 47.0254 165.504 47.2871 165.793 47.498C166.082 47.7051 166.559 47.9082 167.223 48.1074C167.887 48.3027 168.42 48.5273 168.822 48.7812C169.225 49.0312 169.52 49.3203 169.707 49.6484C169.895 49.9727 169.988 50.3535 169.988 50.791C169.988 51.502 169.715 52.0684 169.168 52.4902C168.625 52.9082 167.887 53.1172 166.953 53.1172C166.336 53.1172 165.768 53.0039 165.248 52.7773C164.732 52.5469 164.33 52.2305 164.041 51.8281C163.756 51.4258 163.613 50.957 163.613 50.4219H165.096C165.096 50.9062 165.256 51.2812 165.576 51.5469C165.896 51.8125 166.355 51.9453 166.953 51.9453C167.469 51.9453 167.855 51.8418 168.113 51.6348C168.375 51.4238 168.506 51.1465 168.506 50.8027ZM178.799 50.2227C178.713 51.1328 178.377 51.8438 177.791 52.3555C177.205 52.8633 176.426 53.1172 175.453 53.1172C174.773 53.1172 174.174 52.957 173.654 52.6367C173.139 52.3125 172.74 51.8535 172.459 51.2598C172.178 50.666 172.031 49.9766 172.02 49.1914V48.3945C172.02 47.5898 172.162 46.8809 172.447 46.2676C172.732 45.6543 173.141 45.1816 173.672 44.8496C174.207 44.5176 174.824 44.3516 175.523 44.3516C176.465 44.3516 177.223 44.6074 177.797 45.1191C178.371 45.6309 178.705 46.3535 178.799 47.2871H177.322C177.252 46.6738 177.072 46.2324 176.783 45.9629C176.498 45.6895 176.078 45.5527 175.523 45.5527C174.879 45.5527 174.383 45.7891 174.035 46.2617C173.691 46.7305 173.516 47.4199 173.508 48.3301V49.0859C173.508 50.0078 173.672 50.7109 174 51.1953C174.332 51.6797 174.816 51.9219 175.453 51.9219C176.035 51.9219 176.473 51.791 176.766 51.5293C177.059 51.2676 177.244 50.832 177.322 50.2227H178.799ZM187.938 48.957C187.938 49.793 187.793 50.5273 187.504 51.1602C187.215 51.7891 186.801 52.2734 186.262 52.6133C185.727 52.9492 185.109 53.1172 184.41 53.1172C183.719 53.1172 183.102 52.9492 182.559 52.6133C182.02 52.2734 181.602 51.791 181.305 51.166C181.012 50.541 180.863 49.8203 180.859 49.0039V48.5234C180.859 47.6914 181.006 46.957 181.299 46.3203C181.596 45.6836 182.012 45.1973 182.547 44.8613C183.086 44.5215 183.703 44.3516 184.398 44.3516C185.094 44.3516 185.709 44.5195 186.244 44.8555C186.783 45.1875 187.199 45.668 187.492 46.2969C187.785 46.9219 187.934 47.6504 187.938 48.4824V48.957ZM186.455 48.5117C186.455 47.5664 186.275 46.8418 185.916 46.3379C185.561 45.834 185.055 45.582 184.398 45.582C183.758 45.582 183.256 45.834 182.893 46.3379C182.533 46.8379 182.35 47.5469 182.342 48.4648V48.957C182.342 49.8945 182.523 50.6191 182.887 51.1309C183.254 51.6426 183.762 51.8984 184.41 51.8984C185.066 51.8984 185.57 51.6484 185.922 51.1484C186.277 50.6484 186.455 49.918 186.455 48.957V48.5117ZM193.549 49.7129H191.896V53H190.414V44.4688H193.414C194.398 44.4688 195.158 44.6895 195.693 45.1309C196.229 45.5723 196.496 46.2109 196.496 47.0469C196.496 47.6172 196.357 48.0957 196.08 48.4824C195.807 48.8652 195.424 49.1602 194.932 49.3672L196.848 52.9238V53H195.26L193.549 49.7129ZM191.896 48.5234H193.42C193.92 48.5234 194.311 48.3984 194.592 48.1484C194.873 47.8945 195.014 47.5488 195.014 47.1113C195.014 46.6543 194.883 46.3008 194.621 46.0508C194.363 45.8008 193.977 45.6719 193.461 45.6641H191.896V48.5234ZM203.889 49.1914H200.385V51.8164H204.48V53H198.902V44.4688H204.439V45.6641H200.385V48.0195H203.889V49.1914Z" fill="#6984A3"/>
<path d="M247.635 53H246.152L242.35 46.9473V53H240.867V44.4688H242.35L246.164 50.5449V44.4688H247.635V53ZM255.268 51.0137H251.963L251.271 53H249.73L252.953 44.4688H254.283L257.512 53H255.965L255.268 51.0137ZM252.379 49.8184H254.852L253.615 46.2793L252.379 49.8184ZM261.406 44.4688L263.867 51.0078L266.322 44.4688H268.238V53H266.762V50.1875L266.908 46.4258L264.389 53H263.328L260.814 46.4316L260.961 50.1875V53H259.484V44.4688H261.406ZM275.982 49.1914H272.479V51.8164H276.574V53H270.996V44.4688H276.533V45.6641H272.479V48.0195H275.982V49.1914Z" fill="#6984A3"/>
<path d="M493.631 51.8164H497.504V53H492.148V44.4688H493.631V51.8164ZM504.627 49.1914H501.123V51.8164H505.219V53H499.641V44.4688H505.178V45.6641H501.123V48.0195H504.627V49.1914ZM512.201 51.0137H508.896L508.205 53H506.664L509.887 44.4688H511.217L514.445 53H512.898L512.201 51.0137ZM509.312 49.8184H511.785L510.549 46.2793L509.312 49.8184ZM516.418 53V44.4688H518.938C519.691 44.4688 520.359 44.6367 520.941 44.9727C521.527 45.3086 521.98 45.7852 522.301 46.4023C522.621 47.0195 522.781 47.7266 522.781 48.5234V48.9512C522.781 49.7598 522.619 50.4707 522.295 51.084C521.975 51.6973 521.516 52.1699 520.918 52.502C520.324 52.834 519.643 53 518.873 53H516.418ZM517.9 45.6641V51.8164H518.867C519.645 51.8164 520.24 51.5742 520.654 51.0898C521.072 50.6016 521.285 49.9023 521.293 48.9922V48.5176C521.293 47.5918 521.092 46.8848 520.689 46.3965C520.287 45.9082 519.703 45.6641 518.938 45.6641H517.9ZM535.059 45.6641H532.398V53H530.928V45.6641H528.291V44.4688H535.059V45.6641ZM538.748 53H537.271V44.4688H538.748V53ZM543.492 44.4688L545.953 51.0078L548.408 44.4688H550.324V53H548.848V50.1875L548.994 46.4258L546.475 53H545.414L542.9 46.4316L543.047 50.1875V53H541.57V44.4688H543.492ZM558.068 49.1914H554.564V51.8164H558.66V53H553.082V44.4688H558.619V45.6641H554.564V48.0195H558.068V49.1914Z" fill="#6984A3"/>
<path d="M607.131 48.957C607.131 49.7656 607.002 50.4668 606.744 51.0605C606.49 51.6504 606.133 52.1191 605.672 52.4668L607.137 53.6094L606.176 54.4766L604.359 53.041C604.121 53.0918 603.865 53.1172 603.592 53.1172C602.904 53.1172 602.289 52.9492 601.746 52.6133C601.207 52.2734 600.789 51.791 600.492 51.166C600.199 50.541 600.051 49.8203 600.047 49.0039V48.5234C600.047 47.6914 600.193 46.957 600.486 46.3203C600.783 45.6836 601.199 45.1973 601.734 44.8613C602.273 44.5215 602.889 44.3516 603.58 44.3516C604.283 44.3516 604.902 44.5195 605.438 44.8555C605.977 45.1875 606.393 45.668 606.686 46.2969C606.979 46.9219 607.127 47.6504 607.131 48.4824V48.957ZM605.643 48.5117C605.643 47.5508 605.463 46.8223 605.104 46.3262C604.744 45.8301 604.236 45.582 603.58 45.582C602.943 45.582 602.443 45.834 602.08 46.3379C601.721 46.8379 601.537 47.5449 601.529 48.459V48.957C601.529 49.8789 601.709 50.5996 602.068 51.1191C602.432 51.6387 602.939 51.8984 603.592 51.8984C604.252 51.8984 604.758 51.6484 605.109 51.1484C605.465 50.6484 605.643 49.918 605.643 48.957V48.5117ZM615.877 44.4688V50.1699C615.877 51.0762 615.586 51.7949 615.004 52.3262C614.426 52.8535 613.654 53.1172 612.689 53.1172C611.713 53.1172 610.938 52.8574 610.363 52.3379C609.789 51.8145 609.502 51.0898 609.502 50.1641V44.4688H610.979V50.1758C610.979 50.7461 611.123 51.1816 611.412 51.4824C611.701 51.7832 612.127 51.9336 612.689 51.9336C613.83 51.9336 614.4 51.332 614.4 50.1289V44.4688H615.877ZM623.111 51.0137H619.807L619.115 53H617.574L620.797 44.4688H622.127L625.355 53H623.809L623.111 51.0137ZM620.223 49.8184H622.695L621.459 46.2793L620.223 49.8184ZM634.096 53H632.613L628.811 46.9473V53H627.328V44.4688H628.811L632.625 50.5449V44.4688H634.096V53ZM642.836 45.6641H640.176V53H638.705V45.6641H636.068V44.4688H642.836V45.6641ZM646.525 53H645.049V44.4688H646.525V53ZM655.336 45.6641H652.676V53H651.205V45.6641H648.568V44.4688H655.336V45.6641ZM660.338 48.5117L662.301 44.4688H663.941L661.082 49.8594V53H659.594V49.8594L656.729 44.4688H658.375L660.338 48.5117Z" fill="#6984A3"/>
<path d="M711.447 44.4688V50.1699C711.447 51.0762 711.156 51.7949 710.574 52.3262C709.996 52.8535 709.225 53.1172 708.26 53.1172C707.283 53.1172 706.508 52.8574 705.934 52.3379C705.359 51.8145 705.072 51.0898 705.072 50.1641V44.4688H706.549V50.1758C706.549 50.7461 706.693 51.1816 706.982 51.4824C707.271 51.7832 707.697 51.9336 708.26 51.9336C709.4 51.9336 709.971 51.332 709.971 50.1289V44.4688H711.447ZM720.803 53H719.32L715.518 46.9473V53H714.035V44.4688H715.518L719.332 50.5449V44.4688H720.803V53ZM725.119 53H723.643V44.4688H725.119V53ZM733.93 45.6641H731.27V53H729.799V45.6641H727.162V44.4688H733.93V45.6641ZM741.174 49.8301V53H739.691V44.4688H742.955C743.908 44.4688 744.664 44.7168 745.223 45.2129C745.785 45.709 746.066 46.3652 746.066 47.1816C746.066 48.0176 745.791 48.668 745.24 49.1328C744.693 49.5977 743.926 49.8301 742.938 49.8301H741.174ZM741.174 48.6406H742.955C743.482 48.6406 743.885 48.5176 744.162 48.2715C744.439 48.0215 744.578 47.6621 744.578 47.1934C744.578 46.7324 744.438 46.3652 744.156 46.0918C743.875 45.8145 743.488 45.6719 742.996 45.6641H741.174V48.6406ZM751.502 49.7129H749.85V53H748.367V44.4688H751.367C752.352 44.4688 753.111 44.6895 753.646 45.1309C754.182 45.5723 754.449 46.2109 754.449 47.0469C754.449 47.6172 754.311 48.0957 754.033 48.4824C753.76 48.8652 753.377 49.1602 752.885 49.3672L754.801 52.9238V53H753.213L751.502 49.7129ZM749.85 48.5234H751.373C751.873 48.5234 752.264 48.3984 752.545 48.1484C752.826 47.8945 752.967 47.5488 752.967 47.1113C752.967 46.6543 752.836 46.3008 752.574 46.0508C752.316 45.8008 751.93 45.6719 751.414 45.6641H749.85V48.5234ZM758.42 53H756.943V44.4688H758.42V53ZM767.752 50.2227C767.666 51.1328 767.33 51.8438 766.744 52.3555C766.158 52.8633 765.379 53.1172 764.406 53.1172C763.727 53.1172 763.127 52.957 762.607 52.6367C762.092 52.3125 761.693 51.8535 761.412 51.2598C761.131 50.666 760.984 49.9766 760.973 49.1914V48.3945C760.973 47.5898 761.115 46.8809 761.4 46.2676C761.686 45.6543 762.094 45.1816 762.625 44.8496C763.16 44.5176 763.777 44.3516 764.477 44.3516C765.418 44.3516 766.176 44.6074 766.75 45.1191C767.324 45.6309 767.658 46.3535 767.752 47.2871H766.275C766.205 46.6738 766.025 46.2324 765.736 45.9629C765.451 45.6895 765.031 45.5527 764.477 45.5527C763.832 45.5527 763.336 45.7891 762.988 46.2617C762.645 46.7305 762.469 47.4199 762.461 48.3301V49.0859C762.461 50.0078 762.625 50.7109 762.953 51.1953C763.285 51.6797 763.77 51.9219 764.406 51.9219C764.988 51.9219 765.426 51.791 765.719 51.5293C766.012 51.2676 766.197 50.832 766.275 50.2227H767.752ZM775.068 49.1914H771.564V51.8164H775.66V53H770.082V44.4688H775.619V45.6641H771.564V48.0195H775.068V49.1914Z" fill="#6984A3"/>
<line x1="16" y1="81" x2="816" y2="81.0001" stroke="#EAF2FD" stroke-width="2"/>
<rect x="240" y="106" width="40" height="40" rx="4" fill="#2F80ED"/>
<path d="M300.672 125.93C299.385 125.56 298.448 125.107 297.859 124.57C297.276 124.029 296.984 123.362 296.984 122.57C296.984 121.674 297.341 120.935 298.055 120.352C298.773 119.763 299.706 119.469 300.852 119.469C301.633 119.469 302.328 119.62 302.938 119.922C303.552 120.224 304.026 120.641 304.359 121.172C304.698 121.703 304.867 122.284 304.867 122.914H303.359C303.359 122.227 303.141 121.688 302.703 121.297C302.266 120.901 301.648 120.703 300.852 120.703C300.112 120.703 299.534 120.867 299.117 121.195C298.706 121.518 298.5 121.969 298.5 122.547C298.5 123.01 298.695 123.404 299.086 123.727C299.482 124.044 300.151 124.336 301.094 124.602C302.042 124.867 302.781 125.161 303.312 125.484C303.849 125.802 304.245 126.174 304.5 126.602C304.76 127.029 304.891 127.531 304.891 128.109C304.891 129.031 304.531 129.771 303.812 130.328C303.094 130.88 302.133 131.156 300.93 131.156C300.148 131.156 299.419 131.008 298.742 130.711C298.065 130.409 297.542 129.997 297.172 129.477C296.807 128.956 296.625 128.365 296.625 127.703H298.133C298.133 128.391 298.385 128.935 298.891 129.336C299.401 129.732 300.081 129.93 300.93 129.93C301.721 129.93 302.328 129.768 302.75 129.445C303.172 129.122 303.383 128.682 303.383 128.125C303.383 127.568 303.188 127.138 302.797 126.836C302.406 126.529 301.698 126.227 300.672 125.93ZM311.812 130.164C311.25 130.826 310.424 131.156 309.336 131.156C308.435 131.156 307.747 130.896 307.273 130.375C306.805 129.849 306.568 129.073 306.562 128.047V122.547H308.008V128.008C308.008 129.289 308.529 129.93 309.57 129.93C310.674 129.93 311.409 129.518 311.773 128.695V122.547H313.219V131H311.844L311.812 130.164ZM322.562 126.867C322.562 128.154 322.268 129.19 321.68 129.977C321.091 130.763 320.294 131.156 319.289 131.156C318.263 131.156 317.456 130.831 316.867 130.18V134.25H315.422V122.547H316.742L316.812 123.484C317.401 122.755 318.219 122.391 319.266 122.391C320.281 122.391 321.083 122.773 321.672 123.539C322.266 124.305 322.562 125.37 322.562 126.734V126.867ZM321.117 126.703C321.117 125.75 320.914 124.997 320.508 124.445C320.102 123.893 319.544 123.617 318.836 123.617C317.961 123.617 317.305 124.005 316.867 124.781V128.82C317.299 129.591 317.961 129.977 318.852 129.977C319.544 129.977 320.094 129.703 320.5 129.156C320.911 128.604 321.117 127.786 321.117 126.703ZM331.547 126.867C331.547 128.154 331.253 129.19 330.664 129.977C330.076 130.763 329.279 131.156 328.273 131.156C327.247 131.156 326.44 130.831 325.852 130.18V134.25H324.406V122.547H325.727L325.797 123.484C326.385 122.755 327.203 122.391 328.25 122.391C329.266 122.391 330.068 122.773 330.656 123.539C331.25 124.305 331.547 125.37 331.547 126.734V126.867ZM330.102 126.703C330.102 125.75 329.898 124.997 329.492 124.445C329.086 123.893 328.529 123.617 327.82 123.617C326.945 123.617 326.289 124.005 325.852 124.781V128.82C326.284 129.591 326.945 129.977 327.836 129.977C328.529 129.977 329.078 129.703 329.484 129.156C329.896 128.604 330.102 127.786 330.102 126.703ZM334.961 131H333.516V119H334.961V131ZM338.852 131H337.406V122.547H338.852V131ZM337.289 120.305C337.289 120.07 337.359 119.872 337.5 119.711C337.646 119.549 337.859 119.469 338.141 119.469C338.422 119.469 338.635 119.549 338.781 119.711C338.927 119.872 339 120.07 339 120.305C339 120.539 338.927 120.734 338.781 120.891C338.635 121.047 338.422 121.125 338.141 121.125C337.859 121.125 337.646 121.047 337.5 120.891C337.359 120.734 337.289 120.539 337.289 120.305ZM344.68 131.156C343.534 131.156 342.602 130.781 341.883 130.031C341.164 129.276 340.805 128.268 340.805 127.008V126.742C340.805 125.904 340.964 125.156 341.281 124.5C341.604 123.839 342.052 123.323 342.625 122.953C343.203 122.578 343.828 122.391 344.5 122.391C345.599 122.391 346.453 122.753 347.062 123.477C347.672 124.201 347.977 125.237 347.977 126.586V127.188H342.25C342.271 128.021 342.513 128.695 342.977 129.211C343.445 129.721 344.039 129.977 344.758 129.977C345.268 129.977 345.701 129.872 346.055 129.664C346.409 129.456 346.719 129.18 346.984 128.836L347.867 129.523C347.159 130.612 346.096 131.156 344.68 131.156ZM344.5 123.578C343.917 123.578 343.427 123.792 343.031 124.219C342.635 124.641 342.391 125.234 342.297 126H346.531V125.891C346.49 125.156 346.292 124.589 345.938 124.188C345.583 123.781 345.104 123.578 344.5 123.578ZM353.742 123.844C353.523 123.807 353.286 123.789 353.031 123.789C352.083 123.789 351.44 124.193 351.102 125V131H349.656V122.547H351.062L351.086 123.523C351.56 122.768 352.232 122.391 353.102 122.391C353.383 122.391 353.596 122.427 353.742 122.5V123.844ZM365.555 128.031H360.789L359.719 131H358.172L362.516 119.625H363.828L368.18 131H366.641L365.555 128.031ZM361.242 126.797H365.109L363.172 121.477L361.242 126.797Z" fill="#2F80ED"/>
<path d="M262.297 130.07H257.16L256.184 133H253.068L258.361 118.781H261.076L266.398 133H263.283L262.297 130.07ZM257.951 127.697H261.506L259.719 122.375L257.951 127.697Z" fill="white"/>
<path d="M519.656 127.18H521.234V128.359H519.656V131H518.203V128.359H513.023V127.508L518.117 119.625H519.656V127.18ZM514.664 127.18H518.203V121.602L518.031 121.914L514.664 127.18ZM526.305 126.703C526.305 125.406 526.612 124.365 527.227 123.578C527.841 122.786 528.646 122.391 529.641 122.391C530.63 122.391 531.414 122.729 531.992 123.406V119H533.438V131H532.109L532.039 130.094C531.461 130.802 530.656 131.156 529.625 131.156C528.646 131.156 527.846 130.755 527.227 129.953C526.612 129.151 526.305 128.104 526.305 126.812V126.703ZM527.75 126.867C527.75 127.826 527.948 128.576 528.344 129.117C528.74 129.659 529.286 129.93 529.984 129.93C530.901 129.93 531.57 129.518 531.992 128.695V124.812C531.56 124.016 530.896 123.617 530 123.617C529.292 123.617 528.74 123.891 528.344 124.438C527.948 124.984 527.75 125.794 527.75 126.867ZM540.906 131C540.823 130.833 540.755 130.536 540.703 130.109C540.031 130.807 539.229 131.156 538.297 131.156C537.464 131.156 536.779 130.922 536.242 130.453C535.711 129.979 535.445 129.38 535.445 128.656C535.445 127.776 535.779 127.094 536.445 126.609C537.117 126.12 538.06 125.875 539.273 125.875H540.68V125.211C540.68 124.706 540.529 124.305 540.227 124.008C539.924 123.706 539.479 123.555 538.891 123.555C538.375 123.555 537.943 123.685 537.594 123.945C537.245 124.206 537.07 124.521 537.07 124.891H535.617C535.617 124.469 535.766 124.062 536.062 123.672C536.365 123.276 536.771 122.964 537.281 122.734C537.797 122.505 538.362 122.391 538.977 122.391C539.951 122.391 540.714 122.635 541.266 123.125C541.818 123.609 542.104 124.279 542.125 125.133V129.023C542.125 129.799 542.224 130.417 542.422 130.875V131H540.906ZM538.508 129.898C538.961 129.898 539.391 129.781 539.797 129.547C540.203 129.312 540.497 129.008 540.68 128.633V126.898H539.547C537.776 126.898 536.891 127.417 536.891 128.453C536.891 128.906 537.042 129.26 537.344 129.516C537.646 129.771 538.034 129.898 538.508 129.898ZM547.031 128.883L549 122.547H550.547L547.148 132.305C546.622 133.711 545.786 134.414 544.641 134.414L544.367 134.391L543.828 134.289V133.117L544.219 133.148C544.708 133.148 545.089 133.049 545.359 132.852C545.635 132.654 545.862 132.292 546.039 131.766L546.359 130.906L543.344 122.547H544.922L547.031 128.883ZM556.766 128.758C556.766 128.367 556.617 128.065 556.32 127.852C556.029 127.633 555.516 127.445 554.781 127.289C554.052 127.133 553.471 126.945 553.039 126.727C552.612 126.508 552.294 126.247 552.086 125.945C551.883 125.643 551.781 125.284 551.781 124.867C551.781 124.174 552.073 123.589 552.656 123.109C553.245 122.63 553.995 122.391 554.906 122.391C555.865 122.391 556.641 122.638 557.234 123.133C557.833 123.628 558.133 124.26 558.133 125.031H556.68C556.68 124.635 556.51 124.294 556.172 124.008C555.839 123.721 555.417 123.578 554.906 123.578C554.38 123.578 553.969 123.693 553.672 123.922C553.375 124.151 553.227 124.451 553.227 124.82C553.227 125.169 553.365 125.432 553.641 125.609C553.917 125.786 554.414 125.956 555.133 126.117C555.857 126.279 556.443 126.471 556.891 126.695C557.339 126.919 557.669 127.19 557.883 127.508C558.102 127.82 558.211 128.203 558.211 128.656C558.211 129.411 557.909 130.018 557.305 130.477C556.701 130.93 555.917 131.156 554.953 131.156C554.276 131.156 553.677 131.036 553.156 130.797C552.635 130.557 552.227 130.224 551.93 129.797C551.638 129.365 551.492 128.898 551.492 128.398H552.938C552.964 128.883 553.156 129.268 553.516 129.555C553.88 129.836 554.359 129.977 554.953 129.977C555.5 129.977 555.938 129.867 556.266 129.648C556.599 129.424 556.766 129.128 556.766 128.758Z" fill="#2F80ED"/>
<path d="M514.219 213.297L514.797 207.625H520.625V208.961H516.023L515.68 212.062C516.237 211.734 516.87 211.57 517.578 211.57C518.615 211.57 519.438 211.914 520.047 212.602C520.656 213.284 520.961 214.208 520.961 215.375C520.961 216.547 520.643 217.471 520.008 218.148C519.378 218.82 518.495 219.156 517.359 219.156C516.354 219.156 515.534 218.878 514.898 218.32C514.263 217.763 513.901 216.992 513.812 216.008H515.18C515.268 216.659 515.5 217.151 515.875 217.484C516.25 217.812 516.745 217.977 517.359 217.977C518.031 217.977 518.557 217.747 518.938 217.289C519.323 216.831 519.516 216.198 519.516 215.391C519.516 214.63 519.307 214.021 518.891 213.562C518.479 213.099 517.93 212.867 517.242 212.867C516.612 212.867 516.117 213.005 515.758 213.281L515.375 213.594L514.219 213.297ZM526.305 214.703C526.305 213.406 526.612 212.365 527.227 211.578C527.841 210.786 528.646 210.391 529.641 210.391C530.63 210.391 531.414 210.729 531.992 211.406V207H533.438V219H532.109L532.039 218.094C531.461 218.802 530.656 219.156 529.625 219.156C528.646 219.156 527.846 218.755 527.227 217.953C526.612 217.151 526.305 216.104 526.305 214.812V214.703ZM527.75 214.867C527.75 215.826 527.948 216.576 528.344 217.117C528.74 217.659 529.286 217.93 529.984 217.93C530.901 217.93 531.57 217.518 531.992 216.695V212.812C531.56 212.016 530.896 211.617 530 211.617C529.292 211.617 528.74 211.891 528.344 212.438C527.948 212.984 527.75 213.794 527.75 214.867ZM540.906 219C540.823 218.833 540.755 218.536 540.703 218.109C540.031 218.807 539.229 219.156 538.297 219.156C537.464 219.156 536.779 218.922 536.242 218.453C535.711 217.979 535.445 217.38 535.445 216.656C535.445 215.776 535.779 215.094 536.445 214.609C537.117 214.12 538.06 213.875 539.273 213.875H540.68V213.211C540.68 212.706 540.529 212.305 540.227 212.008C539.924 211.706 539.479 211.555 538.891 211.555C538.375 211.555 537.943 211.685 537.594 211.945C537.245 212.206 537.07 212.521 537.07 212.891H535.617C535.617 212.469 535.766 212.062 536.062 211.672C536.365 211.276 536.771 210.964 537.281 210.734C537.797 210.505 538.362 210.391 538.977 210.391C539.951 210.391 540.714 210.635 541.266 211.125C541.818 211.609 542.104 212.279 542.125 213.133V217.023C542.125 217.799 542.224 218.417 542.422 218.875V219H540.906ZM538.508 217.898C538.961 217.898 539.391 217.781 539.797 217.547C540.203 217.312 540.497 217.008 540.68 216.633V214.898H539.547C537.776 214.898 536.891 215.417 536.891 216.453C536.891 216.906 537.042 217.26 537.344 217.516C537.646 217.771 538.034 217.898 538.508 217.898ZM547.031 216.883L549 210.547H550.547L547.148 220.305C546.622 221.711 545.786 222.414 544.641 222.414L544.367 222.391L543.828 222.289V221.117L544.219 221.148C544.708 221.148 545.089 221.049 545.359 220.852C545.635 220.654 545.862 220.292 546.039 219.766L546.359 218.906L543.344 210.547H544.922L547.031 216.883ZM556.766 216.758C556.766 216.367 556.617 216.065 556.32 215.852C556.029 215.633 555.516 215.445 554.781 215.289C554.052 215.133 553.471 214.945 553.039 214.727C552.612 214.508 552.294 214.247 552.086 213.945C551.883 213.643 551.781 213.284 551.781 212.867C551.781 212.174 552.073 211.589 552.656 211.109C553.245 210.63 553.995 210.391 554.906 210.391C555.865 210.391 556.641 210.638 557.234 211.133C557.833 211.628 558.133 212.26 558.133 213.031H556.68C556.68 212.635 556.51 212.294 556.172 212.008C555.839 211.721 555.417 211.578 554.906 211.578C554.38 211.578 553.969 211.693 553.672 211.922C553.375 212.151 553.227 212.451 553.227 212.82C553.227 213.169 553.365 213.432 553.641 213.609C553.917 213.786 554.414 213.956 555.133 214.117C555.857 214.279 556.443 214.471 556.891 214.695C557.339 214.919 557.669 215.19 557.883 215.508C558.102 215.82 558.211 216.203 558.211 216.656C558.211 217.411 557.909 218.018 557.305 218.477C556.701 218.93 555.917 219.156 554.953 219.156C554.276 219.156 553.677 219.036 553.156 218.797C552.635 218.557 552.227 218.224 551.93 217.797C551.638 217.365 551.492 216.898 551.492 216.398H552.938C552.964 216.883 553.156 217.268 553.516 217.555C553.88 217.836 554.359 217.977 554.953 217.977C555.5 217.977 555.938 217.867 556.266 217.648C556.599 217.424 556.766 217.128 556.766 216.758Z" fill="#304256"/>
<path d="M520.898 296.438L516.188 307H514.672L519.367 296.812H513.211V295.625H520.898V296.438ZM526.305 302.703C526.305 301.406 526.612 300.365 527.227 299.578C527.841 298.786 528.646 298.391 529.641 298.391C530.63 298.391 531.414 298.729 531.992 299.406V295H533.438V307H532.109L532.039 306.094C531.461 306.802 530.656 307.156 529.625 307.156C528.646 307.156 527.846 306.755 527.227 305.953C526.612 305.151 526.305 304.104 526.305 302.812V302.703ZM527.75 302.867C527.75 303.826 527.948 304.576 528.344 305.117C528.74 305.659 529.286 305.93 529.984 305.93C530.901 305.93 531.57 305.518 531.992 304.695V300.812C531.56 300.016 530.896 299.617 530 299.617C529.292 299.617 528.74 299.891 528.344 300.438C527.948 300.984 527.75 301.794 527.75 302.867ZM540.906 307C540.823 306.833 540.755 306.536 540.703 306.109C540.031 306.807 539.229 307.156 538.297 307.156C537.464 307.156 536.779 306.922 536.242 306.453C535.711 305.979 535.445 305.38 535.445 304.656C535.445 303.776 535.779 303.094 536.445 302.609C537.117 302.12 538.06 301.875 539.273 301.875H540.68V301.211C540.68 300.706 540.529 300.305 540.227 300.008C539.924 299.706 539.479 299.555 538.891 299.555C538.375 299.555 537.943 299.685 537.594 299.945C537.245 300.206 537.07 300.521 537.07 300.891H535.617C535.617 300.469 535.766 300.062 536.062 299.672C536.365 299.276 536.771 298.964 537.281 298.734C537.797 298.505 538.362 298.391 538.977 298.391C539.951 298.391 540.714 298.635 541.266 299.125C541.818 299.609 542.104 300.279 542.125 301.133V305.023C542.125 305.799 542.224 306.417 542.422 306.875V307H540.906ZM538.508 305.898C538.961 305.898 539.391 305.781 539.797 305.547C540.203 305.312 540.497 305.008 540.68 304.633V302.898H539.547C537.776 302.898 536.891 303.417 536.891 304.453C536.891 304.906 537.042 305.26 537.344 305.516C537.646 305.771 538.034 305.898 538.508 305.898ZM547.031 304.883L549 298.547H550.547L547.148 308.305C546.622 309.711 545.786 310.414 544.641 310.414L544.367 310.391L543.828 310.289V309.117L544.219 309.148C544.708 309.148 545.089 309.049 545.359 308.852C545.635 308.654 545.862 308.292 546.039 307.766L546.359 306.906L543.344 298.547H544.922L547.031 304.883ZM556.766 304.758C556.766 304.367 556.617 304.065 556.32 303.852C556.029 303.633 555.516 303.445 554.781 303.289C554.052 303.133 553.471 302.945 553.039 302.727C552.612 302.508 552.294 302.247 552.086 301.945C551.883 301.643 551.781 301.284 551.781 300.867C551.781 300.174 552.073 299.589 552.656 299.109C553.245 298.63 553.995 298.391 554.906 298.391C555.865 298.391 556.641 298.638 557.234 299.133C557.833 299.628 558.133 300.26 558.133 301.031H556.68C556.68 300.635 556.51 300.294 556.172 300.008C555.839 299.721 555.417 299.578 554.906 299.578C554.38 299.578 553.969 299.693 553.672 299.922C553.375 300.151 553.227 300.451 553.227 300.82C553.227 301.169 553.365 301.432 553.641 301.609C553.917 301.786 554.414 301.956 555.133 302.117C555.857 302.279 556.443 302.471 556.891 302.695C557.339 302.919 557.669 303.19 557.883 303.508C558.102 303.82 558.211 304.203 558.211 304.656C558.211 305.411 557.909 306.018 557.305 306.477C556.701 306.93 555.917 307.156 554.953 307.156C554.276 307.156 553.677 307.036 553.156 306.797C552.635 306.557 552.227 306.224 551.93 305.797C551.638 305.365 551.492 304.898 551.492 304.398H552.938C552.964 304.883 553.156 305.268 553.516 305.555C553.88 305.836 554.359 305.977 554.953 305.977C555.5 305.977 555.938 305.867 556.266 305.648C556.599 305.424 556.766 305.128 556.766 304.758Z" fill="#304256"/>
<path d="M621.633 131H620.18V121.367L617.266 122.438V121.125L621.406 119.57H621.633V131ZM633 126.148C633 127.841 632.711 129.099 632.133 129.922C631.555 130.745 630.651 131.156 629.422 131.156C628.208 131.156 627.31 130.755 626.727 129.953C626.143 129.146 625.841 127.943 625.82 126.344V124.414C625.82 122.742 626.109 121.5 626.688 120.688C627.266 119.875 628.172 119.469 629.406 119.469C630.63 119.469 631.531 119.862 632.109 120.648C632.688 121.43 632.984 122.638 633 124.273V126.148ZM631.555 124.172C631.555 122.948 631.383 122.057 631.039 121.5C630.695 120.938 630.151 120.656 629.406 120.656C628.667 120.656 628.128 120.935 627.789 121.492C627.451 122.049 627.276 122.906 627.266 124.062V126.375C627.266 127.604 627.443 128.513 627.797 129.102C628.156 129.685 628.698 129.977 629.422 129.977C630.135 129.977 630.664 129.701 631.008 129.148C631.357 128.596 631.539 127.727 631.555 126.539V124.172ZM634.953 133.266L634.133 132.703C634.622 132.021 634.878 131.318 634.898 130.594V129.289H636.312V130.422C636.312 130.948 636.182 131.474 635.922 132C635.667 132.526 635.344 132.948 634.953 133.266ZM645.125 126.148C645.125 127.841 644.836 129.099 644.258 129.922C643.68 130.745 642.776 131.156 641.547 131.156C640.333 131.156 639.435 130.755 638.852 129.953C638.268 129.146 637.966 127.943 637.945 126.344V124.414C637.945 122.742 638.234 121.5 638.812 120.688C639.391 119.875 640.297 119.469 641.531 119.469C642.755 119.469 643.656 119.862 644.234 120.648C644.812 121.43 645.109 122.638 645.125 124.273V126.148ZM643.68 124.172C643.68 122.948 643.508 122.057 643.164 121.5C642.82 120.938 642.276 120.656 641.531 120.656C640.792 120.656 640.253 120.935 639.914 121.492C639.576 122.049 639.401 122.906 639.391 124.062V126.375C639.391 127.604 639.568 128.513 639.922 129.102C640.281 129.685 640.823 129.977 641.547 129.977C642.26 129.977 642.789 129.701 643.133 129.148C643.482 128.596 643.664 127.727 643.68 126.539V124.172ZM654.109 126.148C654.109 127.841 653.82 129.099 653.242 129.922C652.664 130.745 651.76 131.156 650.531 131.156C649.318 131.156 648.419 130.755 647.836 129.953C647.253 129.146 646.951 127.943 646.93 126.344V124.414C646.93 122.742 647.219 121.5 647.797 120.688C648.375 119.875 649.281 119.469 650.516 119.469C651.74 119.469 652.641 119.862 653.219 120.648C653.797 121.43 654.094 122.638 654.109 124.273V126.148ZM652.664 124.172C652.664 122.948 652.492 122.057 652.148 121.5C651.805 120.938 651.26 120.656 650.516 120.656C649.776 120.656 649.237 120.935 648.898 121.492C648.56 122.049 648.385 122.906 648.375 124.062V126.375C648.375 127.604 648.552 128.513 648.906 129.102C649.266 129.685 649.807 129.977 650.531 129.977C651.245 129.977 651.773 129.701 652.117 129.148C652.466 128.596 652.648 127.727 652.664 126.539V124.172ZM663.094 126.148C663.094 127.841 662.805 129.099 662.227 129.922C661.648 130.745 660.745 131.156 659.516 131.156C658.302 131.156 657.404 130.755 656.82 129.953C656.237 129.146 655.935 127.943 655.914 126.344V124.414C655.914 122.742 656.203 121.5 656.781 120.688C657.359 119.875 658.266 119.469 659.5 119.469C660.724 119.469 661.625 119.862 662.203 120.648C662.781 121.43 663.078 122.638 663.094 124.273V126.148ZM661.648 124.172C661.648 122.948 661.477 122.057 661.133 121.5C660.789 120.938 660.245 120.656 659.5 120.656C658.76 120.656 658.221 120.935 657.883 121.492C657.544 122.049 657.37 122.906 657.359 124.062V126.375C657.359 127.604 657.536 128.513 657.891 129.102C658.25 129.685 658.792 129.977 659.516 129.977C660.229 129.977 660.758 129.701 661.102 129.148C661.451 128.596 661.633 127.727 661.648 126.539V124.172Z" fill="#2F80ED"/>
<path d="M742.531 128.07C742.531 127.591 742.362 127.188 742.023 126.859C741.69 126.531 741.125 126.234 740.328 125.969C739.219 125.63 738.409 125.19 737.898 124.648C737.393 124.102 737.141 123.409 737.141 122.57C737.141 121.716 737.388 121.016 737.883 120.469C738.383 119.922 739.068 119.596 739.938 119.492V117.781H741.102V119.5C741.977 119.62 742.656 119.987 743.141 120.602C743.63 121.216 743.875 122.057 743.875 123.125H742.438C742.438 122.391 742.263 121.807 741.914 121.375C741.565 120.943 741.094 120.727 740.5 120.727C739.88 120.727 739.406 120.888 739.078 121.211C738.75 121.529 738.586 121.974 738.586 122.547C738.586 123.078 738.758 123.503 739.102 123.82C739.451 124.133 740.021 124.419 740.812 124.68C741.609 124.935 742.229 125.219 742.672 125.531C743.12 125.839 743.448 126.198 743.656 126.609C743.87 127.021 743.977 127.503 743.977 128.055C743.977 128.935 743.711 129.643 743.18 130.18C742.654 130.716 741.914 131.034 740.961 131.133V132.625H739.805V131.133C738.836 131.044 738.076 130.701 737.523 130.102C736.977 129.497 736.703 128.68 736.703 127.648H738.148C738.148 128.372 738.339 128.93 738.719 129.32C739.099 129.711 739.638 129.906 740.336 129.906C741.018 129.906 741.555 129.742 741.945 129.414C742.336 129.086 742.531 128.638 742.531 128.07ZM750.523 131H749.07V121.367L746.156 122.438V121.125L750.297 119.57H750.523V131ZM754.938 130.242C754.938 129.992 755.01 129.784 755.156 129.617C755.307 129.451 755.531 129.367 755.828 129.367C756.125 129.367 756.349 129.451 756.5 129.617C756.656 129.784 756.734 129.992 756.734 130.242C756.734 130.482 756.656 130.682 756.5 130.844C756.349 131.005 756.125 131.086 755.828 131.086C755.531 131.086 755.307 131.005 755.156 130.844C755.01 130.682 754.938 130.482 754.938 130.242ZM763.727 131H762.273V121.367L759.359 122.438V121.125L763.5 119.57H763.727V131ZM775.094 126.148C775.094 127.841 774.805 129.099 774.227 129.922C773.648 130.745 772.745 131.156 771.516 131.156C770.302 131.156 769.404 130.755 768.82 129.953C768.237 129.146 767.935 127.943 767.914 126.344V124.414C767.914 122.742 768.203 121.5 768.781 120.688C769.359 119.875 770.266 119.469 771.5 119.469C772.724 119.469 773.625 119.862 774.203 120.648C774.781 121.43 775.078 122.638 775.094 124.273V126.148ZM773.648 124.172C773.648 122.948 773.477 122.057 773.133 121.5C772.789 120.938 772.245 120.656 771.5 120.656C770.76 120.656 770.221 120.935 769.883 121.492C769.544 122.049 769.37 122.906 769.359 124.062V126.375C769.359 127.604 769.536 128.513 769.891 129.102C770.25 129.685 770.792 129.977 771.516 129.977C772.229 129.977 772.758 129.701 773.102 129.148C773.451 128.596 773.633 127.727 773.648 126.539V124.172Z" fill="#2F80ED"/>
<path d="M742.531 216.07C742.531 215.591 742.362 215.188 742.023 214.859C741.69 214.531 741.125 214.234 740.328 213.969C739.219 213.63 738.409 213.19 737.898 212.648C737.393 212.102 737.141 211.409 737.141 210.57C737.141 209.716 737.388 209.016 737.883 208.469C738.383 207.922 739.068 207.596 739.938 207.492V205.781H741.102V207.5C741.977 207.62 742.656 207.987 743.141 208.602C743.63 209.216 743.875 210.057 743.875 211.125H742.438C742.438 210.391 742.263 209.807 741.914 209.375C741.565 208.943 741.094 208.727 740.5 208.727C739.88 208.727 739.406 208.888 739.078 209.211C738.75 209.529 738.586 209.974 738.586 210.547C738.586 211.078 738.758 211.503 739.102 211.82C739.451 212.133 740.021 212.419 740.812 212.68C741.609 212.935 742.229 213.219 742.672 213.531C743.12 213.839 743.448 214.198 743.656 214.609C743.87 215.021 743.977 215.503 743.977 216.055C743.977 216.935 743.711 217.643 743.18 218.18C742.654 218.716 741.914 219.034 740.961 219.133V220.625H739.805V219.133C738.836 219.044 738.076 218.701 737.523 218.102C736.977 217.497 736.703 216.68 736.703 215.648H738.148C738.148 216.372 738.339 216.93 738.719 217.32C739.099 217.711 739.638 217.906 740.336 217.906C741.018 217.906 741.555 217.742 741.945 217.414C742.336 217.086 742.531 216.638 742.531 216.07ZM750.523 219H749.07V209.367L746.156 210.438V209.125L750.297 207.57H750.523V219ZM754.938 218.242C754.938 217.992 755.01 217.784 755.156 217.617C755.307 217.451 755.531 217.367 755.828 217.367C756.125 217.367 756.349 217.451 756.5 217.617C756.656 217.784 756.734 217.992 756.734 218.242C756.734 218.482 756.656 218.682 756.5 218.844C756.349 219.005 756.125 219.086 755.828 219.086C755.531 219.086 755.307 219.005 755.156 218.844C755.01 218.682 754.938 218.482 754.938 218.242ZM766.43 219H758.977V217.961L762.914 213.586C763.497 212.924 763.898 212.388 764.117 211.977C764.341 211.56 764.453 211.13 764.453 210.688C764.453 210.094 764.273 209.607 763.914 209.227C763.555 208.846 763.076 208.656 762.477 208.656C761.758 208.656 761.198 208.862 760.797 209.273C760.401 209.68 760.203 210.247 760.203 210.977H758.758C758.758 209.93 759.094 209.083 759.766 208.438C760.443 207.792 761.346 207.469 762.477 207.469C763.534 207.469 764.37 207.747 764.984 208.305C765.599 208.857 765.906 209.594 765.906 210.516C765.906 211.635 765.193 212.969 763.766 214.516L760.719 217.82H766.43V219ZM775.094 214.148C775.094 215.841 774.805 217.099 774.227 217.922C773.648 218.745 772.745 219.156 771.516 219.156C770.302 219.156 769.404 218.755 768.82 217.953C768.237 217.146 767.935 215.943 767.914 214.344V212.414C767.914 210.742 768.203 209.5 768.781 208.688C769.359 207.875 770.266 207.469 771.5 207.469C772.724 207.469 773.625 207.862 774.203 208.648C774.781 209.43 775.078 210.638 775.094 212.273V214.148ZM773.648 212.172C773.648 210.948 773.477 210.057 773.133 209.5C772.789 208.938 772.245 208.656 771.5 208.656C770.76 208.656 770.221 208.935 769.883 209.492C769.544 210.049 769.37 210.906 769.359 212.062V214.375C769.359 215.604 769.536 216.513 769.891 217.102C770.25 217.685 770.792 217.977 771.516 217.977C772.229 217.977 772.758 217.701 773.102 217.148C773.451 216.596 773.633 215.727 773.648 214.539V212.172Z" fill="#304256"/>
<path d="M742.531 304.07C742.531 303.591 742.362 303.188 742.023 302.859C741.69 302.531 741.125 302.234 740.328 301.969C739.219 301.63 738.409 301.19 737.898 300.648C737.393 300.102 737.141 299.409 737.141 298.57C737.141 297.716 737.388 297.016 737.883 296.469C738.383 295.922 739.068 295.596 739.938 295.492V293.781H741.102V295.5C741.977 295.62 742.656 295.987 743.141 296.602C743.63 297.216 743.875 298.057 743.875 299.125H742.438C742.438 298.391 742.263 297.807 741.914 297.375C741.565 296.943 741.094 296.727 740.5 296.727C739.88 296.727 739.406 296.888 739.078 297.211C738.75 297.529 738.586 297.974 738.586 298.547C738.586 299.078 738.758 299.503 739.102 299.82C739.451 300.133 740.021 300.419 740.812 300.68C741.609 300.935 742.229 301.219 742.672 301.531C743.12 301.839 743.448 302.198 743.656 302.609C743.87 303.021 743.977 303.503 743.977 304.055C743.977 304.935 743.711 305.643 743.18 306.18C742.654 306.716 741.914 307.034 740.961 307.133V308.625H739.805V307.133C738.836 307.044 738.076 306.701 737.523 306.102C736.977 305.497 736.703 304.68 736.703 303.648H738.148C738.148 304.372 738.339 304.93 738.719 305.32C739.099 305.711 739.638 305.906 740.336 305.906C741.018 305.906 741.555 305.742 741.945 305.414C742.336 305.086 742.531 304.638 742.531 304.07ZM750.523 307H749.07V297.367L746.156 298.438V297.125L750.297 295.57H750.523V307ZM754.938 306.242C754.938 305.992 755.01 305.784 755.156 305.617C755.307 305.451 755.531 305.367 755.828 305.367C756.125 305.367 756.349 305.451 756.5 305.617C756.656 305.784 756.734 305.992 756.734 306.242C756.734 306.482 756.656 306.682 756.5 306.844C756.349 307.005 756.125 307.086 755.828 307.086C755.531 307.086 755.307 307.005 755.156 306.844C755.01 306.682 754.938 306.482 754.938 306.242ZM763.727 307H762.273V297.367L759.359 298.438V297.125L763.5 295.57H763.727V307ZM768.625 301.297L769.203 295.625H775.031V296.961H770.43L770.086 300.062C770.643 299.734 771.276 299.57 771.984 299.57C773.021 299.57 773.844 299.914 774.453 300.602C775.062 301.284 775.367 302.208 775.367 303.375C775.367 304.547 775.049 305.471 774.414 306.148C773.784 306.82 772.901 307.156 771.766 307.156C770.76 307.156 769.94 306.878 769.305 306.32C768.669 305.763 768.307 304.992 768.219 304.008H769.586C769.674 304.659 769.906 305.151 770.281 305.484C770.656 305.812 771.151 305.977 771.766 305.977C772.438 305.977 772.964 305.747 773.344 305.289C773.729 304.831 773.922 304.198 773.922 303.391C773.922 302.63 773.714 302.021 773.297 301.562C772.885 301.099 772.336 300.867 771.648 300.867C771.018 300.867 770.523 301.005 770.164 301.281L769.781 301.594L768.625 301.297Z" fill="#304256"/>
<path d="M626.531 213.297L627.109 207.625H632.938V208.961H628.336L627.992 212.062C628.549 211.734 629.182 211.57 629.891 211.57C630.927 211.57 631.75 211.914 632.359 212.602C632.969 213.284 633.273 214.208 633.273 215.375C633.273 216.547 632.956 217.471 632.32 218.148C631.69 218.82 630.807 219.156 629.672 219.156C628.667 219.156 627.846 218.878 627.211 218.32C626.576 217.763 626.214 216.992 626.125 216.008H627.492C627.581 216.659 627.812 217.151 628.188 217.484C628.562 217.812 629.057 217.977 629.672 217.977C630.344 217.977 630.87 217.747 631.25 217.289C631.635 216.831 631.828 216.198 631.828 215.391C631.828 214.63 631.62 214.021 631.203 213.562C630.792 213.099 630.242 212.867 629.555 212.867C628.924 212.867 628.43 213.005 628.07 213.281L627.688 213.594L626.531 213.297ZM634.953 221.266L634.133 220.703C634.622 220.021 634.878 219.318 634.898 218.594V217.289H636.312V218.422C636.312 218.948 636.182 219.474 635.922 220C635.667 220.526 635.344 220.948 634.953 221.266ZM645.125 214.148C645.125 215.841 644.836 217.099 644.258 217.922C643.68 218.745 642.776 219.156 641.547 219.156C640.333 219.156 639.435 218.755 638.852 217.953C638.268 217.146 637.966 215.943 637.945 214.344V212.414C637.945 210.742 638.234 209.5 638.812 208.688C639.391 207.875 640.297 207.469 641.531 207.469C642.755 207.469 643.656 207.862 644.234 208.648C644.812 209.43 645.109 210.638 645.125 212.273V214.148ZM643.68 212.172C643.68 210.948 643.508 210.057 643.164 209.5C642.82 208.938 642.276 208.656 641.531 208.656C640.792 208.656 640.253 208.935 639.914 209.492C639.576 210.049 639.401 210.906 639.391 212.062V214.375C639.391 215.604 639.568 216.513 639.922 217.102C640.281 217.685 640.823 217.977 641.547 217.977C642.26 217.977 642.789 217.701 643.133 217.148C643.482 216.596 643.664 215.727 643.68 214.539V212.172ZM654.109 214.148C654.109 215.841 653.82 217.099 653.242 217.922C652.664 218.745 651.76 219.156 650.531 219.156C649.318 219.156 648.419 218.755 647.836 217.953C647.253 217.146 646.951 215.943 646.93 214.344V212.414C646.93 210.742 647.219 209.5 647.797 208.688C648.375 207.875 649.281 207.469 650.516 207.469C651.74 207.469 652.641 207.862 653.219 208.648C653.797 209.43 654.094 210.638 654.109 212.273V214.148ZM652.664 212.172C652.664 210.948 652.492 210.057 652.148 209.5C651.805 208.938 651.26 208.656 650.516 208.656C649.776 208.656 649.237 208.935 648.898 209.492C648.56 210.049 648.385 210.906 648.375 212.062V214.375C648.375 215.604 648.552 216.513 648.906 217.102C649.266 217.685 649.807 217.977 650.531 217.977C651.245 217.977 651.773 217.701 652.117 217.148C652.466 216.596 652.648 215.727 652.664 214.539V212.172ZM663.094 214.148C663.094 215.841 662.805 217.099 662.227 217.922C661.648 218.745 660.745 219.156 659.516 219.156C658.302 219.156 657.404 218.755 656.82 217.953C656.237 217.146 655.935 215.943 655.914 214.344V212.414C655.914 210.742 656.203 209.5 656.781 208.688C657.359 207.875 658.266 207.469 659.5 207.469C660.724 207.469 661.625 207.862 662.203 208.648C662.781 209.43 663.078 210.638 663.094 212.273V214.148ZM661.648 212.172C661.648 210.948 661.477 210.057 661.133 209.5C660.789 208.938 660.245 208.656 659.5 208.656C658.76 208.656 658.221 208.935 657.883 209.492C657.544 210.049 657.37 210.906 657.359 212.062V214.375C657.359 215.604 657.536 216.513 657.891 217.102C658.25 217.685 658.792 217.977 659.516 217.977C660.229 217.977 660.758 217.701 661.102 217.148C661.451 216.596 661.633 215.727 661.648 214.539V212.172Z" fill="#304256"/>
<path d="M626.531 301.297L627.109 295.625H632.938V296.961H628.336L627.992 300.062C628.549 299.734 629.182 299.57 629.891 299.57C630.927 299.57 631.75 299.914 632.359 300.602C632.969 301.284 633.273 302.208 633.273 303.375C633.273 304.547 632.956 305.471 632.32 306.148C631.69 306.82 630.807 307.156 629.672 307.156C628.667 307.156 627.846 306.878 627.211 306.32C626.576 305.763 626.214 304.992 626.125 304.008H627.492C627.581 304.659 627.812 305.151 628.188 305.484C628.562 305.812 629.057 305.977 629.672 305.977C630.344 305.977 630.87 305.747 631.25 305.289C631.635 304.831 631.828 304.198 631.828 303.391C631.828 302.63 631.62 302.021 631.203 301.562C630.792 301.099 630.242 300.867 629.555 300.867C628.924 300.867 628.43 301.005 628.07 301.281L627.688 301.594L626.531 301.297ZM634.953 309.266L634.133 308.703C634.622 308.021 634.878 307.318 634.898 306.594V305.289H636.312V306.422C636.312 306.948 636.182 307.474 635.922 308C635.667 308.526 635.344 308.948 634.953 309.266ZM645.125 302.148C645.125 303.841 644.836 305.099 644.258 305.922C643.68 306.745 642.776 307.156 641.547 307.156C640.333 307.156 639.435 306.755 638.852 305.953C638.268 305.146 637.966 303.943 637.945 302.344V300.414C637.945 298.742 638.234 297.5 638.812 296.688C639.391 295.875 640.297 295.469 641.531 295.469C642.755 295.469 643.656 295.862 644.234 296.648C644.812 297.43 645.109 298.638 645.125 300.273V302.148ZM643.68 300.172C643.68 298.948 643.508 298.057 643.164 297.5C642.82 296.938 642.276 296.656 641.531 296.656C640.792 296.656 640.253 296.935 639.914 297.492C639.576 298.049 639.401 298.906 639.391 300.062V302.375C639.391 303.604 639.568 304.513 639.922 305.102C640.281 305.685 640.823 305.977 641.547 305.977C642.26 305.977 642.789 305.701 643.133 305.148C643.482 304.596 643.664 303.727 643.68 302.539V300.172ZM654.109 302.148C654.109 303.841 653.82 305.099 653.242 305.922C652.664 306.745 651.76 307.156 650.531 307.156C649.318 307.156 648.419 306.755 647.836 305.953C647.253 305.146 646.951 303.943 646.93 302.344V300.414C646.93 298.742 647.219 297.5 647.797 296.688C648.375 295.875 649.281 295.469 650.516 295.469C651.74 295.469 652.641 295.862 653.219 296.648C653.797 297.43 654.094 298.638 654.109 300.273V302.148ZM652.664 300.172C652.664 298.948 652.492 298.057 652.148 297.5C651.805 296.938 651.26 296.656 650.516 296.656C649.776 296.656 649.237 296.935 648.898 297.492C648.56 298.049 648.385 298.906 648.375 300.062V302.375C648.375 303.604 648.552 304.513 648.906 305.102C649.266 305.685 649.807 305.977 650.531 305.977C651.245 305.977 651.773 305.701 652.117 305.148C652.466 304.596 652.648 303.727 652.664 302.539V300.172ZM663.094 302.148C663.094 303.841 662.805 305.099 662.227 305.922C661.648 306.745 660.745 307.156 659.516 307.156C658.302 307.156 657.404 306.755 656.82 305.953C656.237 305.146 655.935 303.943 655.914 302.344V300.414C655.914 298.742 656.203 297.5 656.781 296.688C657.359 295.875 658.266 295.469 659.5 295.469C660.724 295.469 661.625 295.862 662.203 296.648C662.781 297.43 663.078 298.638 663.094 300.273V302.148ZM661.648 300.172C661.648 298.948 661.477 298.057 661.133 297.5C660.789 296.938 660.245 296.656 659.5 296.656C658.76 296.656 658.221 296.935 657.883 297.492C657.544 298.049 657.37 298.906 657.359 300.062V302.375C657.359 303.604 657.536 304.513 657.891 305.102C658.25 305.685 658.792 305.977 659.516 305.977C660.229 305.977 660.758 305.701 661.102 305.148C661.451 304.596 661.633 303.727 661.648 302.539V300.172Z" fill="#304256"/>
<rect x="240" y="282" width="40" height="40" rx="4" fill="#63DE68"/>
<path d="M300.672 301.93C299.385 301.56 298.448 301.107 297.859 300.57C297.276 300.029 296.984 299.362 296.984 298.57C296.984 297.674 297.341 296.935 298.055 296.352C298.773 295.763 299.706 295.469 300.852 295.469C301.633 295.469 302.328 295.62 302.938 295.922C303.552 296.224 304.026 296.641 304.359 297.172C304.698 297.703 304.867 298.284 304.867 298.914H303.359C303.359 298.227 303.141 297.688 302.703 297.297C302.266 296.901 301.648 296.703 300.852 296.703C300.112 296.703 299.534 296.867 299.117 297.195C298.706 297.518 298.5 297.969 298.5 298.547C298.5 299.01 298.695 299.404 299.086 299.727C299.482 300.044 300.151 300.336 301.094 300.602C302.042 300.867 302.781 301.161 303.312 301.484C303.849 301.802 304.245 302.174 304.5 302.602C304.76 303.029 304.891 303.531 304.891 304.109C304.891 305.031 304.531 305.771 303.812 306.328C303.094 306.88 302.133 307.156 300.93 307.156C300.148 307.156 299.419 307.008 298.742 306.711C298.065 306.409 297.542 305.997 297.172 305.477C296.807 304.956 296.625 304.365 296.625 303.703H298.133C298.133 304.391 298.385 304.935 298.891 305.336C299.401 305.732 300.081 305.93 300.93 305.93C301.721 305.93 302.328 305.768 302.75 305.445C303.172 305.122 303.383 304.682 303.383 304.125C303.383 303.568 303.188 303.138 302.797 302.836C302.406 302.529 301.698 302.227 300.672 301.93ZM311.812 306.164C311.25 306.826 310.424 307.156 309.336 307.156C308.435 307.156 307.747 306.896 307.273 306.375C306.805 305.849 306.568 305.073 306.562 304.047V298.547H308.008V304.008C308.008 305.289 308.529 305.93 309.57 305.93C310.674 305.93 311.409 305.518 311.773 304.695V298.547H313.219V307H311.844L311.812 306.164ZM322.562 302.867C322.562 304.154 322.268 305.19 321.68 305.977C321.091 306.763 320.294 307.156 319.289 307.156C318.263 307.156 317.456 306.831 316.867 306.18V310.25H315.422V298.547H316.742L316.812 299.484C317.401 298.755 318.219 298.391 319.266 298.391C320.281 298.391 321.083 298.773 321.672 299.539C322.266 300.305 322.562 301.37 322.562 302.734V302.867ZM321.117 302.703C321.117 301.75 320.914 300.997 320.508 300.445C320.102 299.893 319.544 299.617 318.836 299.617C317.961 299.617 317.305 300.005 316.867 300.781V304.82C317.299 305.591 317.961 305.977 318.852 305.977C319.544 305.977 320.094 305.703 320.5 305.156C320.911 304.604 321.117 303.786 321.117 302.703ZM331.547 302.867C331.547 304.154 331.253 305.19 330.664 305.977C330.076 306.763 329.279 307.156 328.273 307.156C327.247 307.156 326.44 306.831 325.852 306.18V310.25H324.406V298.547H325.727L325.797 299.484C326.385 298.755 327.203 298.391 328.25 298.391C329.266 298.391 330.068 298.773 330.656 299.539C331.25 300.305 331.547 301.37 331.547 302.734V302.867ZM330.102 302.703C330.102 301.75 329.898 300.997 329.492 300.445C329.086 299.893 328.529 299.617 327.82 299.617C326.945 299.617 326.289 300.005 325.852 300.781V304.82C326.284 305.591 326.945 305.977 327.836 305.977C328.529 305.977 329.078 305.703 329.484 305.156C329.896 304.604 330.102 303.786 330.102 302.703ZM334.961 307H333.516V295H334.961V307ZM338.852 307H337.406V298.547H338.852V307ZM337.289 296.305C337.289 296.07 337.359 295.872 337.5 295.711C337.646 295.549 337.859 295.469 338.141 295.469C338.422 295.469 338.635 295.549 338.781 295.711C338.927 295.872 339 296.07 339 296.305C339 296.539 338.927 296.734 338.781 296.891C338.635 297.047 338.422 297.125 338.141 297.125C337.859 297.125 337.646 297.047 337.5 296.891C337.359 296.734 337.289 296.539 337.289 296.305ZM344.68 307.156C343.534 307.156 342.602 306.781 341.883 306.031C341.164 305.276 340.805 304.268 340.805 303.008V302.742C340.805 301.904 340.964 301.156 341.281 300.5C341.604 299.839 342.052 299.323 342.625 298.953C343.203 298.578 343.828 298.391 344.5 298.391C345.599 298.391 346.453 298.753 347.062 299.477C347.672 300.201 347.977 301.237 347.977 302.586V303.188H342.25C342.271 304.021 342.513 304.695 342.977 305.211C343.445 305.721 344.039 305.977 344.758 305.977C345.268 305.977 345.701 305.872 346.055 305.664C346.409 305.456 346.719 305.18 346.984 304.836L347.867 305.523C347.159 306.612 346.096 307.156 344.68 307.156ZM344.5 299.578C343.917 299.578 343.427 299.792 343.031 300.219C342.635 300.641 342.391 301.234 342.297 302H346.531V301.891C346.49 301.156 346.292 300.589 345.938 300.188C345.583 299.781 345.104 299.578 344.5 299.578ZM353.742 299.844C353.523 299.807 353.286 299.789 353.031 299.789C352.083 299.789 351.44 300.193 351.102 301V307H349.656V298.547H351.062L351.086 299.523C351.56 298.768 352.232 298.391 353.102 298.391C353.383 298.391 353.596 298.427 353.742 298.5V299.844ZM367.641 303.391C367.5 304.594 367.055 305.523 366.305 306.18C365.56 306.831 364.568 307.156 363.328 307.156C361.984 307.156 360.906 306.674 360.094 305.711C359.286 304.747 358.883 303.458 358.883 301.844V300.75C358.883 299.693 359.07 298.763 359.445 297.961C359.826 297.159 360.362 296.544 361.055 296.117C361.747 295.685 362.549 295.469 363.461 295.469C364.669 295.469 365.638 295.807 366.367 296.484C367.096 297.156 367.521 298.089 367.641 299.281H366.133C366.003 298.375 365.719 297.719 365.281 297.312C364.849 296.906 364.242 296.703 363.461 296.703C362.503 296.703 361.75 297.057 361.203 297.766C360.661 298.474 360.391 299.482 360.391 300.789V301.891C360.391 303.125 360.648 304.107 361.164 304.836C361.68 305.565 362.401 305.93 363.328 305.93C364.161 305.93 364.799 305.742 365.242 305.367C365.69 304.987 365.987 304.328 366.133 303.391H367.641Z" fill="#304256"/>
<rect x="240" y="194" width="40" height="40" rx="4" fill="#F7B422"/>
<path d="M300.672 213.93C299.385 213.56 298.448 213.107 297.859 212.57C297.276 212.029 296.984 211.362 296.984 210.57C296.984 209.674 297.341 208.935 298.055 208.352C298.773 207.763 299.706 207.469 300.852 207.469C301.633 207.469 302.328 207.62 302.938 207.922C303.552 208.224 304.026 208.641 304.359 209.172C304.698 209.703 304.867 210.284 304.867 210.914H303.359C303.359 210.227 303.141 209.688 302.703 209.297C302.266 208.901 301.648 208.703 300.852 208.703C300.112 208.703 299.534 208.867 299.117 209.195C298.706 209.518 298.5 209.969 298.5 210.547C298.5 211.01 298.695 211.404 299.086 211.727C299.482 212.044 300.151 212.336 301.094 212.602C302.042 212.867 302.781 213.161 303.312 213.484C303.849 213.802 304.245 214.174 304.5 214.602C304.76 215.029 304.891 215.531 304.891 216.109C304.891 217.031 304.531 217.771 303.812 218.328C303.094 218.88 302.133 219.156 300.93 219.156C300.148 219.156 299.419 219.008 298.742 218.711C298.065 218.409 297.542 217.997 297.172 217.477C296.807 216.956 296.625 216.365 296.625 215.703H298.133C298.133 216.391 298.385 216.935 298.891 217.336C299.401 217.732 300.081 217.93 300.93 217.93C301.721 217.93 302.328 217.768 302.75 217.445C303.172 217.122 303.383 216.682 303.383 216.125C303.383 215.568 303.188 215.138 302.797 214.836C302.406 214.529 301.698 214.227 300.672 213.93ZM311.812 218.164C311.25 218.826 310.424 219.156 309.336 219.156C308.435 219.156 307.747 218.896 307.273 218.375C306.805 217.849 306.568 217.073 306.562 216.047V210.547H308.008V216.008C308.008 217.289 308.529 217.93 309.57 217.93C310.674 217.93 311.409 217.518 311.773 216.695V210.547H313.219V219H311.844L311.812 218.164ZM322.562 214.867C322.562 216.154 322.268 217.19 321.68 217.977C321.091 218.763 320.294 219.156 319.289 219.156C318.263 219.156 317.456 218.831 316.867 218.18V222.25H315.422V210.547H316.742L316.812 211.484C317.401 210.755 318.219 210.391 319.266 210.391C320.281 210.391 321.083 210.773 321.672 211.539C322.266 212.305 322.562 213.37 322.562 214.734V214.867ZM321.117 214.703C321.117 213.75 320.914 212.997 320.508 212.445C320.102 211.893 319.544 211.617 318.836 211.617C317.961 211.617 317.305 212.005 316.867 212.781V216.82C317.299 217.591 317.961 217.977 318.852 217.977C319.544 217.977 320.094 217.703 320.5 217.156C320.911 216.604 321.117 215.786 321.117 214.703ZM331.547 214.867C331.547 216.154 331.253 217.19 330.664 217.977C330.076 218.763 329.279 219.156 328.273 219.156C327.247 219.156 326.44 218.831 325.852 218.18V222.25H324.406V210.547H325.727L325.797 211.484C326.385 210.755 327.203 210.391 328.25 210.391C329.266 210.391 330.068 210.773 330.656 211.539C331.25 212.305 331.547 213.37 331.547 214.734V214.867ZM330.102 214.703C330.102 213.75 329.898 212.997 329.492 212.445C329.086 211.893 328.529 211.617 327.82 211.617C326.945 211.617 326.289 212.005 325.852 212.781V216.82C326.284 217.591 326.945 217.977 327.836 217.977C328.529 217.977 329.078 217.703 329.484 217.156C329.896 216.604 330.102 215.786 330.102 214.703ZM334.961 219H333.516V207H334.961V219ZM338.852 219H337.406V210.547H338.852V219ZM337.289 208.305C337.289 208.07 337.359 207.872 337.5 207.711C337.646 207.549 337.859 207.469 338.141 207.469C338.422 207.469 338.635 207.549 338.781 207.711C338.927 207.872 339 208.07 339 208.305C339 208.539 338.927 208.734 338.781 208.891C338.635 209.047 338.422 209.125 338.141 209.125C337.859 209.125 337.646 209.047 337.5 208.891C337.359 208.734 337.289 208.539 337.289 208.305ZM344.68 219.156C343.534 219.156 342.602 218.781 341.883 218.031C341.164 217.276 340.805 216.268 340.805 215.008V214.742C340.805 213.904 340.964 213.156 341.281 212.5C341.604 211.839 342.052 211.323 342.625 210.953C343.203 210.578 343.828 210.391 344.5 210.391C345.599 210.391 346.453 210.753 347.062 211.477C347.672 212.201 347.977 213.237 347.977 214.586V215.188H342.25C342.271 216.021 342.513 216.695 342.977 217.211C343.445 217.721 344.039 217.977 344.758 217.977C345.268 217.977 345.701 217.872 346.055 217.664C346.409 217.456 346.719 217.18 346.984 216.836L347.867 217.523C347.159 218.612 346.096 219.156 344.68 219.156ZM344.5 211.578C343.917 211.578 343.427 211.792 343.031 212.219C342.635 212.641 342.391 213.234 342.297 214H346.531V213.891C346.49 213.156 346.292 212.589 345.938 212.188C345.583 211.781 345.104 211.578 344.5 211.578ZM353.742 211.844C353.523 211.807 353.286 211.789 353.031 211.789C352.083 211.789 351.44 212.193 351.102 213V219H349.656V210.547H351.062L351.086 211.523C351.56 210.768 352.232 210.391 353.102 210.391C353.383 210.391 353.596 210.427 353.742 210.5V211.844ZM359.273 219V207.625H362.992C364.227 207.625 365.154 207.88 365.773 208.391C366.398 208.901 366.711 209.656 366.711 210.656C366.711 211.188 366.56 211.659 366.258 212.07C365.956 212.477 365.544 212.792 365.023 213.016C365.638 213.188 366.122 213.516 366.477 214C366.836 214.479 367.016 215.052 367.016 215.719C367.016 216.74 366.685 217.542 366.023 218.125C365.362 218.708 364.427 219 363.219 219H359.273ZM360.773 213.68V217.773H363.25C363.948 217.773 364.497 217.594 364.898 217.234C365.305 216.87 365.508 216.37 365.508 215.734C365.508 214.365 364.763 213.68 363.273 213.68H360.773ZM360.773 212.477H363.039C363.695 212.477 364.219 212.312 364.609 211.984C365.005 211.656 365.203 211.211 365.203 210.648C365.203 210.023 365.021 209.57 364.656 209.289C364.292 209.003 363.737 208.859 362.992 208.859H360.773V212.477Z" fill="#304256"/>
<path d="M116.66 126.17C114.901 125.804 113.713 124.589 113.713 123.714V122.857H115.999C115.999 124.259 116.285 125.348 116.66 126.17ZM126.285 123.714C126.285 124.589 125.097 125.804 123.338 126.17C123.713 125.348 123.999 124.259 123.999 122.857H126.285V123.714ZM127.427 122.571C127.427 122.098 127.044 121.714 126.57 121.714H123.999V120.857C123.999 120.071 123.356 119.429 122.57 119.429H117.427C116.642 119.429 115.999 120.071 115.999 120.857V121.714H113.427C112.954 121.714 112.57 122.098 112.57 122.571V123.714C112.57 125.411 114.624 127.286 117.41 127.42C117.767 127.875 118.097 128.143 118.258 128.268C118.731 128.696 118.856 129.143 118.856 129.714C118.856 130.286 118.57 130.857 117.713 130.857C116.856 130.857 115.999 131.429 115.999 132.286V132.857C115.999 133.018 116.124 133.143 116.285 133.143H123.713C123.874 133.143 123.999 133.018 123.999 132.857V132.286C123.999 131.429 123.142 130.857 122.285 130.857C121.427 130.857 121.142 130.286 121.142 129.714C121.142 129.143 121.267 128.696 121.74 128.268C121.901 128.143 122.231 127.875 122.588 127.42C125.374 127.286 127.427 125.411 127.427 123.714V122.571Z" fill="#F7B422"/>
<path d="M123.906 219H116.453V217.961L120.391 213.586C120.974 212.924 121.375 212.388 121.594 211.977C121.818 211.56 121.93 211.13 121.93 210.688C121.93 210.094 121.75 209.607 121.391 209.227C121.031 208.846 120.552 208.656 119.953 208.656C119.234 208.656 118.674 208.862 118.273 209.273C117.878 209.68 117.68 210.247 117.68 210.977H116.234C116.234 209.93 116.57 209.083 117.242 208.438C117.919 207.792 118.823 207.469 119.953 207.469C121.01 207.469 121.846 207.747 122.461 208.305C123.076 208.857 123.383 209.594 123.383 210.516C123.383 211.635 122.669 212.969 121.242 214.516L118.195 217.82H123.906V219Z" fill="#A5B9D0"/>
<path d="M118.555 300.609H119.641C120.323 300.599 120.859 300.419 121.25 300.07C121.641 299.721 121.836 299.25 121.836 298.656C121.836 297.323 121.172 296.656 119.844 296.656C119.219 296.656 118.719 296.836 118.344 297.195C117.974 297.549 117.789 298.021 117.789 298.609H116.344C116.344 297.708 116.672 296.961 117.328 296.367C117.99 295.768 118.828 295.469 119.844 295.469C120.917 295.469 121.758 295.753 122.367 296.32C122.977 296.888 123.281 297.677 123.281 298.688C123.281 299.182 123.12 299.661 122.797 300.125C122.479 300.589 122.044 300.935 121.492 301.164C122.117 301.362 122.599 301.69 122.938 302.148C123.281 302.607 123.453 303.167 123.453 303.828C123.453 304.849 123.12 305.659 122.453 306.258C121.786 306.857 120.919 307.156 119.852 307.156C118.784 307.156 117.914 306.867 117.242 306.289C116.576 305.711 116.242 304.948 116.242 304H117.695C117.695 304.599 117.891 305.078 118.281 305.438C118.672 305.797 119.195 305.977 119.852 305.977C120.549 305.977 121.083 305.794 121.453 305.43C121.823 305.065 122.008 304.542 122.008 303.859C122.008 303.198 121.805 302.69 121.398 302.336C120.992 301.982 120.406 301.799 119.641 301.789H118.555V300.609Z" fill="#A5B9D0"/>
<path d="M176.352 131H174.461V121.867L171.672 122.82V121.219L176.109 119.586H176.352V131ZM187.719 126.211C187.719 127.846 187.411 129.081 186.797 129.914C186.188 130.742 185.258 131.156 184.008 131.156C182.779 131.156 181.852 130.753 181.227 129.945C180.607 129.133 180.289 127.932 180.273 126.344V124.375C180.273 122.74 180.578 121.513 181.188 120.695C181.802 119.878 182.737 119.469 183.992 119.469C185.237 119.469 186.164 119.867 186.773 120.664C187.388 121.461 187.703 122.654 187.719 124.242V126.211ZM185.82 124.086C185.82 123.018 185.674 122.237 185.383 121.742C185.091 121.242 184.628 120.992 183.992 120.992C183.372 120.992 182.917 121.229 182.625 121.703C182.333 122.172 182.18 122.906 182.164 123.906V126.484C182.164 127.547 182.312 128.339 182.609 128.859C182.906 129.38 183.372 129.641 184.008 129.641C184.617 129.641 185.068 129.401 185.359 128.922C185.651 128.438 185.805 127.682 185.82 126.656V124.086ZM196.812 126.211C196.812 127.846 196.505 129.081 195.891 129.914C195.281 130.742 194.352 131.156 193.102 131.156C191.872 131.156 190.945 130.753 190.32 129.945C189.701 129.133 189.383 127.932 189.367 126.344V124.375C189.367 122.74 189.672 121.513 190.281 120.695C190.896 119.878 191.831 119.469 193.086 119.469C194.331 119.469 195.258 119.867 195.867 120.664C196.482 121.461 196.797 122.654 196.812 124.242V126.211ZM194.914 124.086C194.914 123.018 194.768 122.237 194.477 121.742C194.185 121.242 193.721 120.992 193.086 120.992C192.466 120.992 192.01 121.229 191.719 121.703C191.427 122.172 191.273 122.906 191.258 123.906V126.484C191.258 127.547 191.406 128.339 191.703 128.859C192 129.38 192.466 129.641 193.102 129.641C193.711 129.641 194.161 129.401 194.453 128.922C194.745 128.438 194.898 127.682 194.914 126.656V124.086Z" fill="#2F80ED"/>
<path d="M181.141 214.242C180.505 214.914 179.763 215.25 178.914 215.25C177.914 215.25 177.117 214.901 176.523 214.203C175.93 213.5 175.633 212.578 175.633 211.438C175.633 210.688 175.784 210.008 176.086 209.398C176.388 208.789 176.818 208.315 177.375 207.977C177.932 207.638 178.578 207.469 179.312 207.469C180.458 207.469 181.367 207.896 182.039 208.75C182.711 209.604 183.047 210.747 183.047 212.18V212.711C183.047 214.763 182.583 216.328 181.656 217.406C180.729 218.484 179.346 219.031 177.508 219.047H177.281V217.477H177.555C178.674 217.461 179.534 217.193 180.133 216.672C180.732 216.146 181.068 215.336 181.141 214.242ZM179.312 213.766C179.693 213.766 180.049 213.656 180.383 213.438C180.716 213.219 180.974 212.917 181.156 212.531V211.789C181.156 210.951 180.984 210.276 180.641 209.766C180.297 209.255 179.852 209 179.305 209C178.758 209 178.32 209.227 177.992 209.68C177.669 210.128 177.508 210.695 177.508 211.383C177.508 212.096 177.672 212.672 178 213.109C178.328 213.547 178.766 213.766 179.312 213.766ZM185.359 213.359L185.977 207.625H192.086V209.266H187.555L187.242 211.984C187.768 211.682 188.362 211.531 189.023 211.531C190.107 211.531 190.948 211.878 191.547 212.57C192.151 213.263 192.453 214.195 192.453 215.367C192.453 216.523 192.12 217.445 191.453 218.133C190.786 218.815 189.872 219.156 188.711 219.156C187.669 219.156 186.805 218.862 186.117 218.273C185.435 217.68 185.065 216.898 185.008 215.93H186.844C186.917 216.482 187.115 216.906 187.438 217.203C187.76 217.495 188.182 217.641 188.703 217.641C189.286 217.641 189.74 217.432 190.062 217.016C190.391 216.599 190.555 216.031 190.555 215.312C190.555 214.62 190.375 214.073 190.016 213.672C189.656 213.266 189.161 213.062 188.531 213.062C188.188 213.062 187.896 213.109 187.656 213.203C187.417 213.292 187.156 213.469 186.875 213.734L185.359 213.359Z" fill="#2F80ED"/>
<path d="M182.922 298.625C182.922 299.182 182.779 299.68 182.492 300.117C182.206 300.549 181.815 300.891 181.32 301.141C181.914 301.417 182.37 301.794 182.688 302.273C183.01 302.753 183.172 303.294 183.172 303.898C183.172 304.898 182.833 305.693 182.156 306.281C181.479 306.865 180.578 307.156 179.453 307.156C178.323 307.156 177.417 306.862 176.734 306.273C176.057 305.685 175.719 304.893 175.719 303.898C175.719 303.289 175.88 302.742 176.203 302.258C176.526 301.773 176.979 301.401 177.562 301.141C177.073 300.891 176.685 300.549 176.398 300.117C176.117 299.68 175.977 299.182 175.977 298.625C175.977 297.656 176.289 296.888 176.914 296.32C177.539 295.753 178.383 295.469 179.445 295.469C180.513 295.469 181.359 295.753 181.984 296.32C182.609 296.888 182.922 297.656 182.922 298.625ZM181.273 303.805C181.273 303.242 181.104 302.789 180.766 302.445C180.432 302.096 179.99 301.922 179.438 301.922C178.885 301.922 178.443 302.094 178.109 302.438C177.781 302.781 177.617 303.237 177.617 303.805C177.617 304.362 177.779 304.807 178.102 305.141C178.43 305.474 178.88 305.641 179.453 305.641C180.026 305.641 180.471 305.479 180.789 305.156C181.112 304.833 181.273 304.383 181.273 303.805ZM181.031 298.695C181.031 298.201 180.888 297.794 180.602 297.477C180.315 297.154 179.93 296.992 179.445 296.992C178.961 296.992 178.578 297.146 178.297 297.453C178.016 297.755 177.875 298.169 177.875 298.695C177.875 299.216 178.016 299.63 178.297 299.938C178.583 300.245 178.969 300.398 179.453 300.398C179.938 300.398 180.32 300.245 180.602 299.938C180.888 299.63 181.031 299.216 181.031 298.695ZM185.359 301.359L185.977 295.625H192.086V297.266H187.555L187.242 299.984C187.768 299.682 188.362 299.531 189.023 299.531C190.107 299.531 190.948 299.878 191.547 300.57C192.151 301.263 192.453 302.195 192.453 303.367C192.453 304.523 192.12 305.445 191.453 306.133C190.786 306.815 189.872 307.156 188.711 307.156C187.669 307.156 186.805 306.862 186.117 306.273C185.435 305.68 185.065 304.898 185.008 303.93H186.844C186.917 304.482 187.115 304.906 187.438 305.203C187.76 305.495 188.182 305.641 188.703 305.641C189.286 305.641 189.74 305.432 190.062 305.016C190.391 304.599 190.555 304.031 190.555 303.312C190.555 302.62 190.375 302.073 190.016 301.672C189.656 301.266 189.161 301.062 188.531 301.062C188.188 301.062 187.896 301.109 187.656 301.203C187.417 301.292 187.156 301.469 186.875 301.734L185.359 301.359Z" fill="#2F80ED"/>
<line x1="16" y1="169" x2="816" y2="169" stroke="#EAF2FD" stroke-width="2"/>
<line x1="16" y1="257" x2="816" y2="257" stroke="#EAF2FD" stroke-width="2"/>
<rect x="57" y="115" width="22" height="22" rx="3" stroke="#2F80ED" stroke-width="2"/>
<rect x="57" y="203" width="22" height="22" rx="3" stroke="#EAF2FD" stroke-width="2"/>
<rect x="57" y="291" width="22" height="22" rx="3" stroke="#EAF2FD" stroke-width="2"/>
<rect x="633" y="370" width="143" height="40" rx="4" fill="#2F80ED"/>
<path d="M656.539 392.352H652.133L651.211 395H649.156L653.453 383.625H655.227L659.531 395H657.469L656.539 392.352ZM652.688 390.758H655.984L654.336 386.039L652.688 390.758ZM667.805 392.383L669.148 386.547H671L668.695 395H667.133L665.32 389.195L663.539 395H661.977L659.664 386.547H661.516L662.883 392.32L664.617 386.547H666.047L667.805 392.383ZM677.32 395C677.237 394.839 677.164 394.576 677.102 394.211C676.497 394.841 675.758 395.156 674.883 395.156C674.034 395.156 673.341 394.914 672.805 394.43C672.268 393.945 672 393.346 672 392.633C672 391.732 672.333 391.042 673 390.562C673.672 390.078 674.63 389.836 675.875 389.836H677.039V389.281C677.039 388.844 676.917 388.495 676.672 388.234C676.427 387.969 676.055 387.836 675.555 387.836C675.122 387.836 674.768 387.945 674.492 388.164C674.216 388.378 674.078 388.651 674.078 388.984H672.18C672.18 388.521 672.333 388.089 672.641 387.688C672.948 387.281 673.365 386.964 673.891 386.734C674.422 386.505 675.013 386.391 675.664 386.391C676.654 386.391 677.443 386.641 678.031 387.141C678.62 387.635 678.922 388.333 678.938 389.234V393.047C678.938 393.807 679.044 394.414 679.258 394.867V395H677.32ZM675.234 393.633C675.609 393.633 675.961 393.542 676.289 393.359C676.622 393.177 676.872 392.932 677.039 392.625V391.031H676.016C675.312 391.031 674.784 391.154 674.43 391.398C674.076 391.643 673.898 391.99 673.898 392.438C673.898 392.802 674.018 393.094 674.258 393.312C674.503 393.526 674.828 393.633 675.234 393.633ZM685.352 388.281C685.102 388.24 684.844 388.219 684.578 388.219C683.708 388.219 683.122 388.552 682.82 389.219V395H680.922V386.547H682.734L682.781 387.492C683.24 386.758 683.875 386.391 684.688 386.391C684.958 386.391 685.182 386.427 685.359 386.5L685.352 388.281ZM686.039 390.711C686.039 389.409 686.341 388.365 686.945 387.578C687.549 386.786 688.359 386.391 689.375 386.391C690.271 386.391 690.995 386.703 691.547 387.328V383H693.445V395H691.727L691.633 394.125C691.065 394.812 690.307 395.156 689.359 395.156C688.37 395.156 687.568 394.758 686.953 393.961C686.344 393.164 686.039 392.081 686.039 390.711ZM687.938 390.875C687.938 391.734 688.102 392.406 688.43 392.891C688.763 393.37 689.234 393.609 689.844 393.609C690.62 393.609 691.188 393.263 691.547 392.57V388.961C691.198 388.284 690.635 387.945 689.859 387.945C689.245 387.945 688.771 388.19 688.438 388.68C688.104 389.164 687.938 389.896 687.938 390.875ZM708.273 391.297C708.159 392.51 707.711 393.458 706.93 394.141C706.148 394.818 705.109 395.156 703.812 395.156C702.906 395.156 702.107 394.943 701.414 394.516C700.727 394.083 700.195 393.471 699.82 392.68C699.445 391.888 699.25 390.969 699.234 389.922V388.859C699.234 387.786 699.424 386.841 699.805 386.023C700.185 385.206 700.729 384.576 701.438 384.133C702.151 383.69 702.974 383.469 703.906 383.469C705.161 383.469 706.172 383.81 706.938 384.492C707.703 385.174 708.148 386.138 708.273 387.383H706.305C706.211 386.565 705.971 385.977 705.586 385.617C705.206 385.253 704.646 385.07 703.906 385.07C703.047 385.07 702.385 385.385 701.922 386.016C701.464 386.641 701.229 387.56 701.219 388.773V389.781C701.219 391.01 701.438 391.948 701.875 392.594C702.318 393.24 702.964 393.562 703.812 393.562C704.589 393.562 705.172 393.388 705.562 393.039C705.953 392.69 706.201 392.109 706.305 391.297H708.273ZM709.508 390.695C709.508 389.867 709.672 389.122 710 388.461C710.328 387.794 710.789 387.284 711.383 386.93C711.977 386.57 712.659 386.391 713.43 386.391C714.57 386.391 715.495 386.758 716.203 387.492C716.917 388.227 717.302 389.201 717.359 390.414L717.367 390.859C717.367 391.693 717.206 392.438 716.883 393.094C716.565 393.75 716.107 394.258 715.508 394.617C714.914 394.977 714.227 395.156 713.445 395.156C712.253 395.156 711.297 394.76 710.578 393.969C709.865 393.172 709.508 392.112 709.508 390.789V390.695ZM711.406 390.859C711.406 391.729 711.586 392.411 711.945 392.906C712.305 393.396 712.805 393.641 713.445 393.641C714.086 393.641 714.583 393.391 714.938 392.891C715.297 392.391 715.477 391.659 715.477 390.695C715.477 389.841 715.292 389.164 714.922 388.664C714.557 388.164 714.06 387.914 713.43 387.914C712.81 387.914 712.318 388.161 711.953 388.656C711.589 389.146 711.406 389.88 711.406 390.859ZM720.734 386.547L720.789 387.523C721.414 386.768 722.234 386.391 723.25 386.391C725.01 386.391 725.906 387.398 725.938 389.414V395H724.039V389.523C724.039 388.987 723.922 388.591 723.688 388.336C723.458 388.076 723.081 387.945 722.555 387.945C721.789 387.945 721.219 388.292 720.844 388.984V395H718.945V386.547H720.734ZM730.258 384.492V386.547H731.75V387.953H730.258V392.672C730.258 392.995 730.32 393.229 730.445 393.375C730.576 393.516 730.805 393.586 731.133 393.586C731.352 393.586 731.573 393.56 731.797 393.508V394.977C731.365 395.096 730.948 395.156 730.547 395.156C729.089 395.156 728.359 394.352 728.359 392.742V387.953H726.969V386.547H728.359V384.492H730.258ZM737.633 388.281C737.383 388.24 737.125 388.219 736.859 388.219C735.99 388.219 735.404 388.552 735.102 389.219V395H733.203V386.547H735.016L735.062 387.492C735.521 386.758 736.156 386.391 736.969 386.391C737.24 386.391 737.464 386.427 737.641 386.5L737.633 388.281ZM743.648 395C743.565 394.839 743.492 394.576 743.43 394.211C742.826 394.841 742.086 395.156 741.211 395.156C740.362 395.156 739.669 394.914 739.133 394.43C738.596 393.945 738.328 393.346 738.328 392.633C738.328 391.732 738.661 391.042 739.328 390.562C740 390.078 740.958 389.836 742.203 389.836H743.367V389.281C743.367 388.844 743.245 388.495 743 388.234C742.755 387.969 742.383 387.836 741.883 387.836C741.451 387.836 741.096 387.945 740.82 388.164C740.544 388.378 740.406 388.651 740.406 388.984H738.508C738.508 388.521 738.661 388.089 738.969 387.688C739.276 387.281 739.693 386.964 740.219 386.734C740.75 386.505 741.341 386.391 741.992 386.391C742.982 386.391 743.771 386.641 744.359 387.141C744.948 387.635 745.25 388.333 745.266 389.234V393.047C745.266 393.807 745.372 394.414 745.586 394.867V395H743.648ZM741.562 393.633C741.938 393.633 742.289 393.542 742.617 393.359C742.951 393.177 743.201 392.932 743.367 392.625V391.031H742.344C741.641 391.031 741.112 391.154 740.758 391.398C740.404 391.643 740.227 391.99 740.227 392.438C740.227 392.802 740.346 393.094 740.586 393.312C740.831 393.526 741.156 393.633 741.562 393.633ZM750.727 393.641C751.201 393.641 751.594 393.503 751.906 393.227C752.219 392.951 752.385 392.609 752.406 392.203H754.195C754.174 392.729 754.01 393.221 753.703 393.68C753.396 394.133 752.979 394.492 752.453 394.758C751.927 395.023 751.359 395.156 750.75 395.156C749.568 395.156 748.63 394.773 747.938 394.008C747.245 393.242 746.898 392.185 746.898 390.836V390.641C746.898 389.354 747.242 388.326 747.93 387.555C748.617 386.779 749.555 386.391 750.742 386.391C751.747 386.391 752.565 386.685 753.195 387.273C753.831 387.857 754.164 388.625 754.195 389.578H752.406C752.385 389.094 752.219 388.695 751.906 388.383C751.599 388.07 751.206 387.914 750.727 387.914C750.112 387.914 749.638 388.138 749.305 388.586C748.971 389.029 748.802 389.703 748.797 390.609V390.914C748.797 391.831 748.961 392.516 749.289 392.969C749.622 393.417 750.102 393.641 750.727 393.641ZM758.008 384.492V386.547H759.5V387.953H758.008V392.672C758.008 392.995 758.07 393.229 758.195 393.375C758.326 393.516 758.555 393.586 758.883 393.586C759.102 393.586 759.323 393.56 759.547 393.508V394.977C759.115 395.096 758.698 395.156 758.297 395.156C756.839 395.156 756.109 394.352 756.109 392.742V387.953H754.719V386.547H756.109V384.492H758.008Z" fill="white"/>
<path d="M73.1897 123.504C73.1897 123.337 73.1228 123.17 73.0022 123.049L72.0915 122.138C71.971 122.018 71.8036 121.951 71.6362 121.951C71.4688 121.951 71.3013 122.018 71.1808 122.138L66.7879 126.538L64.8192 124.562C64.6987 124.442 64.5313 124.375 64.3638 124.375C64.1964 124.375 64.029 124.442 63.9085 124.562L62.9978 125.473C62.8772 125.594 62.8103 125.761 62.8103 125.929C62.8103 126.096 62.8772 126.263 62.9978 126.384L65.4219 128.808L66.3326 129.719C66.4531 129.839 66.6205 129.906 66.7879 129.906C66.9554 129.906 67.1228 129.839 67.2433 129.719L68.154 128.808L73.0022 123.96C73.1228 123.839 73.1897 123.672 73.1897 123.504Z" fill="#2F80ED"/>
<path d="M254.27 221V206.781H259.25C260.975 206.781 262.284 207.113 263.176 207.777C264.068 208.435 264.514 209.402 264.514 210.678C264.514 211.374 264.335 211.99 263.977 212.523C263.618 213.051 263.12 213.438 262.482 213.686C263.212 213.868 263.785 214.236 264.201 214.789C264.624 215.342 264.836 216.02 264.836 216.82C264.836 218.188 264.4 219.223 263.527 219.926C262.655 220.629 261.411 220.987 259.797 221H254.27ZM257.199 214.809V218.646H259.709C260.399 218.646 260.936 218.484 261.32 218.158C261.711 217.826 261.906 217.37 261.906 216.791C261.906 215.489 261.232 214.828 259.885 214.809H257.199ZM257.199 212.738H259.367C260.845 212.712 261.584 212.123 261.584 210.971C261.584 210.326 261.395 209.864 261.018 209.584C260.646 209.298 260.057 209.154 259.25 209.154H257.199V212.738Z" fill="white"/>
<path d="M265.432 304.264C265.321 305.794 264.755 306.998 263.732 307.877C262.717 308.756 261.376 309.195 259.709 309.195C257.886 309.195 256.451 308.583 255.402 307.359C254.361 306.129 253.84 304.443 253.84 302.301V301.432C253.84 300.064 254.081 298.86 254.562 297.818C255.044 296.777 255.731 295.979 256.623 295.426C257.521 294.866 258.563 294.586 259.748 294.586C261.389 294.586 262.71 295.025 263.713 295.904C264.715 296.783 265.295 298.017 265.451 299.605H262.521C262.45 298.688 262.193 298.023 261.75 297.613C261.314 297.197 260.646 296.988 259.748 296.988C258.771 296.988 258.039 297.34 257.551 298.043C257.069 298.74 256.822 299.824 256.809 301.295V302.369C256.809 303.906 257.04 305.029 257.502 305.738C257.971 306.448 258.706 306.803 259.709 306.803C260.614 306.803 261.288 306.598 261.73 306.188C262.18 305.771 262.437 305.13 262.502 304.264H265.432Z" fill="white"/>
<line x1="16" y1="345" x2="816" y2="345" stroke="#EAF2FD" stroke-width="2"/>
<defs>
<filter id="filter0_d" x="6" y="12" width="820" height="438" filterUnits="userSpaceOnUse" color-interpolation-filters="sRGB">
<feFlood flood-opacity="0" result="BackgroundImageFix"/>
<feColorMatrix in="SourceAlpha" type="matrix" values="0 0 0 0 0 0 0 0 0 0 0 0 0 0 0 0 0 0 127 0"/>
<feOffset dy="6"/>
<feGaussianBlur stdDeviation="4"/>
<feColorMatrix type="matrix" values="0 0 0 0 0.189684 0 0 0 0 0.258371 0 0 0 0 0.339179 0 0 0 0.15 0"/>
<feBlend mode="normal" in2="BackgroundImageFix" result="effect1_dropShadow"/>
<feBlend mode="normal" in="SourceGraphic" in2="effect1_dropShadow" result="shape"/>
</filter>
</defs>
</svg>
