<svg width="864" height="336" viewBox="0 0 864 336" fill="none" xmlns="http://www.w3.org/2000/svg">
<g filter="url(#filter0_d)">
<rect x="16" y="16" width="380" height="304" rx="8" fill="white"/>
<rect x="15" y="15" width="382" height="306" rx="9" stroke="#EAF2FD" stroke-width="2"/>
</g>
<path d="M16 72H396V312C396 316.418 392.418 320 388 320H24C19.5817 320 16 316.418 16 312V72Z" fill="#304256" fill-opacity="0.01"/>
<path d="M80.8359 129H78.8672V117.625H80.8359V129ZM98.2734 129H96.2969L91.2266 120.93V129H89.25V117.625H91.2266L96.3125 125.727V117.625H98.2734V129ZM108.258 123.922H103.586V127.422H109.047V129H101.609V117.625H108.992V119.219H103.586V122.359H108.258V123.922ZM118.305 123.922H113.633V127.422H119.094V129H111.656V117.625H119.039V119.219H113.633V122.359H118.305V123.922ZM121.703 129V117.625H125.062C126.068 117.625 126.958 117.849 127.734 118.297C128.516 118.745 129.12 119.38 129.547 120.203C129.974 121.026 130.188 121.969 130.188 123.031V123.602C130.188 124.68 129.971 125.628 129.539 126.445C129.112 127.263 128.5 127.893 127.703 128.336C126.911 128.779 126.003 129 124.977 129H121.703ZM123.68 119.219V127.422H124.969C126.005 127.422 126.799 127.099 127.352 126.453C127.909 125.802 128.193 124.87 128.203 123.656V123.023C128.203 121.789 127.935 120.846 127.398 120.195C126.862 119.544 126.083 119.219 125.062 119.219H123.68Z" fill="#6984A3"/>
<path d="M117.367 201H115.398V189.625H117.367V201ZM129.82 201H127.844L122.773 192.93V201H120.797V189.625H122.773L127.859 197.727V189.625H129.82V201Z" fill="#6984A3"/>
<path d="M111.75 273V261.625H115.648C116.935 261.625 117.914 261.883 118.586 262.398C119.258 262.914 119.594 263.682 119.594 264.703C119.594 265.224 119.453 265.693 119.172 266.109C118.891 266.526 118.479 266.849 117.938 267.078C118.552 267.245 119.026 267.56 119.359 268.023C119.698 268.482 119.867 269.034 119.867 269.68C119.867 270.747 119.523 271.568 118.836 272.141C118.154 272.714 117.174 273 115.898 273H111.75ZM113.727 267.867V271.422H115.922C116.542 271.422 117.026 271.268 117.375 270.961C117.724 270.654 117.898 270.227 117.898 269.68C117.898 268.497 117.294 267.893 116.086 267.867H113.727ZM113.727 266.414H115.664C116.279 266.414 116.758 266.276 117.102 266C117.451 265.719 117.625 265.323 117.625 264.812C117.625 264.25 117.464 263.844 117.141 263.594C116.823 263.344 116.326 263.219 115.648 263.219H113.727V266.414ZM126.117 267.016L128.734 261.625H130.922L127.109 268.812V273H125.125V268.812L121.305 261.625H123.5L126.117 267.016Z" fill="#6984A3"/>
<path d="M225.062 129H223.555L217.828 120.234V129H216.32V117.625H217.828L223.57 126.43V117.625H225.062V129ZM232.891 124C232.589 124.359 232.227 124.648 231.805 124.867C231.388 125.086 230.93 125.195 230.43 125.195C229.773 125.195 229.201 125.034 228.711 124.711C228.227 124.388 227.852 123.935 227.586 123.352C227.32 122.763 227.188 122.115 227.188 121.406C227.188 120.646 227.331 119.961 227.617 119.352C227.909 118.742 228.32 118.276 228.852 117.953C229.383 117.63 230.003 117.469 230.711 117.469C231.836 117.469 232.721 117.891 233.367 118.734C234.018 119.573 234.344 120.719 234.344 122.172V122.594C234.344 124.807 233.906 126.424 233.031 127.445C232.156 128.461 230.836 128.982 229.07 129.008H228.789V127.789H229.094C230.286 127.768 231.203 127.458 231.844 126.859C232.484 126.255 232.833 125.302 232.891 124ZM230.664 124C231.148 124 231.594 123.852 232 123.555C232.411 123.258 232.711 122.891 232.898 122.453V121.875C232.898 120.927 232.693 120.156 232.281 119.562C231.87 118.969 231.349 118.672 230.719 118.672C230.083 118.672 229.573 118.917 229.188 119.406C228.802 119.891 228.609 120.531 228.609 121.328C228.609 122.104 228.794 122.745 229.164 123.25C229.539 123.75 230.039 124 230.664 124ZM237 123.297L237.578 117.625H243.406V118.961H238.805L238.461 122.062C239.018 121.734 239.651 121.57 240.359 121.57C241.396 121.57 242.219 121.914 242.828 122.602C243.438 123.284 243.742 124.208 243.742 125.375C243.742 126.547 243.424 127.471 242.789 128.148C242.159 128.82 241.276 129.156 240.141 129.156C239.135 129.156 238.315 128.878 237.68 128.32C237.044 127.763 236.682 126.992 236.594 126.008H237.961C238.049 126.659 238.281 127.151 238.656 127.484C239.031 127.812 239.526 127.977 240.141 127.977C240.812 127.977 241.339 127.747 241.719 127.289C242.104 126.831 242.297 126.198 242.297 125.391C242.297 124.63 242.089 124.021 241.672 123.562C241.26 123.099 240.711 122.867 240.023 122.867C239.393 122.867 238.898 123.005 238.539 123.281L238.156 123.594L237 123.297ZM251.602 117.625L255.32 126.906L259.039 117.625H260.984V129H259.484V124.57L259.625 119.789L255.891 129H254.742L251.016 119.812L251.164 124.57V129H249.664V117.625H251.602ZM268.625 129C268.542 128.833 268.474 128.536 268.422 128.109C267.75 128.807 266.948 129.156 266.016 129.156C265.182 129.156 264.497 128.922 263.961 128.453C263.43 127.979 263.164 127.38 263.164 126.656C263.164 125.776 263.497 125.094 264.164 124.609C264.836 124.12 265.779 123.875 266.992 123.875H268.398V123.211C268.398 122.706 268.247 122.305 267.945 122.008C267.643 121.706 267.198 121.555 266.609 121.555C266.094 121.555 265.661 121.685 265.312 121.945C264.964 122.206 264.789 122.521 264.789 122.891H263.336C263.336 122.469 263.484 122.062 263.781 121.672C264.083 121.276 264.49 120.964 265 120.734C265.516 120.505 266.081 120.391 266.695 120.391C267.669 120.391 268.432 120.635 268.984 121.125C269.536 121.609 269.823 122.279 269.844 123.133V127.023C269.844 127.799 269.943 128.417 270.141 128.875V129H268.625ZM266.227 127.898C266.68 127.898 267.109 127.781 267.516 127.547C267.922 127.312 268.216 127.008 268.398 126.633V124.898H267.266C265.495 124.898 264.609 125.417 264.609 126.453C264.609 126.906 264.76 127.26 265.062 127.516C265.365 127.771 265.753 127.898 266.227 127.898ZM277.031 126.758C277.031 126.367 276.883 126.065 276.586 125.852C276.294 125.633 275.781 125.445 275.047 125.289C274.318 125.133 273.737 124.945 273.305 124.727C272.878 124.508 272.56 124.247 272.352 123.945C272.148 123.643 272.047 123.284 272.047 122.867C272.047 122.174 272.339 121.589 272.922 121.109C273.51 120.63 274.26 120.391 275.172 120.391C276.13 120.391 276.906 120.638 277.5 121.133C278.099 121.628 278.398 122.26 278.398 123.031H276.945C276.945 122.635 276.776 122.294 276.438 122.008C276.104 121.721 275.682 121.578 275.172 121.578C274.646 121.578 274.234 121.693 273.938 121.922C273.641 122.151 273.492 122.451 273.492 122.82C273.492 123.169 273.63 123.432 273.906 123.609C274.182 123.786 274.68 123.956 275.398 124.117C276.122 124.279 276.708 124.471 277.156 124.695C277.604 124.919 277.935 125.19 278.148 125.508C278.367 125.82 278.477 126.203 278.477 126.656C278.477 127.411 278.174 128.018 277.57 128.477C276.966 128.93 276.182 129.156 275.219 129.156C274.542 129.156 273.943 129.036 273.422 128.797C272.901 128.557 272.492 128.224 272.195 127.797C271.904 127.365 271.758 126.898 271.758 126.398H273.203C273.229 126.883 273.422 127.268 273.781 127.555C274.146 127.836 274.625 127.977 275.219 127.977C275.766 127.977 276.203 127.867 276.531 127.648C276.865 127.424 277.031 127.128 277.031 126.758ZM282.719 125.086L281.812 126.031V129H280.367V117H281.812V124.258L282.586 123.328L285.219 120.547H286.977L283.688 124.078L287.359 129H285.664L282.719 125.086ZM293.391 126.758C293.391 126.367 293.242 126.065 292.945 125.852C292.654 125.633 292.141 125.445 291.406 125.289C290.677 125.133 290.096 124.945 289.664 124.727C289.237 124.508 288.919 124.247 288.711 123.945C288.508 123.643 288.406 123.284 288.406 122.867C288.406 122.174 288.698 121.589 289.281 121.109C289.87 120.63 290.62 120.391 291.531 120.391C292.49 120.391 293.266 120.638 293.859 121.133C294.458 121.628 294.758 122.26 294.758 123.031H293.305C293.305 122.635 293.135 122.294 292.797 122.008C292.464 121.721 292.042 121.578 291.531 121.578C291.005 121.578 290.594 121.693 290.297 121.922C290 122.151 289.852 122.451 289.852 122.82C289.852 123.169 289.99 123.432 290.266 123.609C290.542 123.786 291.039 123.956 291.758 124.117C292.482 124.279 293.068 124.471 293.516 124.695C293.964 124.919 294.294 125.19 294.508 125.508C294.727 125.82 294.836 126.203 294.836 126.656C294.836 127.411 294.534 128.018 293.93 128.477C293.326 128.93 292.542 129.156 291.578 129.156C290.901 129.156 290.302 129.036 289.781 128.797C289.26 128.557 288.852 128.224 288.555 127.797C288.263 127.365 288.117 126.898 288.117 126.398H289.562C289.589 126.883 289.781 127.268 290.141 127.555C290.505 127.836 290.984 127.977 291.578 127.977C292.125 127.977 292.562 127.867 292.891 127.648C293.224 127.424 293.391 127.128 293.391 126.758Z" fill="#FF5A5A"/>
<path d="M163.07 43.0156L165.688 37.625H167.875L164.062 44.8125V49H162.078V44.8125L158.258 37.625H160.453L163.07 43.0156ZM168.055 44.6953C168.055 43.8672 168.219 43.1224 168.547 42.4609C168.875 41.7943 169.336 41.2839 169.93 40.9297C170.523 40.5703 171.206 40.3906 171.977 40.3906C173.117 40.3906 174.042 40.7578 174.75 41.4922C175.464 42.2266 175.849 43.2005 175.906 44.4141L175.914 44.8594C175.914 45.6927 175.753 46.4375 175.43 47.0938C175.112 47.75 174.654 48.2578 174.055 48.6172C173.461 48.9766 172.773 49.1562 171.992 49.1562C170.799 49.1562 169.844 48.7604 169.125 47.9688C168.411 47.1719 168.055 46.112 168.055 44.7891V44.6953ZM169.953 44.8594C169.953 45.7292 170.133 46.4115 170.492 46.9062C170.852 47.3958 171.352 47.6406 171.992 47.6406C172.633 47.6406 173.13 47.3906 173.484 46.8906C173.844 46.3906 174.023 45.6589 174.023 44.6953C174.023 43.8411 173.839 43.1641 173.469 42.6641C173.104 42.1641 172.607 41.9141 171.977 41.9141C171.357 41.9141 170.865 42.1615 170.5 42.6562C170.135 43.1458 169.953 43.8802 169.953 44.8594ZM182.641 48.1719C182.083 48.8281 181.292 49.1562 180.266 49.1562C179.349 49.1562 178.654 48.888 178.18 48.3516C177.711 47.8151 177.477 47.0391 177.477 46.0234V40.5469H179.375V46C179.375 47.0729 179.82 47.6094 180.711 47.6094C181.633 47.6094 182.255 47.2786 182.578 46.6172V40.5469H184.477V49H182.688L182.641 48.1719ZM190.836 42.2812C190.586 42.2396 190.328 42.2188 190.062 42.2188C189.193 42.2188 188.607 42.5521 188.305 43.2188V49H186.406V40.5469H188.219L188.266 41.4922C188.724 40.7578 189.359 40.3906 190.172 40.3906C190.443 40.3906 190.667 40.4271 190.844 40.5L190.836 42.2812ZM200.383 44.6172H198.18V49H196.203V37.625H200.203C201.516 37.625 202.529 37.9193 203.242 38.5078C203.956 39.0964 204.312 39.9479 204.312 41.0625C204.312 41.8229 204.128 42.4609 203.758 42.9766C203.393 43.487 202.883 43.8802 202.227 44.1562L204.781 48.8984V49H202.664L200.383 44.6172ZM198.18 43.0312H200.211C200.878 43.0312 201.398 42.8646 201.773 42.5312C202.148 42.1927 202.336 41.7318 202.336 41.1484C202.336 40.5391 202.161 40.0677 201.812 39.7344C201.469 39.401 200.953 39.2292 200.266 39.2188H198.18V43.0312ZM209.727 49.1562C208.523 49.1562 207.547 48.7786 206.797 48.0234C206.052 47.263 205.68 46.2526 205.68 44.9922V44.7578C205.68 43.9141 205.841 43.1615 206.164 42.5C206.492 41.8333 206.951 41.3151 207.539 40.9453C208.128 40.5755 208.784 40.3906 209.508 40.3906C210.659 40.3906 211.547 40.7578 212.172 41.4922C212.802 42.2266 213.117 43.2656 213.117 44.6094V45.375H207.594C207.651 46.0729 207.883 46.625 208.289 47.0312C208.701 47.4375 209.216 47.6406 209.836 47.6406C210.706 47.6406 211.414 47.2891 211.961 46.5859L212.984 47.5625C212.646 48.0677 212.193 48.4609 211.625 48.7422C211.062 49.0182 210.43 49.1562 209.727 49.1562ZM209.5 41.9141C208.979 41.9141 208.557 42.0964 208.234 42.4609C207.917 42.8255 207.714 43.3333 207.625 43.9844H211.242V43.8438C211.201 43.2083 211.031 42.7292 210.734 42.4062C210.438 42.0781 210.026 41.9141 209.5 41.9141ZM214.242 44.7031C214.242 43.3802 214.544 42.3307 215.148 41.5547C215.753 40.7786 216.57 40.3906 217.602 40.3906C218.544 40.3906 219.292 40.7214 219.844 41.3828L219.953 40.5469H221.641V52.25H219.742V48.2812C219.19 48.8646 218.471 49.1562 217.586 49.1562C216.576 49.1562 215.766 48.763 215.156 47.9766C214.547 47.1849 214.242 46.0938 214.242 44.7031ZM216.141 44.8672C216.141 45.7318 216.31 46.4115 216.648 46.9062C216.992 47.3958 217.466 47.6406 218.07 47.6406C218.82 47.6406 219.378 47.3203 219.742 46.6797V42.8359C219.378 42.2214 218.826 41.9141 218.086 41.9141C217.482 41.9141 217.005 42.1562 216.656 42.6406C216.312 43.125 216.141 43.8672 216.141 44.8672ZM228.812 48.1719C228.255 48.8281 227.464 49.1562 226.438 49.1562C225.521 49.1562 224.826 48.888 224.352 48.3516C223.883 47.8151 223.648 47.0391 223.648 46.0234V40.5469H225.547V46C225.547 47.0729 225.992 47.6094 226.883 47.6094C227.805 47.6094 228.427 47.2786 228.75 46.6172V40.5469H230.648V49H228.859L228.812 48.1719ZM236.305 49.1562C235.102 49.1562 234.125 48.7786 233.375 48.0234C232.63 47.263 232.258 46.2526 232.258 44.9922V44.7578C232.258 43.9141 232.419 43.1615 232.742 42.5C233.07 41.8333 233.529 41.3151 234.117 40.9453C234.706 40.5755 235.362 40.3906 236.086 40.3906C237.237 40.3906 238.125 40.7578 238.75 41.4922C239.38 42.2266 239.695 43.2656 239.695 44.6094V45.375H234.172C234.229 46.0729 234.461 46.625 234.867 47.0312C235.279 47.4375 235.794 47.6406 236.414 47.6406C237.284 47.6406 237.992 47.2891 238.539 46.5859L239.562 47.5625C239.224 48.0677 238.771 48.4609 238.203 48.7422C237.641 49.0182 237.008 49.1562 236.305 49.1562ZM236.078 41.9141C235.557 41.9141 235.135 42.0964 234.812 42.4609C234.495 42.8255 234.292 43.3333 234.203 43.9844H237.82V43.8438C237.779 43.2083 237.609 42.7292 237.312 42.4062C237.016 42.0781 236.604 41.9141 236.078 41.9141ZM245.914 46.7031C245.914 46.3646 245.773 46.1068 245.492 45.9297C245.216 45.7526 244.755 45.5964 244.109 45.4609C243.464 45.3255 242.924 45.1536 242.492 44.9453C241.544 44.487 241.07 43.8229 241.07 42.9531C241.07 42.224 241.378 41.6146 241.992 41.125C242.607 40.6354 243.388 40.3906 244.336 40.3906C245.346 40.3906 246.161 40.6406 246.781 41.1406C247.406 41.6406 247.719 42.2891 247.719 43.0859H245.82C245.82 42.7214 245.685 42.4193 245.414 42.1797C245.143 41.9349 244.784 41.8125 244.336 41.8125C243.919 41.8125 243.578 41.9089 243.312 42.1016C243.052 42.2943 242.922 42.5521 242.922 42.875C242.922 43.1667 243.044 43.3932 243.289 43.5547C243.534 43.7161 244.029 43.8802 244.773 44.0469C245.518 44.2083 246.102 44.4036 246.523 44.6328C246.951 44.8568 247.266 45.1276 247.469 45.4453C247.677 45.763 247.781 46.1484 247.781 46.6016C247.781 47.362 247.466 47.9792 246.836 48.4531C246.206 48.9219 245.38 49.1562 244.359 49.1562C243.667 49.1562 243.049 49.0312 242.508 48.7812C241.966 48.5312 241.544 48.1875 241.242 47.75C240.94 47.3125 240.789 46.8411 240.789 46.3359H242.633C242.659 46.7839 242.828 47.1302 243.141 47.375C243.453 47.6146 243.867 47.7344 244.383 47.7344C244.883 47.7344 245.263 47.6406 245.523 47.4531C245.784 47.2604 245.914 47.0104 245.914 46.7031ZM251.82 38.4922V40.5469H253.312V41.9531H251.82V46.6719C251.82 46.9948 251.883 47.2292 252.008 47.375C252.138 47.5156 252.367 47.5859 252.695 47.5859C252.914 47.5859 253.135 47.5599 253.359 47.5078V48.9766C252.927 49.0964 252.51 49.1562 252.109 49.1562C250.651 49.1562 249.922 48.3516 249.922 46.7422V41.9531H248.531V40.5469H249.922V38.4922H251.82Z" fill="#304256"/>
<path d="M217.828 199.773H223.219V201H216.32V189.625H217.828V199.773ZM224.32 196.695C224.32 195.867 224.482 195.122 224.805 194.461C225.133 193.799 225.586 193.289 226.164 192.93C226.747 192.57 227.411 192.391 228.156 192.391C229.307 192.391 230.237 192.789 230.945 193.586C231.659 194.383 232.016 195.443 232.016 196.766V196.867C232.016 197.69 231.857 198.43 231.539 199.086C231.227 199.737 230.776 200.245 230.188 200.609C229.604 200.974 228.932 201.156 228.172 201.156C227.026 201.156 226.096 200.758 225.383 199.961C224.674 199.164 224.32 198.109 224.32 196.797V196.695ZM225.773 196.867C225.773 197.805 225.99 198.557 226.422 199.125C226.859 199.693 227.443 199.977 228.172 199.977C228.906 199.977 229.49 199.69 229.922 199.117C230.354 198.539 230.57 197.732 230.57 196.695C230.57 195.768 230.349 195.018 229.906 194.445C229.469 193.867 228.885 193.578 228.156 193.578C227.443 193.578 226.867 193.862 226.43 194.43C225.992 194.997 225.773 195.81 225.773 196.867ZM238.75 198.758C238.75 198.367 238.602 198.065 238.305 197.852C238.013 197.633 237.5 197.445 236.766 197.289C236.036 197.133 235.456 196.945 235.023 196.727C234.596 196.508 234.279 196.247 234.07 195.945C233.867 195.643 233.766 195.284 233.766 194.867C233.766 194.174 234.057 193.589 234.641 193.109C235.229 192.63 235.979 192.391 236.891 192.391C237.849 192.391 238.625 192.638 239.219 193.133C239.818 193.628 240.117 194.26 240.117 195.031H238.664C238.664 194.635 238.495 194.294 238.156 194.008C237.823 193.721 237.401 193.578 236.891 193.578C236.365 193.578 235.953 193.693 235.656 193.922C235.359 194.151 235.211 194.451 235.211 194.82C235.211 195.169 235.349 195.432 235.625 195.609C235.901 195.786 236.398 195.956 237.117 196.117C237.841 196.279 238.427 196.471 238.875 196.695C239.323 196.919 239.654 197.19 239.867 197.508C240.086 197.82 240.195 198.203 240.195 198.656C240.195 199.411 239.893 200.018 239.289 200.477C238.685 200.93 237.901 201.156 236.938 201.156C236.26 201.156 235.661 201.036 235.141 200.797C234.62 200.557 234.211 200.224 233.914 199.797C233.622 199.365 233.477 198.898 233.477 198.398H234.922C234.948 198.883 235.141 199.268 235.5 199.555C235.865 199.836 236.344 199.977 236.938 199.977C237.484 199.977 237.922 199.867 238.25 199.648C238.583 199.424 238.75 199.128 238.75 198.758ZM252.555 198.031H247.789L246.719 201H245.172L249.516 189.625H250.828L255.18 201H253.641L252.555 198.031ZM248.242 196.797H252.109L250.172 191.477L248.242 196.797ZM257.852 192.547L257.898 193.609C258.544 192.797 259.388 192.391 260.43 192.391C262.216 192.391 263.117 193.398 263.133 195.414V201H261.688V195.406C261.682 194.797 261.542 194.346 261.266 194.055C260.995 193.763 260.57 193.617 259.992 193.617C259.523 193.617 259.112 193.742 258.758 193.992C258.404 194.242 258.128 194.57 257.93 194.977V201H256.484V192.547H257.852ZM264.969 196.703C264.969 195.385 265.273 194.339 265.883 193.562C266.492 192.781 267.299 192.391 268.305 192.391C269.336 192.391 270.141 192.755 270.719 193.484L270.789 192.547H272.109V200.797C272.109 201.891 271.784 202.753 271.133 203.383C270.487 204.013 269.617 204.328 268.523 204.328C267.914 204.328 267.318 204.198 266.734 203.938C266.151 203.677 265.706 203.32 265.398 202.867L266.148 202C266.768 202.766 267.526 203.148 268.422 203.148C269.125 203.148 269.672 202.951 270.062 202.555C270.458 202.159 270.656 201.602 270.656 200.883V200.156C270.078 200.823 269.289 201.156 268.289 201.156C267.299 201.156 266.497 200.758 265.883 199.961C265.273 199.164 264.969 198.078 264.969 196.703ZM266.422 196.867C266.422 197.82 266.617 198.57 267.008 199.117C267.398 199.659 267.945 199.93 268.648 199.93C269.56 199.93 270.229 199.516 270.656 198.688V194.828C270.214 194.021 269.549 193.617 268.664 193.617C267.961 193.617 267.411 193.891 267.016 194.438C266.62 194.984 266.422 195.794 266.422 196.867ZM277.805 201.156C276.659 201.156 275.727 200.781 275.008 200.031C274.289 199.276 273.93 198.268 273.93 197.008V196.742C273.93 195.904 274.089 195.156 274.406 194.5C274.729 193.839 275.177 193.323 275.75 192.953C276.328 192.578 276.953 192.391 277.625 192.391C278.724 192.391 279.578 192.753 280.188 193.477C280.797 194.201 281.102 195.237 281.102 196.586V197.188H275.375C275.396 198.021 275.638 198.695 276.102 199.211C276.57 199.721 277.164 199.977 277.883 199.977C278.393 199.977 278.826 199.872 279.18 199.664C279.534 199.456 279.844 199.18 280.109 198.836L280.992 199.523C280.284 200.612 279.221 201.156 277.805 201.156ZM277.625 193.578C277.042 193.578 276.552 193.792 276.156 194.219C275.76 194.641 275.516 195.234 275.422 196H279.656V195.891C279.615 195.156 279.417 194.589 279.062 194.188C278.708 193.781 278.229 193.578 277.625 193.578ZM284.352 201H282.906V189H284.352V201ZM290.18 201.156C289.034 201.156 288.102 200.781 287.383 200.031C286.664 199.276 286.305 198.268 286.305 197.008V196.742C286.305 195.904 286.464 195.156 286.781 194.5C287.104 193.839 287.552 193.323 288.125 192.953C288.703 192.578 289.328 192.391 290 192.391C291.099 192.391 291.953 192.753 292.562 193.477C293.172 194.201 293.477 195.237 293.477 196.586V197.188H287.75C287.771 198.021 288.013 198.695 288.477 199.211C288.945 199.721 289.539 199.977 290.258 199.977C290.768 199.977 291.201 199.872 291.555 199.664C291.909 199.456 292.219 199.18 292.484 198.836L293.367 199.523C292.659 200.612 291.596 201.156 290.18 201.156ZM290 193.578C289.417 193.578 288.927 193.792 288.531 194.219C288.135 194.641 287.891 195.234 287.797 196H292.031V195.891C291.99 195.156 291.792 194.589 291.438 194.188C291.083 193.781 290.604 193.578 290 193.578ZM300.078 198.758C300.078 198.367 299.93 198.065 299.633 197.852C299.341 197.633 298.828 197.445 298.094 197.289C297.365 197.133 296.784 196.945 296.352 196.727C295.924 196.508 295.607 196.247 295.398 195.945C295.195 195.643 295.094 195.284 295.094 194.867C295.094 194.174 295.385 193.589 295.969 193.109C296.557 192.63 297.307 192.391 298.219 192.391C299.177 192.391 299.953 192.638 300.547 193.133C301.146 193.628 301.445 194.26 301.445 195.031H299.992C299.992 194.635 299.823 194.294 299.484 194.008C299.151 193.721 298.729 193.578 298.219 193.578C297.693 193.578 297.281 193.693 296.984 193.922C296.688 194.151 296.539 194.451 296.539 194.82C296.539 195.169 296.677 195.432 296.953 195.609C297.229 195.786 297.727 195.956 298.445 196.117C299.169 196.279 299.755 196.471 300.203 196.695C300.651 196.919 300.982 197.19 301.195 197.508C301.414 197.82 301.523 198.203 301.523 198.656C301.523 199.411 301.221 200.018 300.617 200.477C300.013 200.93 299.229 201.156 298.266 201.156C297.589 201.156 296.99 201.036 296.469 200.797C295.948 200.557 295.539 200.224 295.242 199.797C294.951 199.365 294.805 198.898 294.805 198.398H296.25C296.276 198.883 296.469 199.268 296.828 199.555C297.193 199.836 297.672 199.977 298.266 199.977C298.812 199.977 299.25 199.867 299.578 199.648C299.911 199.424 300.078 199.128 300.078 198.758ZM303.359 203.266L302.539 202.703C303.029 202.021 303.284 201.318 303.305 200.594V199.289H304.719V200.422C304.719 200.948 304.589 201.474 304.328 202C304.073 202.526 303.75 202.948 303.359 203.266ZM319.109 197.391C318.969 198.594 318.523 199.523 317.773 200.18C317.029 200.831 316.036 201.156 314.797 201.156C313.453 201.156 312.375 200.674 311.562 199.711C310.755 198.747 310.352 197.458 310.352 195.844V194.75C310.352 193.693 310.539 192.763 310.914 191.961C311.294 191.159 311.831 190.544 312.523 190.117C313.216 189.685 314.018 189.469 314.93 189.469C316.138 189.469 317.107 189.807 317.836 190.484C318.565 191.156 318.99 192.089 319.109 193.281H317.602C317.471 192.375 317.188 191.719 316.75 191.312C316.318 190.906 315.711 190.703 314.93 190.703C313.971 190.703 313.219 191.057 312.672 191.766C312.13 192.474 311.859 193.482 311.859 194.789V195.891C311.859 197.125 312.117 198.107 312.633 198.836C313.148 199.565 313.87 199.93 314.797 199.93C315.63 199.93 316.268 199.742 316.711 199.367C317.159 198.987 317.456 198.328 317.602 197.391H319.109ZM327.445 198.031H322.68L321.609 201H320.062L324.406 189.625H325.719L330.07 201H328.531L327.445 198.031ZM323.133 196.797H327L325.062 191.477L323.133 196.797Z" fill="#FF5A5A"/>
<path d="M225.062 273H223.555L217.828 264.234V273H216.32V261.625H217.828L223.57 270.43V261.625H225.062V273ZM231.008 273.156C229.862 273.156 228.93 272.781 228.211 272.031C227.492 271.276 227.133 270.268 227.133 269.008V268.742C227.133 267.904 227.292 267.156 227.609 266.5C227.932 265.839 228.38 265.323 228.953 264.953C229.531 264.578 230.156 264.391 230.828 264.391C231.927 264.391 232.781 264.753 233.391 265.477C234 266.201 234.305 267.237 234.305 268.586V269.188H228.578C228.599 270.021 228.841 270.695 229.305 271.211C229.773 271.721 230.367 271.977 231.086 271.977C231.596 271.977 232.029 271.872 232.383 271.664C232.737 271.456 233.047 271.18 233.312 270.836L234.195 271.523C233.487 272.612 232.424 273.156 231.008 273.156ZM230.828 265.578C230.245 265.578 229.755 265.792 229.359 266.219C228.964 266.641 228.719 267.234 228.625 268H232.859V267.891C232.818 267.156 232.62 266.589 232.266 266.188C231.911 265.781 231.432 265.578 230.828 265.578ZM238.82 267.633L240.695 264.547H242.383L239.617 268.727L242.469 273H240.797L238.844 269.836L236.891 273H235.211L238.062 268.727L235.297 264.547H236.969L238.82 267.633ZM245.883 262.5V264.547H247.461V265.664H245.883V270.906C245.883 271.245 245.953 271.5 246.094 271.672C246.234 271.839 246.474 271.922 246.812 271.922C246.979 271.922 247.208 271.891 247.5 271.828V273C247.12 273.104 246.75 273.156 246.391 273.156C245.745 273.156 245.258 272.961 244.93 272.57C244.602 272.18 244.438 271.625 244.438 270.906V265.664H242.898V264.547H244.438V262.5H245.883ZM255.805 269.414L256.023 270.914L256.344 269.562L258.594 261.625H259.859L262.055 269.562L262.367 270.938L262.609 269.406L264.375 261.625H265.883L263.125 273H261.758L259.414 264.711L259.234 263.844L259.055 264.711L256.625 273H255.258L252.508 261.625H254.008L255.805 269.414ZM270.586 273.156C269.44 273.156 268.508 272.781 267.789 272.031C267.07 271.276 266.711 270.268 266.711 269.008V268.742C266.711 267.904 266.87 267.156 267.188 266.5C267.51 265.839 267.958 265.323 268.531 264.953C269.109 264.578 269.734 264.391 270.406 264.391C271.505 264.391 272.359 264.753 272.969 265.477C273.578 266.201 273.883 267.237 273.883 268.586V269.188H268.156C268.177 270.021 268.419 270.695 268.883 271.211C269.352 271.721 269.945 271.977 270.664 271.977C271.174 271.977 271.607 271.872 271.961 271.664C272.315 271.456 272.625 271.18 272.891 270.836L273.773 271.523C273.065 272.612 272.003 273.156 270.586 273.156ZM270.406 265.578C269.823 265.578 269.333 265.792 268.938 266.219C268.542 266.641 268.297 267.234 268.203 268H272.438V267.891C272.396 267.156 272.198 266.589 271.844 266.188C271.49 265.781 271.01 265.578 270.406 265.578ZM275.211 268.703C275.211 267.406 275.518 266.365 276.133 265.578C276.747 264.786 277.552 264.391 278.547 264.391C279.536 264.391 280.32 264.729 280.898 265.406V261H282.344V273H281.016L280.945 272.094C280.367 272.802 279.562 273.156 278.531 273.156C277.552 273.156 276.753 272.755 276.133 271.953C275.518 271.151 275.211 270.104 275.211 268.812V268.703ZM276.656 268.867C276.656 269.826 276.854 270.576 277.25 271.117C277.646 271.659 278.193 271.93 278.891 271.93C279.807 271.93 280.477 271.518 280.898 270.695V266.812C280.466 266.016 279.802 265.617 278.906 265.617C278.198 265.617 277.646 265.891 277.25 266.438C276.854 266.984 276.656 267.794 276.656 268.867ZM285.961 264.547L286.008 265.609C286.654 264.797 287.497 264.391 288.539 264.391C290.326 264.391 291.227 265.398 291.242 267.414V273H289.797V267.406C289.792 266.797 289.651 266.346 289.375 266.055C289.104 265.763 288.68 265.617 288.102 265.617C287.633 265.617 287.221 265.742 286.867 265.992C286.513 266.242 286.237 266.57 286.039 266.977V273H284.594V264.547H285.961ZM296.93 273.156C295.784 273.156 294.852 272.781 294.133 272.031C293.414 271.276 293.055 270.268 293.055 269.008V268.742C293.055 267.904 293.214 267.156 293.531 266.5C293.854 265.839 294.302 265.323 294.875 264.953C295.453 264.578 296.078 264.391 296.75 264.391C297.849 264.391 298.703 264.753 299.312 265.477C299.922 266.201 300.227 267.237 300.227 268.586V269.188H294.5C294.521 270.021 294.763 270.695 295.227 271.211C295.695 271.721 296.289 271.977 297.008 271.977C297.518 271.977 297.951 271.872 298.305 271.664C298.659 271.456 298.969 271.18 299.234 270.836L300.117 271.523C299.409 272.612 298.346 273.156 296.93 273.156ZM296.75 265.578C296.167 265.578 295.677 265.792 295.281 266.219C294.885 266.641 294.641 267.234 294.547 268H298.781V267.891C298.74 267.156 298.542 266.589 298.188 266.188C297.833 265.781 297.354 265.578 296.75 265.578ZM306.828 270.758C306.828 270.367 306.68 270.065 306.383 269.852C306.091 269.633 305.578 269.445 304.844 269.289C304.115 269.133 303.534 268.945 303.102 268.727C302.674 268.508 302.357 268.247 302.148 267.945C301.945 267.643 301.844 267.284 301.844 266.867C301.844 266.174 302.135 265.589 302.719 265.109C303.307 264.63 304.057 264.391 304.969 264.391C305.927 264.391 306.703 264.638 307.297 265.133C307.896 265.628 308.195 266.26 308.195 267.031H306.742C306.742 266.635 306.573 266.294 306.234 266.008C305.901 265.721 305.479 265.578 304.969 265.578C304.443 265.578 304.031 265.693 303.734 265.922C303.438 266.151 303.289 266.451 303.289 266.82C303.289 267.169 303.427 267.432 303.703 267.609C303.979 267.786 304.477 267.956 305.195 268.117C305.919 268.279 306.505 268.471 306.953 268.695C307.401 268.919 307.732 269.19 307.945 269.508C308.164 269.82 308.273 270.203 308.273 270.656C308.273 271.411 307.971 272.018 307.367 272.477C306.763 272.93 305.979 273.156 305.016 273.156C304.339 273.156 303.74 273.036 303.219 272.797C302.698 272.557 302.289 272.224 301.992 271.797C301.701 271.365 301.555 270.898 301.555 270.398H303C303.026 270.883 303.219 271.268 303.578 271.555C303.943 271.836 304.422 271.977 305.016 271.977C305.562 271.977 306 271.867 306.328 271.648C306.661 271.424 306.828 271.128 306.828 270.758ZM309.805 268.703C309.805 267.406 310.112 266.365 310.727 265.578C311.341 264.786 312.146 264.391 313.141 264.391C314.13 264.391 314.914 264.729 315.492 265.406V261H316.938V273H315.609L315.539 272.094C314.961 272.802 314.156 273.156 313.125 273.156C312.146 273.156 311.346 272.755 310.727 271.953C310.112 271.151 309.805 270.104 309.805 268.812V268.703ZM311.25 268.867C311.25 269.826 311.448 270.576 311.844 271.117C312.24 271.659 312.786 271.93 313.484 271.93C314.401 271.93 315.07 271.518 315.492 270.695V266.812C315.06 266.016 314.396 265.617 313.5 265.617C312.792 265.617 312.24 265.891 311.844 266.438C311.448 266.984 311.25 267.794 311.25 268.867ZM324.406 273C324.323 272.833 324.255 272.536 324.203 272.109C323.531 272.807 322.729 273.156 321.797 273.156C320.964 273.156 320.279 272.922 319.742 272.453C319.211 271.979 318.945 271.38 318.945 270.656C318.945 269.776 319.279 269.094 319.945 268.609C320.617 268.12 321.56 267.875 322.773 267.875H324.18V267.211C324.18 266.706 324.029 266.305 323.727 266.008C323.424 265.706 322.979 265.555 322.391 265.555C321.875 265.555 321.443 265.685 321.094 265.945C320.745 266.206 320.57 266.521 320.57 266.891H319.117C319.117 266.469 319.266 266.062 319.562 265.672C319.865 265.276 320.271 264.964 320.781 264.734C321.297 264.505 321.862 264.391 322.477 264.391C323.451 264.391 324.214 264.635 324.766 265.125C325.318 265.609 325.604 266.279 325.625 267.133V271.023C325.625 271.799 325.724 272.417 325.922 272.875V273H324.406ZM322.008 271.898C322.461 271.898 322.891 271.781 323.297 271.547C323.703 271.312 323.997 271.008 324.18 270.633V268.898H323.047C321.276 268.898 320.391 269.417 320.391 270.453C320.391 270.906 320.542 271.26 320.844 271.516C321.146 271.771 321.534 271.898 322.008 271.898ZM330.531 270.883L332.5 264.547H334.047L330.648 274.305C330.122 275.711 329.286 276.414 328.141 276.414L327.867 276.391L327.328 276.289V275.117L327.719 275.148C328.208 275.148 328.589 275.049 328.859 274.852C329.135 274.654 329.362 274.292 329.539 273.766L329.859 272.906L326.844 264.547H328.422L330.531 270.883Z" fill="#FF5A5A"/>
<path d="M193.859 193C193.859 194.574 192.575 195.857 191.001 195.857C189.428 195.857 188.144 194.574 188.144 193C188.144 191.426 189.428 190.143 191.001 190.143C192.575 190.143 193.859 191.426 193.859 193ZM196.716 193C196.716 189.842 194.16 187.286 191.001 187.286C187.843 187.286 185.287 189.842 185.287 193C185.287 193.681 185.365 194.384 185.655 194.998L189.729 203.636C189.952 204.127 190.466 204.429 191.001 204.429C191.537 204.429 192.051 204.127 192.285 203.636L196.347 194.998C196.638 194.384 196.716 193.681 196.716 193Z" fill="#FF5A5A"/>
<path d="M191 132.038V123.645L198.143 121.045V128.143L191 132.038ZM190.286 122.384L182.496 119.549L190.286 116.714L198.076 119.549L190.286 122.384ZM199.571 119.571C199.571 118.969 199.192 118.433 198.634 118.232L190.777 115.375C190.621 115.319 190.453 115.286 190.286 115.286C190.118 115.286 189.951 115.319 189.795 115.375L181.938 118.232C181.379 118.433 181 118.969 181 119.571V128.143C181 128.667 181.29 129.147 181.748 129.393L189.605 133.679C189.817 133.801 190.051 133.857 190.286 133.857C190.52 133.857 190.754 133.801 190.967 133.679L198.824 129.393C199.281 129.147 199.571 128.667 199.571 128.143V119.571Z" fill="#FF5A5A"/>
<path d="M192.426 263.929C192.426 263.728 192.27 263.571 192.069 263.571H191.354C191.153 263.571 190.997 263.728 190.997 263.929V267.857H188.497C188.296 267.857 188.14 268.013 188.14 268.214V268.929C188.14 269.129 188.296 269.286 188.497 269.286H192.069C192.27 269.286 192.426 269.129 192.426 268.929V263.929ZM197.069 267.857C197.069 271.205 194.345 273.929 190.997 273.929C187.649 273.929 184.926 271.205 184.926 267.857C184.926 264.509 187.649 261.786 190.997 261.786C194.345 261.786 197.069 264.509 197.069 267.857ZM199.569 267.857C199.569 263.125 195.729 259.286 190.997 259.286C186.265 259.286 182.426 263.125 182.426 267.857C182.426 272.589 186.265 276.429 190.997 276.429C195.729 276.429 199.569 272.589 199.569 267.857Z" fill="#FF5A5A"/>
<line x1="16" y1="71" x2="396" y2="71" stroke="#EAF2FD" stroke-width="2"/>
<defs>
<filter id="filter0_d" x="6" y="12" width="400" height="324" filterUnits="userSpaceOnUse" color-interpolation-filters="sRGB">
<feFlood flood-opacity="0" result="BackgroundImageFix"/>
<feColorMatrix in="SourceAlpha" type="matrix" values="0 0 0 0 0 0 0 0 0 0 0 0 0 0 0 0 0 0 127 0"/>
<feOffset dy="6"/>
<feGaussianBlur stdDeviation="4"/>
<feColorMatrix type="matrix" values="0 0 0 0 0.189684 0 0 0 0 0.258371 0 0 0 0 0.339179 0 0 0 0.15 0"/>
<feBlend mode="normal" in2="BackgroundImageFix" result="effect1_dropShadow"/>
<feBlend mode="normal" in="SourceGraphic" in2="effect1_dropShadow" result="shape"/>
</filter>
</defs>
</svg>
