<svg width="864" height="300" viewBox="0 0 864 300" fill="none" xmlns="http://www.w3.org/2000/svg">
<g filter="url(#filter0_d)">
<rect x="16" y="16" width="800" height="268" rx="8" fill="white" stroke="#EAF2FD" stroke-width="2"/>
<g opacity="0.1">
<rect x="56" y="90" width="40" height="40" rx="4" fill="#43C849"/>
</g>
<path d="M82.9196 107.339C82.9196 107.116 82.8304 106.893 82.6696 106.732L81.4554 105.518C81.2946 105.357 81.0714 105.268 80.8482 105.268C80.625 105.268 80.4018 105.357 80.2411 105.518L74.3839 111.384L71.7589 108.75C71.5982 108.589 71.375 108.5 71.1518 108.5C70.9286 108.5 70.7054 108.589 70.5446 108.75L69.3304 109.964C69.1696 110.125 69.0804 110.348 69.0804 110.571C69.0804 110.795 69.1696 111.018 69.3304 111.179L72.5625 114.411L73.7768 115.625C73.9375 115.786 74.1607 115.875 74.3839 115.875C74.6071 115.875 74.8304 115.786 74.9911 115.625L76.2054 114.411L82.6696 107.946C82.8304 107.786 82.9196 107.562 82.9196 107.339Z" fill="#43C849"/>
<path d="M120.004 111.426H116.699V118H113.734V100.938H119.734C121.703 100.938 123.223 101.379 124.293 102.262C125.363 103.145 125.898 104.422 125.898 106.094C125.898 107.234 125.621 108.191 125.066 108.965C124.52 109.73 123.754 110.32 122.77 110.734L126.602 117.848V118H123.426L120.004 111.426ZM116.699 109.047H119.746C120.746 109.047 121.527 108.797 122.09 108.297C122.652 107.789 122.934 107.098 122.934 106.223C122.934 105.309 122.672 104.602 122.148 104.102C121.633 103.602 120.859 103.344 119.828 103.328H116.699V109.047ZM134.02 118.234C132.215 118.234 130.75 117.668 129.625 116.535C128.508 115.395 127.949 113.879 127.949 111.988V111.637C127.949 110.371 128.191 109.242 128.676 108.25C129.168 107.25 129.855 106.473 130.738 105.918C131.621 105.363 132.605 105.086 133.691 105.086C135.418 105.086 136.75 105.637 137.688 106.738C138.633 107.84 139.105 109.398 139.105 111.414V112.562H130.82C130.906 113.609 131.254 114.438 131.863 115.047C132.48 115.656 133.254 115.961 134.184 115.961C135.488 115.961 136.551 115.434 137.371 114.379L138.906 115.844C138.398 116.602 137.719 117.191 136.867 117.613C136.023 118.027 135.074 118.234 134.02 118.234ZM133.68 107.371C132.898 107.371 132.266 107.645 131.781 108.191C131.305 108.738 131 109.5 130.867 110.477H136.293V110.266C136.23 109.312 135.977 108.594 135.531 108.109C135.086 107.617 134.469 107.371 133.68 107.371ZM140.793 111.555C140.793 109.57 141.246 107.996 142.152 106.832C143.059 105.668 144.285 105.086 145.832 105.086C147.246 105.086 148.367 105.582 149.195 106.574L149.359 105.32H151.891V122.875H149.043V116.922C148.215 117.797 147.137 118.234 145.809 118.234C144.293 118.234 143.078 117.645 142.164 116.465C141.25 115.277 140.793 113.641 140.793 111.555ZM143.641 111.801C143.641 113.098 143.895 114.117 144.402 114.859C144.918 115.594 145.629 115.961 146.535 115.961C147.66 115.961 148.496 115.48 149.043 114.52V108.754C148.496 107.832 147.668 107.371 146.559 107.371C145.652 107.371 144.938 107.734 144.414 108.461C143.898 109.188 143.641 110.301 143.641 111.801ZM162.648 116.758C161.812 117.742 160.625 118.234 159.086 118.234C157.711 118.234 156.668 117.832 155.957 117.027C155.254 116.223 154.902 115.059 154.902 113.535V105.32H157.75V113.5C157.75 115.109 158.418 115.914 159.754 115.914C161.137 115.914 162.07 115.418 162.555 114.426V105.32H165.402V118H162.719L162.648 116.758ZM173.887 118.234C172.082 118.234 170.617 117.668 169.492 116.535C168.375 115.395 167.816 113.879 167.816 111.988V111.637C167.816 110.371 168.059 109.242 168.543 108.25C169.035 107.25 169.723 106.473 170.605 105.918C171.488 105.363 172.473 105.086 173.559 105.086C175.285 105.086 176.617 105.637 177.555 106.738C178.5 107.84 178.973 109.398 178.973 111.414V112.562H170.688C170.773 113.609 171.121 114.438 171.73 115.047C172.348 115.656 173.121 115.961 174.051 115.961C175.355 115.961 176.418 115.434 177.238 114.379L178.773 115.844C178.266 116.602 177.586 117.191 176.734 117.613C175.891 118.027 174.941 118.234 173.887 118.234ZM173.547 107.371C172.766 107.371 172.133 107.645 171.648 108.191C171.172 108.738 170.867 109.5 170.734 110.477H176.16V110.266C176.098 109.312 175.844 108.594 175.398 108.109C174.953 107.617 174.336 107.371 173.547 107.371ZM188.301 114.555C188.301 114.047 188.09 113.66 187.668 113.395C187.254 113.129 186.562 112.895 185.594 112.691C184.625 112.488 183.816 112.23 183.168 111.918C181.746 111.23 181.035 110.234 181.035 108.93C181.035 107.836 181.496 106.922 182.418 106.188C183.34 105.453 184.512 105.086 185.934 105.086C187.449 105.086 188.672 105.461 189.602 106.211C190.539 106.961 191.008 107.934 191.008 109.129H188.16C188.16 108.582 187.957 108.129 187.551 107.77C187.145 107.402 186.605 107.219 185.934 107.219C185.309 107.219 184.797 107.363 184.398 107.652C184.008 107.941 183.812 108.328 183.812 108.812C183.812 109.25 183.996 109.59 184.363 109.832C184.73 110.074 185.473 110.32 186.59 110.57C187.707 110.812 188.582 111.105 189.215 111.449C189.855 111.785 190.328 112.191 190.633 112.668C190.945 113.145 191.102 113.723 191.102 114.402C191.102 115.543 190.629 116.469 189.684 117.18C188.738 117.883 187.5 118.234 185.969 118.234C184.93 118.234 184.004 118.047 183.191 117.672C182.379 117.297 181.746 116.781 181.293 116.125C180.84 115.469 180.613 114.762 180.613 114.004H183.379C183.418 114.676 183.672 115.195 184.141 115.562C184.609 115.922 185.23 116.102 186.004 116.102C186.754 116.102 187.324 115.961 187.715 115.68C188.105 115.391 188.301 115.016 188.301 114.555ZM197.16 102.238V105.32H199.398V107.43H197.16V114.508C197.16 114.992 197.254 115.344 197.441 115.562C197.637 115.773 197.98 115.879 198.473 115.879C198.801 115.879 199.133 115.84 199.469 115.762V117.965C198.82 118.145 198.195 118.234 197.594 118.234C195.406 118.234 194.312 117.027 194.312 114.613V107.43H192.227V105.32H194.312V102.238H197.16ZM208.562 118V107.43H206.629V105.32H208.562V104.16C208.562 102.754 208.953 101.668 209.734 100.902C210.516 100.137 211.609 99.7539 213.016 99.7539C213.516 99.7539 214.047 99.8242 214.609 99.9648L214.539 102.191C214.227 102.129 213.863 102.098 213.449 102.098C212.09 102.098 211.41 102.797 211.41 104.195V105.32H213.988V107.43H211.41V118H208.562ZM215.535 111.543C215.535 110.301 215.781 109.184 216.273 108.191C216.766 107.191 217.457 106.426 218.348 105.895C219.238 105.355 220.262 105.086 221.418 105.086C223.129 105.086 224.516 105.637 225.578 106.738C226.648 107.84 227.227 109.301 227.312 111.121L227.324 111.789C227.324 113.039 227.082 114.156 226.598 115.141C226.121 116.125 225.434 116.887 224.535 117.426C223.645 117.965 222.613 118.234 221.441 118.234C219.652 118.234 218.219 117.641 217.141 116.453C216.07 115.258 215.535 113.668 215.535 111.684V111.543ZM218.383 111.789C218.383 113.094 218.652 114.117 219.191 114.859C219.73 115.594 220.48 115.961 221.441 115.961C222.402 115.961 223.148 115.586 223.68 114.836C224.219 114.086 224.488 112.988 224.488 111.543C224.488 110.262 224.211 109.246 223.656 108.496C223.109 107.746 222.363 107.371 221.418 107.371C220.488 107.371 219.75 107.742 219.203 108.484C218.656 109.219 218.383 110.32 218.383 111.789ZM236.371 107.922C235.996 107.859 235.609 107.828 235.211 107.828C233.906 107.828 233.027 108.328 232.574 109.328V118H229.727V105.32H232.445L232.516 106.738C233.203 105.637 234.156 105.086 235.375 105.086C235.781 105.086 236.117 105.141 236.383 105.25L236.371 107.922ZM257.957 118H254.992L247.387 105.895V118H244.422V100.938H247.387L255.016 113.09V100.938H257.957V118ZM269.078 110.863C268.125 111.871 267.012 112.375 265.738 112.375C264.238 112.375 263.043 111.852 262.152 110.805C261.262 109.75 260.816 108.367 260.816 106.656C260.816 105.531 261.043 104.512 261.496 103.598C261.949 102.684 262.594 101.973 263.43 101.465C264.266 100.957 265.234 100.703 266.336 100.703C268.055 100.703 269.418 101.344 270.426 102.625C271.434 103.906 271.938 105.621 271.938 107.77V108.566C271.938 111.645 271.242 113.992 269.852 115.609C268.461 117.227 266.387 118.047 263.629 118.07H263.289V115.715H263.699C265.379 115.691 266.668 115.289 267.566 114.508C268.465 113.719 268.969 112.504 269.078 110.863ZM266.336 110.148C266.906 110.148 267.441 109.984 267.941 109.656C268.441 109.328 268.828 108.875 269.102 108.297V107.184C269.102 105.926 268.844 104.914 268.328 104.148C267.812 103.383 267.145 103 266.324 103C265.504 103 264.848 103.34 264.355 104.02C263.871 104.691 263.629 105.543 263.629 106.574C263.629 107.645 263.875 108.508 264.367 109.164C264.859 109.82 265.516 110.148 266.336 110.148ZM275.406 109.539L276.332 100.938H285.496V103.398H278.699L278.23 107.477C279.02 107.023 279.91 106.797 280.902 106.797C282.527 106.797 283.789 107.316 284.688 108.355C285.594 109.395 286.047 110.793 286.047 112.551C286.047 114.285 285.547 115.668 284.547 116.699C283.547 117.723 282.176 118.234 280.434 118.234C278.871 118.234 277.574 117.793 276.543 116.91C275.52 116.02 274.965 114.848 274.879 113.395H277.633C277.742 114.223 278.039 114.859 278.523 115.305C279.008 115.742 279.641 115.961 280.422 115.961C281.297 115.961 281.977 115.648 282.461 115.023C282.953 114.398 283.199 113.547 283.199 112.469C283.199 111.43 282.93 110.609 282.391 110.008C281.852 109.398 281.109 109.094 280.164 109.094C279.648 109.094 279.211 109.164 278.852 109.305C278.492 109.438 278.102 109.703 277.68 110.102L275.406 109.539ZM298.562 100.938L303.484 114.016L308.395 100.938H312.227V118H309.273V112.375L309.566 104.852L304.527 118H302.406L297.379 104.863L297.672 112.375V118H294.719V100.938H298.562ZM323.043 118C322.918 117.758 322.809 117.363 322.715 116.816C321.809 117.762 320.699 118.234 319.387 118.234C318.113 118.234 317.074 117.871 316.27 117.145C315.465 116.418 315.062 115.52 315.062 114.449C315.062 113.098 315.562 112.062 316.562 111.344C317.57 110.617 319.008 110.254 320.875 110.254H322.621V109.422C322.621 108.766 322.438 108.242 322.07 107.852C321.703 107.453 321.145 107.254 320.395 107.254C319.746 107.254 319.215 107.418 318.801 107.746C318.387 108.066 318.18 108.477 318.18 108.977H315.332C315.332 108.281 315.562 107.633 316.023 107.031C316.484 106.422 317.109 105.945 317.898 105.602C318.695 105.258 319.582 105.086 320.559 105.086C322.043 105.086 323.227 105.461 324.109 106.211C324.992 106.953 325.445 108 325.469 109.352V115.07C325.469 116.211 325.629 117.121 325.949 117.801V118H323.043ZM319.914 115.949C320.477 115.949 321.004 115.812 321.496 115.539C321.996 115.266 322.371 114.898 322.621 114.438V112.047H321.086C320.031 112.047 319.238 112.23 318.707 112.598C318.176 112.965 317.91 113.484 317.91 114.156C317.91 114.703 318.09 115.141 318.449 115.469C318.816 115.789 319.305 115.949 319.914 115.949ZM335.559 114.555C335.559 114.047 335.348 113.66 334.926 113.395C334.512 113.129 333.82 112.895 332.852 112.691C331.883 112.488 331.074 112.23 330.426 111.918C329.004 111.23 328.293 110.234 328.293 108.93C328.293 107.836 328.754 106.922 329.676 106.188C330.598 105.453 331.77 105.086 333.191 105.086C334.707 105.086 335.93 105.461 336.859 106.211C337.797 106.961 338.266 107.934 338.266 109.129H335.418C335.418 108.582 335.215 108.129 334.809 107.77C334.402 107.402 333.863 107.219 333.191 107.219C332.566 107.219 332.055 107.363 331.656 107.652C331.266 107.941 331.07 108.328 331.07 108.812C331.07 109.25 331.254 109.59 331.621 109.832C331.988 110.074 332.73 110.32 333.848 110.57C334.965 110.812 335.84 111.105 336.473 111.449C337.113 111.785 337.586 112.191 337.891 112.668C338.203 113.145 338.359 113.723 338.359 114.402C338.359 115.543 337.887 116.469 336.941 117.18C335.996 117.883 334.758 118.234 333.227 118.234C332.188 118.234 331.262 118.047 330.449 117.672C329.637 117.297 329.004 116.781 328.551 116.125C328.098 115.469 327.871 114.762 327.871 114.004H330.637C330.676 114.676 330.93 115.195 331.398 115.562C331.867 115.922 332.488 116.102 333.262 116.102C334.012 116.102 334.582 115.961 334.973 115.68C335.363 115.391 335.559 115.016 335.559 114.555ZM344.969 112.562L343.703 113.863V118H340.855V100H343.703V110.383L344.594 109.27L348.098 105.32H351.52L346.809 110.605L352.023 118H348.73L344.969 112.562ZM360.496 114.555C360.496 114.047 360.285 113.66 359.863 113.395C359.449 113.129 358.758 112.895 357.789 112.691C356.82 112.488 356.012 112.23 355.363 111.918C353.941 111.23 353.23 110.234 353.23 108.93C353.23 107.836 353.691 106.922 354.613 106.188C355.535 105.453 356.707 105.086 358.129 105.086C359.645 105.086 360.867 105.461 361.797 106.211C362.734 106.961 363.203 107.934 363.203 109.129H360.355C360.355 108.582 360.152 108.129 359.746 107.77C359.34 107.402 358.801 107.219 358.129 107.219C357.504 107.219 356.992 107.363 356.594 107.652C356.203 107.941 356.008 108.328 356.008 108.812C356.008 109.25 356.191 109.59 356.559 109.832C356.926 110.074 357.668 110.32 358.785 110.57C359.902 110.812 360.777 111.105 361.41 111.449C362.051 111.785 362.523 112.191 362.828 112.668C363.141 113.145 363.297 113.723 363.297 114.402C363.297 115.543 362.824 116.469 361.879 117.18C360.934 117.883 359.695 118.234 358.164 118.234C357.125 118.234 356.199 118.047 355.387 117.672C354.574 117.297 353.941 116.781 353.488 116.125C353.035 115.469 352.809 114.762 352.809 114.004H355.574C355.613 114.676 355.867 115.195 356.336 115.562C356.805 115.922 357.426 116.102 358.199 116.102C358.949 116.102 359.52 115.961 359.91 115.68C360.301 115.391 360.496 115.016 360.496 114.555Z" fill="#304256"/>
<path d="M385.242 116.16H393.328V118H382.98V100.938H385.242V116.16ZM394.98 111.543C394.98 110.301 395.223 109.184 395.707 108.191C396.199 107.199 396.879 106.434 397.746 105.895C398.621 105.355 399.617 105.086 400.734 105.086C402.461 105.086 403.855 105.684 404.918 106.879C405.988 108.074 406.523 109.664 406.523 111.648V111.801C406.523 113.035 406.285 114.145 405.809 115.129C405.34 116.105 404.664 116.867 403.781 117.414C402.906 117.961 401.898 118.234 400.758 118.234C399.039 118.234 397.645 117.637 396.574 116.441C395.512 115.246 394.98 113.664 394.98 111.695V111.543ZM397.16 111.801C397.16 113.207 397.484 114.336 398.133 115.188C398.789 116.039 399.664 116.465 400.758 116.465C401.859 116.465 402.734 116.035 403.383 115.176C404.031 114.309 404.355 113.098 404.355 111.543C404.355 110.152 404.023 109.027 403.359 108.168C402.703 107.301 401.828 106.867 400.734 106.867C399.664 106.867 398.801 107.293 398.145 108.145C397.488 108.996 397.16 110.215 397.16 111.801ZM416.625 114.637C416.625 114.051 416.402 113.598 415.957 113.277C415.52 112.949 414.75 112.668 413.648 112.434C412.555 112.199 411.684 111.918 411.035 111.59C410.395 111.262 409.918 110.871 409.605 110.418C409.301 109.965 409.148 109.426 409.148 108.801C409.148 107.762 409.586 106.883 410.461 106.164C411.344 105.445 412.469 105.086 413.836 105.086C415.273 105.086 416.438 105.457 417.328 106.199C418.227 106.941 418.676 107.891 418.676 109.047H416.496C416.496 108.453 416.242 107.941 415.734 107.512C415.234 107.082 414.602 106.867 413.836 106.867C413.047 106.867 412.43 107.039 411.984 107.383C411.539 107.727 411.316 108.176 411.316 108.73C411.316 109.254 411.523 109.648 411.938 109.914C412.352 110.18 413.098 110.434 414.176 110.676C415.262 110.918 416.141 111.207 416.812 111.543C417.484 111.879 417.98 112.285 418.301 112.762C418.629 113.23 418.793 113.805 418.793 114.484C418.793 115.617 418.34 116.527 417.434 117.215C416.527 117.895 415.352 118.234 413.906 118.234C412.891 118.234 411.992 118.055 411.211 117.695C410.43 117.336 409.816 116.836 409.371 116.195C408.934 115.547 408.715 114.848 408.715 114.098H410.883C410.922 114.824 411.211 115.402 411.75 115.832C412.297 116.254 413.016 116.465 413.906 116.465C414.727 116.465 415.383 116.301 415.875 115.973C416.375 115.637 416.625 115.191 416.625 114.637ZM437.332 113.547H430.184L428.578 118H426.258L432.773 100.938H434.742L441.27 118H438.961L437.332 113.547ZM430.863 111.695H436.664L433.758 103.715L430.863 111.695ZM445.277 105.32L445.348 106.914C446.316 105.695 447.582 105.086 449.145 105.086C451.824 105.086 453.176 106.598 453.199 109.621V118H451.031V109.609C451.023 108.695 450.812 108.02 450.398 107.582C449.992 107.145 449.355 106.926 448.488 106.926C447.785 106.926 447.168 107.113 446.637 107.488C446.105 107.863 445.691 108.355 445.395 108.965V118H443.227V105.32H445.277ZM455.953 111.555C455.953 109.578 456.41 108.008 457.324 106.844C458.238 105.672 459.449 105.086 460.957 105.086C462.504 105.086 463.711 105.633 464.578 106.727L464.684 105.32H466.664V117.695C466.664 119.336 466.176 120.629 465.199 121.574C464.23 122.52 462.926 122.992 461.285 122.992C460.371 122.992 459.477 122.797 458.602 122.406C457.727 122.016 457.059 121.48 456.598 120.801L457.723 119.5C458.652 120.648 459.789 121.223 461.133 121.223C462.188 121.223 463.008 120.926 463.594 120.332C464.188 119.738 464.484 118.902 464.484 117.824V116.734C463.617 117.734 462.434 118.234 460.934 118.234C459.449 118.234 458.246 117.637 457.324 116.441C456.41 115.246 455.953 113.617 455.953 111.555ZM458.133 111.801C458.133 113.23 458.426 114.355 459.012 115.176C459.598 115.988 460.418 116.395 461.473 116.395C462.84 116.395 463.844 115.773 464.484 114.531V108.742C463.82 107.531 462.824 106.926 461.496 106.926C460.441 106.926 459.617 107.336 459.023 108.156C458.43 108.977 458.133 110.191 458.133 111.801ZM475.207 118.234C473.488 118.234 472.09 117.672 471.012 116.547C469.934 115.414 469.395 113.902 469.395 112.012V111.613C469.395 110.355 469.633 109.234 470.109 108.25C470.594 107.258 471.266 106.484 472.125 105.93C472.992 105.367 473.93 105.086 474.938 105.086C476.586 105.086 477.867 105.629 478.781 106.715C479.695 107.801 480.152 109.355 480.152 111.379V112.281H471.562C471.594 113.531 471.957 114.543 472.652 115.316C473.355 116.082 474.246 116.465 475.324 116.465C476.09 116.465 476.738 116.309 477.27 115.996C477.801 115.684 478.266 115.27 478.664 114.754L479.988 115.785C478.926 117.418 477.332 118.234 475.207 118.234ZM474.938 106.867C474.062 106.867 473.328 107.188 472.734 107.828C472.141 108.461 471.773 109.352 471.633 110.5H477.984V110.336C477.922 109.234 477.625 108.383 477.094 107.781C476.562 107.172 475.844 106.867 474.938 106.867ZM485.027 118H482.859V100H485.027V118ZM493.77 118.234C492.051 118.234 490.652 117.672 489.574 116.547C488.496 115.414 487.957 113.902 487.957 112.012V111.613C487.957 110.355 488.195 109.234 488.672 108.25C489.156 107.258 489.828 106.484 490.688 105.93C491.555 105.367 492.492 105.086 493.5 105.086C495.148 105.086 496.43 105.629 497.344 106.715C498.258 107.801 498.715 109.355 498.715 111.379V112.281H490.125C490.156 113.531 490.52 114.543 491.215 115.316C491.918 116.082 492.809 116.465 493.887 116.465C494.652 116.465 495.301 116.309 495.832 115.996C496.363 115.684 496.828 115.27 497.227 114.754L498.551 115.785C497.488 117.418 495.895 118.234 493.77 118.234ZM493.5 106.867C492.625 106.867 491.891 107.188 491.297 107.828C490.703 108.461 490.336 109.352 490.195 110.5H496.547V110.336C496.484 109.234 496.188 108.383 495.656 107.781C495.125 107.172 494.406 106.867 493.5 106.867ZM508.617 114.637C508.617 114.051 508.395 113.598 507.949 113.277C507.512 112.949 506.742 112.668 505.641 112.434C504.547 112.199 503.676 111.918 503.027 111.59C502.387 111.262 501.91 110.871 501.598 110.418C501.293 109.965 501.141 109.426 501.141 108.801C501.141 107.762 501.578 106.883 502.453 106.164C503.336 105.445 504.461 105.086 505.828 105.086C507.266 105.086 508.43 105.457 509.32 106.199C510.219 106.941 510.668 107.891 510.668 109.047H508.488C508.488 108.453 508.234 107.941 507.727 107.512C507.227 107.082 506.594 106.867 505.828 106.867C505.039 106.867 504.422 107.039 503.977 107.383C503.531 107.727 503.309 108.176 503.309 108.73C503.309 109.254 503.516 109.648 503.93 109.914C504.344 110.18 505.09 110.434 506.168 110.676C507.254 110.918 508.133 111.207 508.805 111.543C509.477 111.879 509.973 112.285 510.293 112.762C510.621 113.23 510.785 113.805 510.785 114.484C510.785 115.617 510.332 116.527 509.426 117.215C508.52 117.895 507.344 118.234 505.898 118.234C504.883 118.234 503.984 118.055 503.203 117.695C502.422 117.336 501.809 116.836 501.363 116.195C500.926 115.547 500.707 114.848 500.707 114.098H502.875C502.914 114.824 503.203 115.402 503.742 115.832C504.289 116.254 505.008 116.465 505.898 116.465C506.719 116.465 507.375 116.301 507.867 115.973C508.367 115.637 508.617 115.191 508.617 114.637ZM513.539 121.398L512.309 120.555C513.043 119.531 513.426 118.477 513.457 117.391V115.434H515.578V117.133C515.578 117.922 515.383 118.711 514.992 119.5C514.609 120.289 514.125 120.922 513.539 121.398ZM537.164 112.586C536.953 114.391 536.285 115.785 535.16 116.77C534.043 117.746 532.555 118.234 530.695 118.234C528.68 118.234 527.062 117.512 525.844 116.066C524.633 114.621 524.027 112.688 524.027 110.266V108.625C524.027 107.039 524.309 105.645 524.871 104.441C525.441 103.238 526.246 102.316 527.285 101.676C528.324 101.027 529.527 100.703 530.895 100.703C532.707 100.703 534.16 101.211 535.254 102.227C536.348 103.234 536.984 104.633 537.164 106.422H534.902C534.707 105.062 534.281 104.078 533.625 103.469C532.977 102.859 532.066 102.555 530.895 102.555C529.457 102.555 528.328 103.086 527.508 104.148C526.695 105.211 526.289 106.723 526.289 108.684V110.336C526.289 112.188 526.676 113.66 527.449 114.754C528.223 115.848 529.305 116.395 530.695 116.395C531.945 116.395 532.902 116.113 533.566 115.551C534.238 114.98 534.684 113.992 534.902 112.586H537.164ZM549.668 113.547H542.52L540.914 118H538.594L545.109 100.938H547.078L553.605 118H551.297L549.668 113.547ZM543.199 111.695H549L546.094 103.715L543.199 111.695Z" fill="#A5B9D0"/>
<path d="M61.9922 245H60.1016V235.867L57.3125 236.82V235.219L61.75 233.586H61.9922V245ZM73.3594 240.211C73.3594 241.846 73.0521 243.081 72.4375 243.914C71.8281 244.742 70.8984 245.156 69.6484 245.156C68.4193 245.156 67.4922 244.753 66.8672 243.945C66.2474 243.133 65.9297 241.932 65.9141 240.344V238.375C65.9141 236.74 66.2188 235.513 66.8281 234.695C67.4427 233.878 68.3776 233.469 69.6328 233.469C70.8776 233.469 71.8047 233.867 72.4141 234.664C73.0286 235.461 73.3438 236.654 73.3594 238.242V240.211ZM71.4609 238.086C71.4609 237.018 71.3151 236.237 71.0234 235.742C70.7318 235.242 70.2682 234.992 69.6328 234.992C69.013 234.992 68.5573 235.229 68.2656 235.703C67.974 236.172 67.8203 236.906 67.8047 237.906V240.484C67.8047 241.547 67.9531 242.339 68.25 242.859C68.5469 243.38 69.013 243.641 69.6484 243.641C70.2578 243.641 70.7083 243.401 71 242.922C71.2917 242.438 71.4453 241.682 71.4609 240.656V238.086ZM75.4297 247.562L74.4062 246.953C74.7083 246.479 74.9141 246.065 75.0234 245.711C75.138 245.362 75.1979 245.005 75.2031 244.641V243.164H76.9141L76.9062 244.531C76.901 245.083 76.7604 245.635 76.4844 246.188C76.2135 246.745 75.862 247.203 75.4297 247.562ZM85.9688 240.211C85.9688 241.846 85.6615 243.081 85.0469 243.914C84.4375 244.742 83.5078 245.156 82.2578 245.156C81.0286 245.156 80.1016 244.753 79.4766 243.945C78.8568 243.133 78.5391 241.932 78.5234 240.344V238.375C78.5234 236.74 78.8281 235.513 79.4375 234.695C80.0521 233.878 80.987 233.469 82.2422 233.469C83.487 233.469 84.4141 233.867 85.0234 234.664C85.638 235.461 85.9531 236.654 85.9688 238.242V240.211ZM84.0703 238.086C84.0703 237.018 83.9245 236.237 83.6328 235.742C83.3411 235.242 82.8776 234.992 82.2422 234.992C81.6224 234.992 81.1667 235.229 80.875 235.703C80.5833 236.172 80.4297 236.906 80.4141 237.906V240.484C80.4141 241.547 80.5625 242.339 80.8594 242.859C81.1562 243.38 81.6224 243.641 82.2578 243.641C82.8672 243.641 83.3177 243.401 83.6094 242.922C83.901 242.438 84.0547 241.682 84.0703 240.656V238.086ZM95.0625 240.211C95.0625 241.846 94.7552 243.081 94.1406 243.914C93.5312 244.742 92.6016 245.156 91.3516 245.156C90.1224 245.156 89.1953 244.753 88.5703 243.945C87.9505 243.133 87.6328 241.932 87.6172 240.344V238.375C87.6172 236.74 87.9219 235.513 88.5312 234.695C89.1458 233.878 90.0807 233.469 91.3359 233.469C92.5807 233.469 93.5078 233.867 94.1172 234.664C94.7318 235.461 95.0469 236.654 95.0625 238.242V240.211ZM93.1641 238.086C93.1641 237.018 93.0182 236.237 92.7266 235.742C92.4349 235.242 91.9714 234.992 91.3359 234.992C90.7161 234.992 90.2604 235.229 89.9688 235.703C89.6771 236.172 89.5234 236.906 89.5078 237.906V240.484C89.5078 241.547 89.6562 242.339 89.9531 242.859C90.25 243.38 90.7161 243.641 91.3516 243.641C91.9609 243.641 92.4115 243.401 92.7031 242.922C92.9948 242.438 93.1484 241.682 93.1641 240.656V238.086ZM104.156 240.211C104.156 241.846 103.849 243.081 103.234 243.914C102.625 244.742 101.695 245.156 100.445 245.156C99.2161 245.156 98.2891 244.753 97.6641 243.945C97.0443 243.133 96.7266 241.932 96.7109 240.344V238.375C96.7109 236.74 97.0156 235.513 97.625 234.695C98.2396 233.878 99.1745 233.469 100.43 233.469C101.674 233.469 102.602 233.867 103.211 234.664C103.826 235.461 104.141 236.654 104.156 238.242V240.211ZM102.258 238.086C102.258 237.018 102.112 236.237 101.82 235.742C101.529 235.242 101.065 234.992 100.43 234.992C99.8099 234.992 99.3542 235.229 99.0625 235.703C98.7708 236.172 98.6172 236.906 98.6016 237.906V240.484C98.6016 241.547 98.75 242.339 99.0469 242.859C99.3438 243.38 99.8099 243.641 100.445 243.641C101.055 243.641 101.505 243.401 101.797 242.922C102.089 242.438 102.242 241.682 102.258 240.656V238.086ZM115.062 244.172C114.505 244.828 113.714 245.156 112.688 245.156C111.771 245.156 111.076 244.888 110.602 244.352C110.133 243.815 109.898 243.039 109.898 242.023V236.547H111.797V242C111.797 243.073 112.242 243.609 113.133 243.609C114.055 243.609 114.677 243.279 115 242.617V236.547H116.898V245H115.109L115.062 244.172ZM120.594 236.547L120.648 237.523C121.273 236.768 122.094 236.391 123.109 236.391C124.87 236.391 125.766 237.398 125.797 239.414V245H123.898V239.523C123.898 238.987 123.781 238.591 123.547 238.336C123.318 238.076 122.94 237.945 122.414 237.945C121.648 237.945 121.078 238.292 120.703 238.984V245H118.805V236.547H120.594ZM129.758 245H127.859V236.547H129.758V245ZM127.742 234.352C127.742 234.06 127.833 233.818 128.016 233.625C128.203 233.432 128.469 233.336 128.812 233.336C129.156 233.336 129.422 233.432 129.609 233.625C129.797 233.818 129.891 234.06 129.891 234.352C129.891 234.638 129.797 234.878 129.609 235.07C129.422 235.258 129.156 235.352 128.812 235.352C128.469 235.352 128.203 235.258 128.016 235.07C127.833 234.878 127.742 234.638 127.742 234.352ZM134.211 234.492V236.547H135.703V237.953H134.211V242.672C134.211 242.995 134.273 243.229 134.398 243.375C134.529 243.516 134.758 243.586 135.086 243.586C135.305 243.586 135.526 243.56 135.75 243.508V244.977C135.318 245.096 134.901 245.156 134.5 245.156C133.042 245.156 132.312 244.352 132.312 242.742V237.953H130.922V236.547H132.312V234.492H134.211ZM141.898 242.703C141.898 242.365 141.758 242.107 141.477 241.93C141.201 241.753 140.74 241.596 140.094 241.461C139.448 241.326 138.909 241.154 138.477 240.945C137.529 240.487 137.055 239.823 137.055 238.953C137.055 238.224 137.362 237.615 137.977 237.125C138.591 236.635 139.372 236.391 140.32 236.391C141.331 236.391 142.146 236.641 142.766 237.141C143.391 237.641 143.703 238.289 143.703 239.086H141.805C141.805 238.721 141.669 238.419 141.398 238.18C141.128 237.935 140.768 237.812 140.32 237.812C139.904 237.812 139.562 237.909 139.297 238.102C139.036 238.294 138.906 238.552 138.906 238.875C138.906 239.167 139.029 239.393 139.273 239.555C139.518 239.716 140.013 239.88 140.758 240.047C141.503 240.208 142.086 240.404 142.508 240.633C142.935 240.857 143.25 241.128 143.453 241.445C143.661 241.763 143.766 242.148 143.766 242.602C143.766 243.362 143.451 243.979 142.82 244.453C142.19 244.922 141.365 245.156 140.344 245.156C139.651 245.156 139.034 245.031 138.492 244.781C137.951 244.531 137.529 244.188 137.227 243.75C136.924 243.312 136.773 242.841 136.773 242.336H138.617C138.643 242.784 138.812 243.13 139.125 243.375C139.438 243.615 139.852 243.734 140.367 243.734C140.867 243.734 141.247 243.641 141.508 243.453C141.768 243.26 141.898 243.01 141.898 242.703Z" fill="#304256"/>
<path d="M192.398 242.031C192.398 241.589 192.258 241.224 191.977 240.938C191.695 240.646 191.227 240.385 190.57 240.156C189.914 239.922 189.404 239.706 189.039 239.508C187.826 238.857 187.219 237.893 187.219 236.617C187.219 235.753 187.482 235.042 188.008 234.484C188.534 233.927 189.247 233.596 190.148 233.492V231.789H191.398V233.508C192.305 233.638 193.005 234.023 193.5 234.664C193.995 235.299 194.242 236.128 194.242 237.148H192.352C192.352 236.492 192.203 235.977 191.906 235.602C191.615 235.221 191.216 235.031 190.711 235.031C190.211 235.031 189.82 235.167 189.539 235.438C189.258 235.708 189.117 236.096 189.117 236.602C189.117 237.055 189.255 237.419 189.531 237.695C189.812 237.966 190.286 238.224 190.953 238.469C191.62 238.714 192.143 238.94 192.523 239.148C192.904 239.357 193.224 239.596 193.484 239.867C193.745 240.133 193.945 240.44 194.086 240.789C194.227 241.138 194.297 241.547 194.297 242.016C194.297 242.896 194.026 243.609 193.484 244.156C192.948 244.703 192.198 245.026 191.234 245.125V246.648H189.992V245.133C188.961 245.018 188.167 244.648 187.609 244.023C187.057 243.398 186.781 242.57 186.781 241.539H188.68C188.68 242.195 188.844 242.703 189.172 243.062C189.505 243.422 189.974 243.602 190.578 243.602C191.172 243.602 191.622 243.458 191.93 243.172C192.242 242.885 192.398 242.505 192.398 242.031ZM201.086 245H199.195V235.867L196.406 236.82V235.219L200.844 233.586H201.086V245ZM210.18 245H208.289V235.867L205.5 236.82V235.219L209.938 233.586H210.18V245ZM214.523 247.562L213.5 246.953C213.802 246.479 214.008 246.065 214.117 245.711C214.232 245.362 214.292 245.005 214.297 244.641V243.164H216.008L216 244.531C215.995 245.083 215.854 245.635 215.578 246.188C215.307 246.745 214.956 247.203 214.523 247.562ZM225.062 240.211C225.062 241.846 224.755 243.081 224.141 243.914C223.531 244.742 222.602 245.156 221.352 245.156C220.122 245.156 219.195 244.753 218.57 243.945C217.951 243.133 217.633 241.932 217.617 240.344V238.375C217.617 236.74 217.922 235.513 218.531 234.695C219.146 233.878 220.081 233.469 221.336 233.469C222.581 233.469 223.508 233.867 224.117 234.664C224.732 235.461 225.047 236.654 225.062 238.242V240.211ZM223.164 238.086C223.164 237.018 223.018 236.237 222.727 235.742C222.435 235.242 221.971 234.992 221.336 234.992C220.716 234.992 220.26 235.229 219.969 235.703C219.677 236.172 219.523 236.906 219.508 237.906V240.484C219.508 241.547 219.656 242.339 219.953 242.859C220.25 243.38 220.716 243.641 221.352 243.641C221.961 243.641 222.411 243.401 222.703 242.922C222.995 242.438 223.148 241.682 223.164 240.656V238.086ZM234.156 240.211C234.156 241.846 233.849 243.081 233.234 243.914C232.625 244.742 231.695 245.156 230.445 245.156C229.216 245.156 228.289 244.753 227.664 243.945C227.044 243.133 226.727 241.932 226.711 240.344V238.375C226.711 236.74 227.016 235.513 227.625 234.695C228.24 233.878 229.174 233.469 230.43 233.469C231.674 233.469 232.602 233.867 233.211 234.664C233.826 235.461 234.141 236.654 234.156 238.242V240.211ZM232.258 238.086C232.258 237.018 232.112 236.237 231.82 235.742C231.529 235.242 231.065 234.992 230.43 234.992C229.81 234.992 229.354 235.229 229.062 235.703C228.771 236.172 228.617 236.906 228.602 237.906V240.484C228.602 241.547 228.75 242.339 229.047 242.859C229.344 243.38 229.81 243.641 230.445 243.641C231.055 243.641 231.505 243.401 231.797 242.922C232.089 242.438 232.242 241.682 232.258 240.656V238.086ZM243.25 240.211C243.25 241.846 242.943 243.081 242.328 243.914C241.719 244.742 240.789 245.156 239.539 245.156C238.31 245.156 237.383 244.753 236.758 243.945C236.138 243.133 235.82 241.932 235.805 240.344V238.375C235.805 236.74 236.109 235.513 236.719 234.695C237.333 233.878 238.268 233.469 239.523 233.469C240.768 233.469 241.695 233.867 242.305 234.664C242.919 235.461 243.234 236.654 243.25 238.242V240.211ZM241.352 238.086C241.352 237.018 241.206 236.237 240.914 235.742C240.622 235.242 240.159 234.992 239.523 234.992C238.904 234.992 238.448 235.229 238.156 235.703C237.865 236.172 237.711 236.906 237.695 237.906V240.484C237.695 241.547 237.844 242.339 238.141 242.859C238.438 243.38 238.904 243.641 239.539 243.641C240.148 243.641 240.599 243.401 240.891 242.922C241.182 242.438 241.336 241.682 241.352 240.656V238.086Z" fill="#304256"/>
<path d="M542.359 239.359L542.977 233.625H549.086V235.266H544.555L544.242 237.984C544.768 237.682 545.362 237.531 546.023 237.531C547.107 237.531 547.948 237.878 548.547 238.57C549.151 239.263 549.453 240.195 549.453 241.367C549.453 242.523 549.12 243.445 548.453 244.133C547.786 244.815 546.872 245.156 545.711 245.156C544.669 245.156 543.805 244.862 543.117 244.273C542.435 243.68 542.065 242.898 542.008 241.93H543.844C543.917 242.482 544.115 242.906 544.438 243.203C544.76 243.495 545.182 243.641 545.703 243.641C546.286 243.641 546.74 243.432 547.062 243.016C547.391 242.599 547.555 242.031 547.555 241.312C547.555 240.62 547.375 240.073 547.016 239.672C546.656 239.266 546.161 239.062 545.531 239.062C545.188 239.062 544.896 239.109 544.656 239.203C544.417 239.292 544.156 239.469 543.875 239.734L542.359 239.359ZM555.234 245V233.625H558.594C559.599 233.625 560.49 233.849 561.266 234.297C562.047 234.745 562.651 235.38 563.078 236.203C563.505 237.026 563.719 237.969 563.719 239.031V239.602C563.719 240.68 563.503 241.628 563.07 242.445C562.643 243.263 562.031 243.893 561.234 244.336C560.443 244.779 559.534 245 558.508 245H555.234ZM557.211 235.219V243.422H558.5C559.536 243.422 560.331 243.099 560.883 242.453C561.44 241.802 561.724 240.87 561.734 239.656V239.023C561.734 237.789 561.466 236.846 560.93 236.195C560.393 235.544 559.615 235.219 558.594 235.219H557.211ZM570.555 245C570.471 244.839 570.398 244.576 570.336 244.211C569.732 244.841 568.992 245.156 568.117 245.156C567.268 245.156 566.576 244.914 566.039 244.43C565.503 243.945 565.234 243.346 565.234 242.633C565.234 241.732 565.568 241.042 566.234 240.562C566.906 240.078 567.865 239.836 569.109 239.836H570.273V239.281C570.273 238.844 570.151 238.495 569.906 238.234C569.661 237.969 569.289 237.836 568.789 237.836C568.357 237.836 568.003 237.945 567.727 238.164C567.451 238.378 567.312 238.651 567.312 238.984H565.414C565.414 238.521 565.568 238.089 565.875 237.688C566.182 237.281 566.599 236.964 567.125 236.734C567.656 236.505 568.247 236.391 568.898 236.391C569.888 236.391 570.677 236.641 571.266 237.141C571.854 237.635 572.156 238.333 572.172 239.234V243.047C572.172 243.807 572.279 244.414 572.492 244.867V245H570.555ZM568.469 243.633C568.844 243.633 569.195 243.542 569.523 243.359C569.857 243.177 570.107 242.932 570.273 242.625V241.031H569.25C568.547 241.031 568.018 241.154 567.664 241.398C567.31 241.643 567.133 241.99 567.133 242.438C567.133 242.802 567.253 243.094 567.492 243.312C567.737 243.526 568.062 243.633 568.469 243.633ZM576.992 242.281L578.711 236.547H580.734L577.375 246.281C576.859 247.703 575.984 248.414 574.75 248.414C574.474 248.414 574.169 248.367 573.836 248.273V246.805L574.195 246.828C574.674 246.828 575.034 246.74 575.273 246.562C575.518 246.391 575.711 246.099 575.852 245.688L576.125 244.961L573.156 236.547H575.203L576.992 242.281ZM586.57 242.703C586.57 242.365 586.43 242.107 586.148 241.93C585.872 241.753 585.411 241.596 584.766 241.461C584.12 241.326 583.581 241.154 583.148 240.945C582.201 240.487 581.727 239.823 581.727 238.953C581.727 238.224 582.034 237.615 582.648 237.125C583.263 236.635 584.044 236.391 584.992 236.391C586.003 236.391 586.818 236.641 587.438 237.141C588.062 237.641 588.375 238.289 588.375 239.086H586.477C586.477 238.721 586.341 238.419 586.07 238.18C585.799 237.935 585.44 237.812 584.992 237.812C584.576 237.812 584.234 237.909 583.969 238.102C583.708 238.294 583.578 238.552 583.578 238.875C583.578 239.167 583.701 239.393 583.945 239.555C584.19 239.716 584.685 239.88 585.43 240.047C586.174 240.208 586.758 240.404 587.18 240.633C587.607 240.857 587.922 241.128 588.125 241.445C588.333 241.763 588.438 242.148 588.438 242.602C588.438 243.362 588.122 243.979 587.492 244.453C586.862 244.922 586.036 245.156 585.016 245.156C584.323 245.156 583.706 245.031 583.164 244.781C582.622 244.531 582.201 244.188 581.898 243.75C581.596 243.312 581.445 242.841 581.445 242.336H583.289C583.315 242.784 583.484 243.13 583.797 243.375C584.109 243.615 584.523 243.734 585.039 243.734C585.539 243.734 585.919 243.641 586.18 243.453C586.44 243.26 586.57 243.01 586.57 242.703Z" fill="#304256"/>
<path d="M59.6504 64.5117L61.6133 60.4688H63.2539L60.3945 65.8594V69H58.9062V65.8594L56.041 60.4688H57.6875L59.6504 64.5117ZM71.8125 64.957C71.8125 65.793 71.668 66.5273 71.3789 67.1602C71.0898 67.7891 70.6758 68.2734 70.1367 68.6133C69.6016 68.9492 68.9844 69.1172 68.2852 69.1172C67.5938 69.1172 66.9766 68.9492 66.4336 68.6133C65.8945 68.2734 65.4766 67.791 65.1797 67.166C64.8867 66.541 64.7383 65.8203 64.7344 65.0039V64.5234C64.7344 63.6914 64.8809 62.957 65.1738 62.3203C65.4707 61.6836 65.8867 61.1973 66.4219 60.8613C66.9609 60.5215 67.5781 60.3516 68.2734 60.3516C68.9688 60.3516 69.584 60.5195 70.1191 60.8555C70.6582 61.1875 71.0742 61.668 71.3672 62.2969C71.6602 62.9219 71.8086 63.6504 71.8125 64.4824V64.957ZM70.3301 64.5117C70.3301 63.5664 70.1504 62.8418 69.791 62.3379C69.4355 61.834 68.9297 61.582 68.2734 61.582C67.6328 61.582 67.1309 61.834 66.7676 62.3379C66.4082 62.8379 66.2246 63.5469 66.2168 64.4648V64.957C66.2168 65.8945 66.3984 66.6191 66.7617 67.1309C67.1289 67.6426 67.6367 67.8984 68.2852 67.8984C68.9414 67.8984 69.4453 67.6484 69.7969 67.1484C70.1523 66.6484 70.3301 65.918 70.3301 64.957V64.5117ZM80.5293 60.4688V66.1699C80.5293 67.0762 80.2383 67.7949 79.6562 68.3262C79.0781 68.8535 78.3066 69.1172 77.3418 69.1172C76.3652 69.1172 75.5898 68.8574 75.0156 68.3379C74.4414 67.8145 74.1543 67.0898 74.1543 66.1641V60.4688H75.6309V66.1758C75.6309 66.7461 75.7754 67.1816 76.0645 67.4824C76.3535 67.7832 76.7793 67.9336 77.3418 67.9336C78.4824 67.9336 79.0527 67.332 79.0527 66.1289V60.4688H80.5293ZM86.252 65.7129H84.5996V69H83.1172V60.4688H86.1172C87.1016 60.4688 87.8613 60.6895 88.3965 61.1309C88.9316 61.5723 89.1992 62.2109 89.1992 63.0469C89.1992 63.6172 89.0605 64.0957 88.7832 64.4824C88.5098 64.8652 88.127 65.1602 87.6348 65.3672L89.5508 68.9238V69H87.9629L86.252 65.7129ZM84.5996 64.5234H86.123C86.623 64.5234 87.0137 64.3984 87.2949 64.1484C87.5762 63.8945 87.7168 63.5488 87.7168 63.1113C87.7168 62.6543 87.5859 62.3008 87.3242 62.0508C87.0664 61.8008 86.6797 61.6719 86.1641 61.6641H84.5996V64.5234ZM98.7285 65.7129H97.0762V69H95.5938V60.4688H98.5938C99.5781 60.4688 100.338 60.6895 100.873 61.1309C101.408 61.5723 101.676 62.2109 101.676 63.0469C101.676 63.6172 101.537 64.0957 101.26 64.4824C100.986 64.8652 100.604 65.1602 100.111 65.3672L102.027 68.9238V69H100.439L98.7285 65.7129ZM97.0762 64.5234H98.5996C99.0996 64.5234 99.4902 64.3984 99.7715 64.1484C100.053 63.8945 100.193 63.5488 100.193 63.1113C100.193 62.6543 100.062 62.3008 99.8008 62.0508C99.543 61.8008 99.1562 61.6719 98.6406 61.6641H97.0762V64.5234ZM109.068 65.1914H105.564V67.8164H109.66V69H104.082V60.4688H109.619V61.6641H105.564V64.0195H109.068V65.1914ZM118.646 64.957C118.646 65.7656 118.518 66.4668 118.26 67.0605C118.006 67.6504 117.648 68.1191 117.188 68.4668L118.652 69.6094L117.691 70.4766L115.875 69.041C115.637 69.0918 115.381 69.1172 115.107 69.1172C114.42 69.1172 113.805 68.9492 113.262 68.6133C112.723 68.2734 112.305 67.791 112.008 67.166C111.715 66.541 111.566 65.8203 111.562 65.0039V64.5234C111.562 63.6914 111.709 62.957 112.002 62.3203C112.299 61.6836 112.715 61.1973 113.25 60.8613C113.789 60.5215 114.404 60.3516 115.096 60.3516C115.799 60.3516 116.418 60.5195 116.953 60.8555C117.492 61.1875 117.908 61.668 118.201 62.2969C118.494 62.9219 118.643 63.6504 118.646 64.4824V64.957ZM117.158 64.5117C117.158 63.5508 116.979 62.8223 116.619 62.3262C116.26 61.8301 115.752 61.582 115.096 61.582C114.459 61.582 113.959 61.834 113.596 62.3379C113.236 62.8379 113.053 63.5449 113.045 64.459V64.957C113.045 65.8789 113.225 66.5996 113.584 67.1191C113.947 67.6387 114.455 67.8984 115.107 67.8984C115.768 67.8984 116.273 67.6484 116.625 67.1484C116.98 66.6484 117.158 65.918 117.158 64.957V64.5117ZM127.393 60.4688V66.1699C127.393 67.0762 127.102 67.7949 126.52 68.3262C125.941 68.8535 125.17 69.1172 124.205 69.1172C123.229 69.1172 122.453 68.8574 121.879 68.3379C121.305 67.8145 121.018 67.0898 121.018 66.1641V60.4688H122.494V66.1758C122.494 66.7461 122.639 67.1816 122.928 67.4824C123.217 67.7832 123.643 67.9336 124.205 67.9336C125.346 67.9336 125.916 67.332 125.916 66.1289V60.4688H127.393ZM134.967 65.1914H131.463V67.8164H135.559V69H129.98V60.4688H135.518V61.6641H131.463V64.0195H134.967V65.1914ZM142.225 66.8027C142.225 66.4277 142.092 66.1387 141.826 65.9355C141.564 65.7324 141.09 65.5273 140.402 65.3203C139.715 65.1133 139.168 64.8828 138.762 64.6289C137.984 64.1406 137.596 63.5039 137.596 62.7188C137.596 62.0312 137.875 61.4648 138.434 61.0195C138.996 60.5742 139.725 60.3516 140.619 60.3516C141.213 60.3516 141.742 60.4609 142.207 60.6797C142.672 60.8984 143.037 61.2109 143.303 61.6172C143.568 62.0195 143.701 62.4668 143.701 62.959H142.225C142.225 62.5137 142.084 62.166 141.803 61.916C141.525 61.6621 141.127 61.5352 140.607 61.5352C140.123 61.5352 139.746 61.6387 139.477 61.8457C139.211 62.0527 139.078 62.3418 139.078 62.7129C139.078 63.0254 139.223 63.2871 139.512 63.498C139.801 63.7051 140.277 63.9082 140.941 64.1074C141.605 64.3027 142.139 64.5273 142.541 64.7812C142.943 65.0312 143.238 65.3203 143.426 65.6484C143.613 65.9727 143.707 66.3535 143.707 66.791C143.707 67.502 143.434 68.0684 142.887 68.4902C142.344 68.9082 141.605 69.1172 140.672 69.1172C140.055 69.1172 139.486 69.0039 138.967 68.7773C138.451 68.5469 138.049 68.2305 137.76 67.8281C137.475 67.4258 137.332 66.957 137.332 66.4219H138.814C138.814 66.9062 138.975 67.2812 139.295 67.5469C139.615 67.8125 140.074 67.9453 140.672 67.9453C141.188 67.9453 141.574 67.8418 141.832 67.6348C142.094 67.4238 142.225 67.1465 142.225 66.8027ZM152.172 61.6641H149.512V69H148.041V61.6641H145.404V60.4688H152.172V61.6641Z" fill="#6984A3"/>
<path d="M63.6465 202.957C63.6465 203.766 63.5176 204.467 63.2598 205.061C63.0059 205.65 62.6484 206.119 62.1875 206.467L63.6523 207.609L62.6914 208.477L60.875 207.041C60.6367 207.092 60.3809 207.117 60.1074 207.117C59.4199 207.117 58.8047 206.949 58.2617 206.613C57.7227 206.273 57.3047 205.791 57.0078 205.166C56.7148 204.541 56.5664 203.82 56.5625 203.004V202.523C56.5625 201.691 56.709 200.957 57.002 200.32C57.2988 199.684 57.7148 199.197 58.25 198.861C58.7891 198.521 59.4043 198.352 60.0957 198.352C60.7988 198.352 61.418 198.52 61.9531 198.855C62.4922 199.188 62.9082 199.668 63.2012 200.297C63.4941 200.922 63.6426 201.65 63.6465 202.482V202.957ZM62.1582 202.512C62.1582 201.551 61.9785 200.822 61.6191 200.326C61.2598 199.83 60.752 199.582 60.0957 199.582C59.459 199.582 58.959 199.834 58.5957 200.338C58.2363 200.838 58.0527 201.545 58.0449 202.459V202.957C58.0449 203.879 58.2246 204.6 58.584 205.119C58.9473 205.639 59.4551 205.898 60.1074 205.898C60.7676 205.898 61.2734 205.648 61.625 205.148C61.9805 204.648 62.1582 203.918 62.1582 202.957V202.512ZM72.3926 198.469V204.17C72.3926 205.076 72.1016 205.795 71.5195 206.326C70.9414 206.854 70.1699 207.117 69.2051 207.117C68.2285 207.117 67.4531 206.857 66.8789 206.338C66.3047 205.814 66.0176 205.09 66.0176 204.164V198.469H67.4941V204.176C67.4941 204.746 67.6387 205.182 67.9277 205.482C68.2168 205.783 68.6426 205.934 69.2051 205.934C70.3457 205.934 70.916 205.332 70.916 204.129V198.469H72.3926ZM79.627 205.014H76.3223L75.6309 207H74.0898L77.3125 198.469H78.6426L81.8711 207H80.3242L79.627 205.014ZM76.7383 203.818H79.2109L77.9746 200.279L76.7383 203.818ZM90.6113 207H89.1289L85.3262 200.947V207H83.8438V198.469H85.3262L89.1406 204.545V198.469H90.6113V207ZM99.3516 199.664H96.6914V207H95.2207V199.664H92.584V198.469H99.3516V199.664ZM103.041 207H101.564V198.469H103.041V207ZM111.852 199.664H109.191V207H107.721V199.664H105.084V198.469H111.852V199.664ZM116.854 202.512L118.816 198.469H120.457L117.598 203.859V207H116.109V203.859L113.244 198.469H114.891L116.854 202.512Z" fill="#6984A3"/>
<path d="M193.377 204.223C193.291 205.133 192.955 205.844 192.369 206.355C191.783 206.863 191.004 207.117 190.031 207.117C189.352 207.117 188.752 206.957 188.232 206.637C187.717 206.312 187.318 205.854 187.037 205.26C186.756 204.666 186.609 203.977 186.598 203.191V202.395C186.598 201.59 186.74 200.881 187.025 200.268C187.311 199.654 187.719 199.182 188.25 198.85C188.785 198.518 189.402 198.352 190.102 198.352C191.043 198.352 191.801 198.607 192.375 199.119C192.949 199.631 193.283 200.354 193.377 201.287H191.9C191.83 200.674 191.65 200.232 191.361 199.963C191.076 199.689 190.656 199.553 190.102 199.553C189.457 199.553 188.961 199.789 188.613 200.262C188.27 200.73 188.094 201.42 188.086 202.33V203.086C188.086 204.008 188.25 204.711 188.578 205.195C188.91 205.68 189.395 205.922 190.031 205.922C190.613 205.922 191.051 205.791 191.344 205.529C191.637 205.268 191.822 204.832 191.9 204.223H193.377ZM202.516 202.957C202.516 203.793 202.371 204.527 202.082 205.16C201.793 205.789 201.379 206.273 200.84 206.613C200.305 206.949 199.688 207.117 198.988 207.117C198.297 207.117 197.68 206.949 197.137 206.613C196.598 206.273 196.18 205.791 195.883 205.166C195.59 204.541 195.441 203.82 195.438 203.004V202.523C195.438 201.691 195.584 200.957 195.877 200.32C196.174 199.684 196.59 199.197 197.125 198.861C197.664 198.521 198.281 198.352 198.977 198.352C199.672 198.352 200.287 198.52 200.822 198.855C201.361 199.188 201.777 199.668 202.07 200.297C202.363 200.922 202.512 201.65 202.516 202.482V202.957ZM201.033 202.512C201.033 201.566 200.854 200.842 200.494 200.338C200.139 199.834 199.633 199.582 198.977 199.582C198.336 199.582 197.834 199.834 197.471 200.338C197.111 200.838 196.928 201.547 196.92 202.465V202.957C196.92 203.895 197.102 204.619 197.465 205.131C197.832 205.643 198.34 205.898 198.988 205.898C199.645 205.898 200.148 205.648 200.5 205.148C200.855 204.648 201.033 203.918 201.033 202.957V202.512ZM209.451 204.803C209.451 204.428 209.318 204.139 209.053 203.936C208.791 203.732 208.316 203.527 207.629 203.32C206.941 203.113 206.395 202.883 205.988 202.629C205.211 202.141 204.822 201.504 204.822 200.719C204.822 200.031 205.102 199.465 205.66 199.02C206.223 198.574 206.951 198.352 207.846 198.352C208.439 198.352 208.969 198.461 209.434 198.68C209.898 198.898 210.264 199.211 210.529 199.617C210.795 200.02 210.928 200.467 210.928 200.959H209.451C209.451 200.514 209.311 200.166 209.029 199.916C208.752 199.662 208.354 199.535 207.834 199.535C207.35 199.535 206.973 199.639 206.703 199.846C206.438 200.053 206.305 200.342 206.305 200.713C206.305 201.025 206.449 201.287 206.738 201.498C207.027 201.705 207.504 201.908 208.168 202.107C208.832 202.303 209.365 202.527 209.768 202.781C210.17 203.031 210.465 203.32 210.652 203.648C210.84 203.973 210.934 204.354 210.934 204.791C210.934 205.502 210.66 206.068 210.113 206.49C209.57 206.908 208.832 207.117 207.898 207.117C207.281 207.117 206.713 207.004 206.193 206.777C205.678 206.547 205.275 206.23 204.986 205.828C204.701 205.426 204.559 204.957 204.559 204.422H206.041C206.041 204.906 206.201 205.281 206.521 205.547C206.842 205.812 207.301 205.945 207.898 205.945C208.414 205.945 208.801 205.842 209.059 205.635C209.32 205.424 209.451 205.146 209.451 204.803ZM219.398 199.664H216.738V207H215.268V199.664H212.631V198.469H219.398V199.664Z" fill="#6984A3"/>
<path d="M290.326 204.803C290.326 204.428 290.193 204.139 289.928 203.936C289.666 203.732 289.191 203.527 288.504 203.32C287.816 203.113 287.27 202.883 286.863 202.629C286.086 202.141 285.697 201.504 285.697 200.719C285.697 200.031 285.977 199.465 286.535 199.02C287.098 198.574 287.826 198.352 288.721 198.352C289.314 198.352 289.844 198.461 290.309 198.68C290.773 198.898 291.139 199.211 291.404 199.617C291.67 200.02 291.803 200.467 291.803 200.959H290.326C290.326 200.514 290.186 200.166 289.904 199.916C289.627 199.662 289.229 199.535 288.709 199.535C288.225 199.535 287.848 199.639 287.578 199.846C287.312 200.053 287.18 200.342 287.18 200.713C287.18 201.025 287.324 201.287 287.613 201.498C287.902 201.705 288.379 201.908 289.043 202.107C289.707 202.303 290.24 202.527 290.643 202.781C291.045 203.031 291.34 203.32 291.527 203.648C291.715 203.973 291.809 204.354 291.809 204.791C291.809 205.502 291.535 206.068 290.988 206.49C290.445 206.908 289.707 207.117 288.773 207.117C288.156 207.117 287.588 207.004 287.068 206.777C286.553 206.547 286.15 206.23 285.861 205.828C285.576 205.426 285.434 204.957 285.434 204.422H286.916C286.916 204.906 287.076 205.281 287.396 205.547C287.717 205.812 288.176 205.945 288.773 205.945C289.289 205.945 289.676 205.842 289.934 205.635C290.195 205.424 290.326 205.146 290.326 204.803ZM300.273 199.664H297.613V207H296.143V199.664H293.506V198.469H300.273V199.664ZM306.471 205.014H303.166L302.475 207H300.934L304.156 198.469H305.486L308.715 207H307.168L306.471 205.014ZM303.582 203.818H306.055L304.818 200.279L303.582 203.818ZM316.148 199.664H313.488V207H312.018V199.664H309.381V198.469H316.148V199.664ZM324.514 198.469V204.17C324.514 205.076 324.223 205.795 323.641 206.326C323.062 206.854 322.291 207.117 321.326 207.117C320.35 207.117 319.574 206.857 319 206.338C318.426 205.814 318.139 205.09 318.139 204.164V198.469H319.615V204.176C319.615 204.746 319.76 205.182 320.049 205.482C320.338 205.783 320.764 205.934 321.326 205.934C322.467 205.934 323.037 205.332 323.037 204.129V198.469H324.514ZM331.561 204.803C331.561 204.428 331.428 204.139 331.162 203.936C330.9 203.732 330.426 203.527 329.738 203.32C329.051 203.113 328.504 202.883 328.098 202.629C327.32 202.141 326.932 201.504 326.932 200.719C326.932 200.031 327.211 199.465 327.77 199.02C328.332 198.574 329.061 198.352 329.955 198.352C330.549 198.352 331.078 198.461 331.543 198.68C332.008 198.898 332.373 199.211 332.639 199.617C332.904 200.02 333.037 200.467 333.037 200.959H331.561C331.561 200.514 331.42 200.166 331.139 199.916C330.861 199.662 330.463 199.535 329.943 199.535C329.459 199.535 329.082 199.639 328.812 199.846C328.547 200.053 328.414 200.342 328.414 200.713C328.414 201.025 328.559 201.287 328.848 201.498C329.137 201.705 329.613 201.908 330.277 202.107C330.941 202.303 331.475 202.527 331.877 202.781C332.279 203.031 332.574 203.32 332.762 203.648C332.949 203.973 333.043 204.354 333.043 204.791C333.043 205.502 332.77 206.068 332.223 206.49C331.68 206.908 330.941 207.117 330.008 207.117C329.391 207.117 328.822 207.004 328.303 206.777C327.787 206.547 327.385 206.23 327.096 205.828C326.811 205.426 326.668 204.957 326.668 204.422H328.15C328.15 204.906 328.311 205.281 328.631 205.547C328.951 205.812 329.41 205.945 330.008 205.945C330.523 205.945 330.91 205.842 331.168 205.635C331.43 205.424 331.561 205.146 331.561 204.803Z" fill="#6984A3"/>
<path d="M541.867 207V198.469H544.387C545.141 198.469 545.809 198.637 546.391 198.973C546.977 199.309 547.43 199.785 547.75 200.402C548.07 201.02 548.23 201.727 548.23 202.523V202.951C548.23 203.76 548.068 204.471 547.744 205.084C547.424 205.697 546.965 206.17 546.367 206.502C545.773 206.834 545.092 207 544.322 207H541.867ZM543.35 199.664V205.816H544.316C545.094 205.816 545.689 205.574 546.104 205.09C546.521 204.602 546.734 203.902 546.742 202.992V202.518C546.742 201.592 546.541 200.885 546.139 200.396C545.736 199.908 545.152 199.664 544.387 199.664H543.35ZM555.693 203.191H552.189V205.816H556.285V207H550.707V198.469H556.244V199.664H552.189V202.02H555.693V203.191ZM559.975 205.816H563.848V207H558.492V198.469H559.975V205.816ZM567.549 207H566.072V198.469H567.549V207ZM573.377 205.143L575.545 198.469H577.174L574.104 207H572.668L569.609 198.469H571.232L573.377 205.143ZM584.127 203.191H580.623V205.816H584.719V207H579.141V198.469H584.678V199.664H580.623V202.02H584.127V203.191ZM590.061 203.713H588.408V207H586.926V198.469H589.926C590.91 198.469 591.67 198.689 592.205 199.131C592.74 199.572 593.008 200.211 593.008 201.047C593.008 201.617 592.869 202.096 592.592 202.482C592.318 202.865 591.936 203.16 591.443 203.367L593.359 206.924V207H591.771L590.061 203.713ZM588.408 202.523H589.932C590.432 202.523 590.822 202.398 591.104 202.148C591.385 201.895 591.525 201.549 591.525 201.111C591.525 200.654 591.395 200.301 591.133 200.051C590.875 199.801 590.488 199.672 589.973 199.664H588.408V202.523ZM600.4 203.191H596.896V205.816H600.992V207H595.414V198.469H600.951V199.664H596.896V202.02H600.4V203.191ZM603.199 207V198.469H605.719C606.473 198.469 607.141 198.637 607.723 198.973C608.309 199.309 608.762 199.785 609.082 200.402C609.402 201.02 609.562 201.727 609.562 202.523V202.951C609.562 203.76 609.4 204.471 609.076 205.084C608.756 205.697 608.297 206.17 607.699 206.502C607.105 206.834 606.424 207 605.654 207H603.199ZM604.682 199.664V205.816H605.648C606.426 205.816 607.021 205.574 607.436 205.09C607.854 204.602 608.066 203.902 608.074 202.992V202.518C608.074 201.592 607.873 200.885 607.471 200.396C607.068 199.908 606.484 199.664 605.719 199.664H604.682ZM617.592 207H616.115V198.469H617.592V207ZM627.182 207H625.699L621.896 200.947V207H620.414V198.469H621.896L625.711 204.545V198.469H627.182V207Z" fill="#6984A3"/>
<path d="M434.102 242.07C434.102 241.57 433.924 241.185 433.57 240.914C433.221 240.643 432.589 240.37 431.672 240.094C430.755 239.818 430.026 239.51 429.484 239.172C428.448 238.521 427.93 237.672 427.93 236.625C427.93 235.708 428.302 234.953 429.047 234.359C429.797 233.766 430.768 233.469 431.961 233.469C432.753 233.469 433.458 233.615 434.078 233.906C434.698 234.198 435.185 234.615 435.539 235.156C435.893 235.693 436.07 236.289 436.07 236.945H434.102C434.102 236.352 433.914 235.888 433.539 235.555C433.169 235.216 432.638 235.047 431.945 235.047C431.299 235.047 430.797 235.185 430.438 235.461C430.083 235.737 429.906 236.122 429.906 236.617C429.906 237.034 430.099 237.383 430.484 237.664C430.87 237.94 431.505 238.211 432.391 238.477C433.276 238.737 433.987 239.036 434.523 239.375C435.06 239.708 435.453 240.094 435.703 240.531C435.953 240.964 436.078 241.471 436.078 242.055C436.078 243.003 435.714 243.758 434.984 244.32C434.26 244.878 433.276 245.156 432.031 245.156C431.208 245.156 430.451 245.005 429.758 244.703C429.07 244.396 428.534 243.974 428.148 243.438C427.768 242.901 427.578 242.276 427.578 241.562H429.555C429.555 242.208 429.768 242.708 430.195 243.062C430.622 243.417 431.234 243.594 432.031 243.594C432.719 243.594 433.234 243.456 433.578 243.18C433.927 242.898 434.102 242.529 434.102 242.07ZM442.75 244.172C442.193 244.828 441.401 245.156 440.375 245.156C439.458 245.156 438.763 244.888 438.289 244.352C437.82 243.815 437.586 243.039 437.586 242.023V236.547H439.484V242C439.484 243.073 439.93 243.609 440.82 243.609C441.742 243.609 442.365 243.279 442.688 242.617V236.547H444.586V245H442.797L442.75 244.172ZM453.922 240.859C453.922 242.167 453.625 243.211 453.031 243.992C452.438 244.768 451.641 245.156 450.641 245.156C449.714 245.156 448.971 244.852 448.414 244.242V248.25H446.516V236.547H448.266L448.344 237.406C448.901 236.729 449.659 236.391 450.617 236.391C451.648 236.391 452.456 236.776 453.039 237.547C453.628 238.312 453.922 239.378 453.922 240.742V240.859ZM452.031 240.695C452.031 239.852 451.862 239.182 451.523 238.688C451.19 238.193 450.711 237.945 450.086 237.945C449.31 237.945 448.753 238.266 448.414 238.906V242.656C448.758 243.312 449.32 243.641 450.102 243.641C450.706 243.641 451.177 243.398 451.516 242.914C451.859 242.424 452.031 241.685 452.031 240.695ZM462.938 240.859C462.938 242.167 462.641 243.211 462.047 243.992C461.453 244.768 460.656 245.156 459.656 245.156C458.729 245.156 457.987 244.852 457.43 244.242V248.25H455.531V236.547H457.281L457.359 237.406C457.917 236.729 458.674 236.391 459.633 236.391C460.664 236.391 461.471 236.776 462.055 237.547C462.643 238.312 462.938 239.378 462.938 240.742V240.859ZM461.047 240.695C461.047 239.852 460.878 239.182 460.539 238.688C460.206 238.193 459.727 237.945 459.102 237.945C458.326 237.945 457.768 238.266 457.43 238.906V242.656C457.773 243.312 458.336 243.641 459.117 243.641C459.721 243.641 460.193 243.398 460.531 242.914C460.875 242.424 461.047 241.685 461.047 240.695ZM466.57 245H464.672V233H466.57V245ZM470.664 245H468.766V236.547H470.664V245ZM468.648 234.352C468.648 234.06 468.74 233.818 468.922 233.625C469.109 233.432 469.375 233.336 469.719 233.336C470.062 233.336 470.328 233.432 470.516 233.625C470.703 233.818 470.797 234.06 470.797 234.352C470.797 234.638 470.703 234.878 470.516 235.07C470.328 235.258 470.062 235.352 469.719 235.352C469.375 235.352 469.109 235.258 468.922 235.07C468.74 234.878 468.648 234.638 468.648 234.352ZM476.461 245.156C475.258 245.156 474.281 244.779 473.531 244.023C472.786 243.263 472.414 242.253 472.414 240.992V240.758C472.414 239.914 472.576 239.161 472.898 238.5C473.227 237.833 473.685 237.315 474.273 236.945C474.862 236.576 475.518 236.391 476.242 236.391C477.393 236.391 478.281 236.758 478.906 237.492C479.536 238.227 479.852 239.266 479.852 240.609V241.375H474.328C474.385 242.073 474.617 242.625 475.023 243.031C475.435 243.438 475.951 243.641 476.57 243.641C477.44 243.641 478.148 243.289 478.695 242.586L479.719 243.562C479.38 244.068 478.927 244.461 478.359 244.742C477.797 245.018 477.164 245.156 476.461 245.156ZM476.234 237.914C475.714 237.914 475.292 238.096 474.969 238.461C474.651 238.826 474.448 239.333 474.359 239.984H477.977V239.844C477.935 239.208 477.766 238.729 477.469 238.406C477.172 238.078 476.76 237.914 476.234 237.914ZM485.758 238.281C485.508 238.24 485.25 238.219 484.984 238.219C484.115 238.219 483.529 238.552 483.227 239.219V245H481.328V236.547H483.141L483.188 237.492C483.646 236.758 484.281 236.391 485.094 236.391C485.365 236.391 485.589 236.427 485.766 236.5L485.758 238.281ZM497.492 242.352H493.086L492.164 245H490.109L494.406 233.625H496.18L500.484 245H498.422L497.492 242.352ZM493.641 240.758H496.938L495.289 236.039L493.641 240.758Z" fill="#304256"/>
<path d="M432.326 204.803C432.326 204.428 432.193 204.139 431.928 203.936C431.666 203.732 431.191 203.527 430.504 203.32C429.816 203.113 429.27 202.883 428.863 202.629C428.086 202.141 427.697 201.504 427.697 200.719C427.697 200.031 427.977 199.465 428.535 199.02C429.098 198.574 429.826 198.352 430.721 198.352C431.314 198.352 431.844 198.461 432.309 198.68C432.773 198.898 433.139 199.211 433.404 199.617C433.67 200.02 433.803 200.467 433.803 200.959H432.326C432.326 200.514 432.186 200.166 431.904 199.916C431.627 199.662 431.229 199.535 430.709 199.535C430.225 199.535 429.848 199.639 429.578 199.846C429.312 200.053 429.18 200.342 429.18 200.713C429.18 201.025 429.324 201.287 429.613 201.498C429.902 201.705 430.379 201.908 431.043 202.107C431.707 202.303 432.24 202.527 432.643 202.781C433.045 203.031 433.34 203.32 433.527 203.648C433.715 203.973 433.809 204.354 433.809 204.791C433.809 205.502 433.535 206.068 432.988 206.49C432.445 206.908 431.707 207.117 430.773 207.117C430.156 207.117 429.588 207.004 429.068 206.777C428.553 206.547 428.15 206.23 427.861 205.828C427.576 205.426 427.434 204.957 427.434 204.422H428.916C428.916 204.906 429.076 205.281 429.396 205.547C429.717 205.812 430.176 205.945 430.773 205.945C431.289 205.945 431.676 205.842 431.934 205.635C432.195 205.424 432.326 205.146 432.326 204.803ZM442.35 198.469V204.17C442.35 205.076 442.059 205.795 441.477 206.326C440.898 206.854 440.127 207.117 439.162 207.117C438.186 207.117 437.41 206.857 436.836 206.338C436.262 205.814 435.975 205.09 435.975 204.164V198.469H437.451V204.176C437.451 204.746 437.596 205.182 437.885 205.482C438.174 205.783 438.6 205.934 439.162 205.934C440.303 205.934 440.873 205.332 440.873 204.129V198.469H442.35ZM446.42 203.83V207H444.938V198.469H448.201C449.154 198.469 449.91 198.717 450.469 199.213C451.031 199.709 451.312 200.365 451.312 201.182C451.312 202.018 451.037 202.668 450.486 203.133C449.939 203.598 449.172 203.83 448.184 203.83H446.42ZM446.42 202.641H448.201C448.729 202.641 449.131 202.518 449.408 202.271C449.686 202.021 449.824 201.662 449.824 201.193C449.824 200.732 449.684 200.365 449.402 200.092C449.121 199.814 448.734 199.672 448.242 199.664H446.42V202.641ZM455.096 203.83V207H453.613V198.469H456.877C457.83 198.469 458.586 198.717 459.145 199.213C459.707 199.709 459.988 200.365 459.988 201.182C459.988 202.018 459.713 202.668 459.162 203.133C458.615 203.598 457.848 203.83 456.859 203.83H455.096ZM455.096 202.641H456.877C457.404 202.641 457.807 202.518 458.084 202.271C458.361 202.021 458.5 201.662 458.5 201.193C458.5 200.732 458.359 200.365 458.078 200.092C457.797 199.814 457.41 199.672 456.918 199.664H455.096V202.641ZM463.771 205.816H467.645V207H462.289V198.469H463.771V205.816ZM471.346 207H469.869V198.469H471.346V207ZM479.154 203.191H475.65V205.816H479.746V207H474.168V198.469H479.705V199.664H475.65V202.02H479.154V203.191ZM485.088 203.713H483.436V207H481.953V198.469H484.953C485.938 198.469 486.697 198.689 487.232 199.131C487.768 199.572 488.035 200.211 488.035 201.047C488.035 201.617 487.896 202.096 487.619 202.482C487.346 202.865 486.963 203.16 486.471 203.367L488.387 206.924V207H486.799L485.088 203.713ZM483.436 202.523H484.959C485.459 202.523 485.85 202.398 486.131 202.148C486.412 201.895 486.553 201.549 486.553 201.111C486.553 200.654 486.422 200.301 486.16 200.051C485.902 199.801 485.516 199.672 485 199.664H483.436V202.523Z" fill="#6984A3"/>
<line x1="17" y1="161" x2="815" y2="161" stroke="#EAF2FD" stroke-width="2" stroke-linecap="round"/>
<rect opacity="0.1" x="285" y="223" width="102" height="34" rx="4" fill="#43C849"/>
<path d="M302.281 244V235.469H304.801C305.555 235.469 306.223 235.637 306.805 235.973C307.391 236.309 307.844 236.785 308.164 237.402C308.484 238.02 308.645 238.727 308.645 239.523V239.951C308.645 240.76 308.482 241.471 308.158 242.084C307.838 242.697 307.379 243.17 306.781 243.502C306.188 243.834 305.506 244 304.736 244H302.281ZM303.764 236.664V242.816H304.73C305.508 242.816 306.104 242.574 306.518 242.09C306.936 241.602 307.148 240.902 307.156 239.992V239.518C307.156 238.592 306.955 237.885 306.553 237.396C306.15 236.908 305.566 236.664 304.801 236.664H303.764ZM316.107 240.191H312.604V242.816H316.699V244H311.121V235.469H316.658V236.664H312.604V239.02H316.107V240.191ZM320.389 242.816H324.262V244H318.906V235.469H320.389V242.816ZM327.963 244H326.486V235.469H327.963V244ZM333.791 242.143L335.959 235.469H337.588L334.518 244H333.082L330.023 235.469H331.646L333.791 242.143ZM344.541 240.191H341.037V242.816H345.133V244H339.555V235.469H345.092V236.664H341.037V239.02H344.541V240.191ZM350.475 240.713H348.822V244H347.34V235.469H350.34C351.324 235.469 352.084 235.689 352.619 236.131C353.154 236.572 353.422 237.211 353.422 238.047C353.422 238.617 353.283 239.096 353.006 239.482C352.732 239.865 352.35 240.16 351.857 240.367L353.773 243.924V244H352.186L350.475 240.713ZM348.822 239.523H350.346C350.846 239.523 351.236 239.398 351.518 239.148C351.799 238.895 351.939 238.549 351.939 238.111C351.939 237.654 351.809 237.301 351.547 237.051C351.289 236.801 350.902 236.672 350.387 236.664H348.822V239.523ZM360.814 240.191H357.311V242.816H361.406V244H355.828V235.469H361.365V236.664H357.311V239.02H360.814V240.191ZM363.613 244V235.469H366.133C366.887 235.469 367.555 235.637 368.137 235.973C368.723 236.309 369.176 236.785 369.496 237.402C369.816 238.02 369.977 238.727 369.977 239.523V239.951C369.977 240.76 369.814 241.471 369.49 242.084C369.17 242.697 368.711 243.17 368.113 243.502C367.52 243.834 366.838 244 366.068 244H363.613ZM365.096 236.664V242.816H366.062C366.84 242.816 367.436 242.574 367.85 242.09C368.268 241.602 368.48 240.902 368.488 239.992V239.518C368.488 238.592 368.287 237.885 367.885 237.396C367.482 236.908 366.898 236.664 366.133 236.664H365.096Z" fill="#43C849"/>
</g>
<path d="M16 162H816V276C816 280.418 812.418 284 808 284H24C19.5817 284 16 280.418 16 276V162Z" fill="#304256" fill-opacity="0.01"/>
<defs>
<filter id="filter0_d" x="7" y="13" width="818" height="286" filterUnits="userSpaceOnUse" color-interpolation-filters="sRGB">
<feFlood flood-opacity="0" result="BackgroundImageFix"/>
<feColorMatrix in="SourceAlpha" type="matrix" values="0 0 0 0 0 0 0 0 0 0 0 0 0 0 0 0 0 0 127 0"/>
<feOffset dy="6"/>
<feGaussianBlur stdDeviation="4"/>
<feColorMatrix type="matrix" values="0 0 0 0 0.189684 0 0 0 0 0.258371 0 0 0 0 0.339179 0 0 0 0.15 0"/>
<feBlend mode="normal" in2="BackgroundImageFix" result="effect1_dropShadow"/>
<feBlend mode="normal" in="SourceGraphic" in2="effect1_dropShadow" result="shape"/>
</filter>
</defs>
</svg>
