<svg width="32" height="32" viewBox="0 0 32 32" fill="none" xmlns="http://www.w3.org/2000/svg">
<path d="M15.5 6C15.5 5.72386 15.2761 5.5 15 5.5C14.7239 5.5 14.5 5.72386 14.5 6H15.5ZM11.6464 13.6464C11.4512 13.8417 11.4512 14.1583 11.6464 14.3536C11.8417 14.5488 12.1583 14.5488 12.3536 14.3536L11.6464 13.6464ZM17.5 6C17.5 5.72386 17.2761 5.5 17 5.5C16.7239 5.5 16.5 5.72386 16.5 6H17.5ZM19.6464 14.3536C19.8417 14.5488 20.1583 14.5488 20.3536 14.3536C20.5488 14.1583 20.5488 13.8417 20.3536 13.6464L19.6464 14.3536ZM13.1464 15.1464C12.9512 15.3417 12.9512 15.6583 13.1464 15.8536C13.3417 16.0488 13.6583 16.0488 13.8536 15.8536L13.1464 15.1464ZM18.1464 15.8536C18.3417 16.0488 18.6583 16.0488 18.8536 15.8536C19.0488 15.6583 19.0488 15.3417 18.8536 15.1464L18.1464 15.8536ZM15.2929 13.7071L14.9393 13.3536L15.2929 13.7071ZM14.5 6V10.1716H15.5V6H14.5ZM14.0607 11.2322L11.6464 13.6464L12.3536 14.3536L14.7678 11.9393L14.0607 11.2322ZM16.5 6V10.1716H17.5V6H16.5ZM17.2322 11.9393L19.6464 14.3536L20.3536 13.6464L17.9393 11.2322L17.2322 11.9393ZM13.8536 15.8536L15.6464 14.0607L14.9393 13.3536L13.1464 15.1464L13.8536 15.8536ZM16.3536 14.0607L18.1464 15.8536L18.8536 15.1464L17.0607 13.3536L16.3536 14.0607ZM15.6464 14.0607C15.8417 13.8654 16.1583 13.8654 16.3536 14.0607L17.0607 13.3536C16.4749 12.7678 15.5251 12.7678 14.9393 13.3536L15.6464 14.0607ZM16.5 10.1716C16.5 10.8346 16.7634 11.4705 17.2322 11.9393L17.9393 11.2322C17.658 10.9509 17.5 10.5694 17.5 10.1716H16.5ZM14.5 10.1716C14.5 10.5694 14.342 10.9509 14.0607 11.2322L14.7678 11.9393C15.2366 11.4705 15.5 10.8346 15.5 10.1716H14.5Z" fill="#2F80ED"/>
<path d="M14 12L12.4142 10.4142C11.6332 9.63317 10.3668 9.63316 9.58579 10.4142L7.84315 12.1569C6.34286 13.6571 5.5 15.692 5.5 17.8137V24.5C5.5 25.6046 6.39543 26.5 7.5 26.5H8.9792C9.95886 26.5 10.9045 26.1405 11.6367 25.4896L13.6575 23.6934C14.5114 22.9343 15 21.8463 15 20.7037V14" stroke="#2F80ED"/>
<path d="M18 12L19.5858 10.4142C20.3668 9.63317 21.6332 9.63316 22.4142 10.4142L24.1569 12.1569C25.6571 13.6571 26.5 15.692 26.5 17.8137V24.5C26.5 25.6046 25.6046 26.5 24.5 26.5H23.0208C22.0411 26.5 21.0955 26.1405 20.3633 25.4896L18.3425 23.6934C17.4886 22.9343 17 21.8463 17 20.7037V14" stroke="#2F80ED"/>
<path d="M11.5 16L10.5858 16.9142C10.2107 17.2893 10 17.798 10 18.3284V21.1716C10 21.702 9.78929 22.2107 9.41421 22.5858L8 24" stroke="#2F80ED" stroke-linecap="round"/>
<path d="M10 18.5H11.0858C11.351 18.5 11.6054 18.6054 11.7929 18.7929L12.5 19.5" stroke="#2F80ED" stroke-linecap="round"/>
<path d="M9.5 20.5H8.5M8.5 20.5L7.5 19.5M8.5 20.5L7.5 21.5" stroke="#2F80ED" stroke-linecap="round"/>
<path d="M10.5 17L9 15.5" stroke="#2F80ED" stroke-linecap="round"/>
<path d="M20.5 16L21.4142 16.9142C21.7893 17.2893 22 17.798 22 18.3284V21.1716C22 21.702 22.2107 22.2107 22.5858 22.5858L24 24" stroke="#2F80ED" stroke-linecap="round"/>
<path d="M22 18.5H20.9142C20.649 18.5 20.3946 18.6054 20.2071 18.7929L19.5 19.5" stroke="#2F80ED" stroke-linecap="round"/>
<path d="M22.5 20.5H23.5M23.5 20.5L24.5 19.5M23.5 20.5L24.5 21.5" stroke="#2F80ED" stroke-linecap="round"/>
<path d="M21.5 17L23 15.5" stroke="#2F80ED" stroke-linecap="round"/>
</svg>
