<svg width="32" height="32" viewBox="0 0 32 32" fill="none" xmlns="http://www.w3.org/2000/svg">
<path d="M19.5 9C19.5 9.24513 19.3862 9.52048 19.094 9.81652C18.7997 10.1147 18.3491 10.4062 17.7528 10.6617C16.5619 11.1721 14.8819 11.5 13 11.5C11.1181 11.5 9.43808 11.1721 8.24721 10.6617C7.65089 10.4062 7.20026 10.1147 6.90597 9.81652C6.6138 9.52048 6.5 9.24513 6.5 9C6.5 8.75487 6.6138 8.47952 6.90597 8.18348C7.20026 7.88529 7.65089 7.59382 8.24721 7.33825C9.43808 6.82788 11.1181 6.5 13 6.5C14.8819 6.5 16.5619 6.82788 17.7528 7.33825C18.3491 7.59382 18.7997 7.88529 19.094 8.18348C19.3862 8.47952 19.5 8.75487 19.5 9Z" stroke="#2F80ED"/>
<path d="M15.5129 8.93995C15.5131 8.93995 15.5125 8.94107 15.5109 8.94327C15.512 8.94104 15.5128 8.93994 15.5129 8.93995ZM14.9632 8.76723C15.2016 8.84669 15.3603 8.93039 15.4503 9C15.3603 9.06961 15.2016 9.15331 14.9632 9.23277C14.4838 9.39258 13.7896 9.5 13 9.5C12.2104 9.5 11.5162 9.39258 11.0368 9.23277C10.7984 9.15331 10.6397 9.06961 10.5497 9C10.6397 8.93039 10.7984 8.84669 11.0368 8.76723C11.5162 8.60742 12.2104 8.5 13 8.5C13.7896 8.5 14.4838 8.60742 14.9632 8.76723ZM10.4871 8.93995C10.4872 8.93994 10.488 8.94104 10.4891 8.94327C10.4875 8.94107 10.4869 8.93995 10.4871 8.93995ZM10.4871 9.06005C10.4869 9.06005 10.4875 9.05893 10.4891 9.05673C10.488 9.05896 10.4872 9.06006 10.4871 9.06005ZM15.5109 9.05673C15.5125 9.05893 15.5131 9.06005 15.5129 9.06005C15.5128 9.06006 15.512 9.05896 15.5109 9.05673Z" stroke="#2F80ED"/>
<path d="M19.5 9C19.5 9.23036 19.604 9.50218 19.8924 9.80057C20.1835 10.1018 20.6357 10.3997 21.2472 10.6617C21.8554 10.9224 22.5891 11.1339 23.4086 11.2793C23.9192 11.37 24.4541 11.4334 25.0007 11.4683C25.5518 11.5035 26 11.9477 26 12.5V24.5C26 25.0523 25.5518 25.5035 25.0007 25.4683C24.4541 25.4334 23.9192 25.37 23.4086 25.2793C22.5891 25.1339 21.8554 24.9224 21.2472 24.6617C20.6357 24.3997 20.1835 24.1018 19.8924 23.8006C19.604 23.5022 19.5 23.2304 19.5 23" stroke="#2F80ED"/>
<path d="M19.1076 23.8006C19.3938 23.5045 19.5 23.233 19.5 23V9C19.5 9.23305 19.3938 9.50451 19.1076 9.80057C18.8195 10.0987 18.37 10.3972 17.7528 10.6617C16.5179 11.191 14.8082 11.5 13 11.5C11.1918 11.5 9.48208 11.191 8.24721 10.6617C7.63004 10.3972 7.18055 10.0987 6.89237 9.80057C6.60623 9.50451 6.5 9.23305 6.5 9V23C6.5 23.233 6.60623 23.5045 6.89237 23.8006C7.18055 24.0987 7.63004 24.3972 8.24721 24.6617C9.48208 25.191 11.1918 25.5 13 25.5C14.8082 25.5 16.5179 25.191 17.7528 24.6617C18.37 24.3972 18.8195 24.0987 19.1076 23.8006Z" stroke="#2F80ED"/>
<path d="M10 11.5V25" stroke="#2F80ED" stroke-linecap="round" stroke-dasharray="2 2"/>
</svg>
