<svg width="792" height="564" viewBox="0 0 792 564" fill="none" xmlns="http://www.w3.org/2000/svg">
<g filter="url(#filter0_d)">
<rect x="9" y="3" width="774" height="546" rx="8" fill="white" stroke="#EAF2FD" stroke-width="2"/>
</g>
<rect x="49" y="77" width="40" height="40" rx="4" fill="#FF5A5A"/>
<path d="M113.004 98.4258H109.699V105H106.734V87.9375H112.734C114.703 87.9375 116.223 88.3789 117.293 89.2617C118.363 90.1445 118.898 91.4219 118.898 93.0938C118.898 94.2344 118.621 95.1914 118.066 95.9648C117.52 96.7305 116.754 97.3203 115.77 97.7344L119.602 104.848V105H116.426L113.004 98.4258ZM109.699 96.0469H112.746C113.746 96.0469 114.527 95.7969 115.09 95.2969C115.652 94.7891 115.934 94.0977 115.934 93.2227C115.934 92.3086 115.672 91.6016 115.148 91.1016C114.633 90.6016 113.859 90.3438 112.828 90.3281H109.699V96.0469ZM127.02 105.234C125.215 105.234 123.75 104.668 122.625 103.535C121.508 102.395 120.949 100.879 120.949 98.9883V98.6367C120.949 97.3711 121.191 96.2422 121.676 95.25C122.168 94.25 122.855 93.4727 123.738 92.918C124.621 92.3633 125.605 92.0859 126.691 92.0859C128.418 92.0859 129.75 92.6367 130.688 93.7383C131.633 94.8398 132.105 96.3984 132.105 98.4141V99.5625H123.82C123.906 100.609 124.254 101.438 124.863 102.047C125.48 102.656 126.254 102.961 127.184 102.961C128.488 102.961 129.551 102.434 130.371 101.379L131.906 102.844C131.398 103.602 130.719 104.191 129.867 104.613C129.023 105.027 128.074 105.234 127.02 105.234ZM126.68 94.3711C125.898 94.3711 125.266 94.6445 124.781 95.1914C124.305 95.7383 124 96.5 123.867 97.4766H129.293V97.2656C129.23 96.3125 128.977 95.5938 128.531 95.1094C128.086 94.6172 127.469 94.3711 126.68 94.3711ZM133.793 98.5547C133.793 96.5703 134.246 94.9961 135.152 93.832C136.059 92.668 137.285 92.0859 138.832 92.0859C140.246 92.0859 141.367 92.582 142.195 93.5742L142.359 92.3203H144.891V109.875H142.043V103.922C141.215 104.797 140.137 105.234 138.809 105.234C137.293 105.234 136.078 104.645 135.164 103.465C134.25 102.277 133.793 100.641 133.793 98.5547ZM136.641 98.8008C136.641 100.098 136.895 101.117 137.402 101.859C137.918 102.594 138.629 102.961 139.535 102.961C140.66 102.961 141.496 102.48 142.043 101.52V95.7539C141.496 94.832 140.668 94.3711 139.559 94.3711C138.652 94.3711 137.938 94.7344 137.414 95.4609C136.898 96.1875 136.641 97.3008 136.641 98.8008ZM155.648 103.758C154.812 104.742 153.625 105.234 152.086 105.234C150.711 105.234 149.668 104.832 148.957 104.027C148.254 103.223 147.902 102.059 147.902 100.535V92.3203H150.75V100.5C150.75 102.109 151.418 102.914 152.754 102.914C154.137 102.914 155.07 102.418 155.555 101.426V92.3203H158.402V105H155.719L155.648 103.758ZM166.887 105.234C165.082 105.234 163.617 104.668 162.492 103.535C161.375 102.395 160.816 100.879 160.816 98.9883V98.6367C160.816 97.3711 161.059 96.2422 161.543 95.25C162.035 94.25 162.723 93.4727 163.605 92.918C164.488 92.3633 165.473 92.0859 166.559 92.0859C168.285 92.0859 169.617 92.6367 170.555 93.7383C171.5 94.8398 171.973 96.3984 171.973 98.4141V99.5625H163.688C163.773 100.609 164.121 101.438 164.73 102.047C165.348 102.656 166.121 102.961 167.051 102.961C168.355 102.961 169.418 102.434 170.238 101.379L171.773 102.844C171.266 103.602 170.586 104.191 169.734 104.613C168.891 105.027 167.941 105.234 166.887 105.234ZM166.547 94.3711C165.766 94.3711 165.133 94.6445 164.648 95.1914C164.172 95.7383 163.867 96.5 163.734 97.4766H169.16V97.2656C169.098 96.3125 168.844 95.5938 168.398 95.1094C167.953 94.6172 167.336 94.3711 166.547 94.3711ZM181.301 101.555C181.301 101.047 181.09 100.66 180.668 100.395C180.254 100.129 179.562 99.8945 178.594 99.6914C177.625 99.4883 176.816 99.2305 176.168 98.918C174.746 98.2305 174.035 97.2344 174.035 95.9297C174.035 94.8359 174.496 93.9219 175.418 93.1875C176.34 92.4531 177.512 92.0859 178.934 92.0859C180.449 92.0859 181.672 92.4609 182.602 93.2109C183.539 93.9609 184.008 94.9336 184.008 96.1289H181.16C181.16 95.582 180.957 95.1289 180.551 94.7695C180.145 94.4023 179.605 94.2188 178.934 94.2188C178.309 94.2188 177.797 94.3633 177.398 94.6523C177.008 94.9414 176.812 95.3281 176.812 95.8125C176.812 96.25 176.996 96.5898 177.363 96.832C177.73 97.0742 178.473 97.3203 179.59 97.5703C180.707 97.8125 181.582 98.1055 182.215 98.4492C182.855 98.7852 183.328 99.1914 183.633 99.668C183.945 100.145 184.102 100.723 184.102 101.402C184.102 102.543 183.629 103.469 182.684 104.18C181.738 104.883 180.5 105.234 178.969 105.234C177.93 105.234 177.004 105.047 176.191 104.672C175.379 104.297 174.746 103.781 174.293 103.125C173.84 102.469 173.613 101.762 173.613 101.004H176.379C176.418 101.676 176.672 102.195 177.141 102.562C177.609 102.922 178.23 103.102 179.004 103.102C179.754 103.102 180.324 102.961 180.715 102.68C181.105 102.391 181.301 102.016 181.301 101.555ZM190.16 89.2383V92.3203H192.398V94.4297H190.16V101.508C190.16 101.992 190.254 102.344 190.441 102.562C190.637 102.773 190.98 102.879 191.473 102.879C191.801 102.879 192.133 102.84 192.469 102.762V104.965C191.82 105.145 191.195 105.234 190.594 105.234C188.406 105.234 187.312 104.027 187.312 101.613V94.4297H185.227V92.3203H187.312V89.2383H190.16ZM201.562 105V94.4297H199.629V92.3203H201.562V91.1602C201.562 89.7539 201.953 88.668 202.734 87.9023C203.516 87.1367 204.609 86.7539 206.016 86.7539C206.516 86.7539 207.047 86.8242 207.609 86.9648L207.539 89.1914C207.227 89.1289 206.863 89.0977 206.449 89.0977C205.09 89.0977 204.41 89.7969 204.41 91.1953V92.3203H206.988V94.4297H204.41V105H201.562ZM208.535 98.543C208.535 97.3008 208.781 96.1836 209.273 95.1914C209.766 94.1914 210.457 93.4258 211.348 92.8945C212.238 92.3555 213.262 92.0859 214.418 92.0859C216.129 92.0859 217.516 92.6367 218.578 93.7383C219.648 94.8398 220.227 96.3008 220.312 98.1211L220.324 98.7891C220.324 100.039 220.082 101.156 219.598 102.141C219.121 103.125 218.434 103.887 217.535 104.426C216.645 104.965 215.613 105.234 214.441 105.234C212.652 105.234 211.219 104.641 210.141 103.453C209.07 102.258 208.535 100.668 208.535 98.6836V98.543ZM211.383 98.7891C211.383 100.094 211.652 101.117 212.191 101.859C212.73 102.594 213.48 102.961 214.441 102.961C215.402 102.961 216.148 102.586 216.68 101.836C217.219 101.086 217.488 99.9883 217.488 98.543C217.488 97.2617 217.211 96.2461 216.656 95.4961C216.109 94.7461 215.363 94.3711 214.418 94.3711C213.488 94.3711 212.75 94.7422 212.203 95.4844C211.656 96.2188 211.383 97.3203 211.383 98.7891ZM229.371 94.9219C228.996 94.8594 228.609 94.8281 228.211 94.8281C226.906 94.8281 226.027 95.3281 225.574 96.3281V105H222.727V92.3203H225.445L225.516 93.7383C226.203 92.6367 227.156 92.0859 228.375 92.0859C228.781 92.0859 229.117 92.1406 229.383 92.25L229.371 94.9219ZM243.691 98.4258H240.387V105H237.422V87.9375H243.422C245.391 87.9375 246.91 88.3789 247.98 89.2617C249.051 90.1445 249.586 91.4219 249.586 93.0938C249.586 94.2344 249.309 95.1914 248.754 95.9648C248.207 96.7305 247.441 97.3203 246.457 97.7344L250.289 104.848V105H247.113L243.691 98.4258ZM240.387 96.0469H243.434C244.434 96.0469 245.215 95.7969 245.777 95.2969C246.34 94.7891 246.621 94.0977 246.621 93.2227C246.621 92.3086 246.359 91.6016 245.836 91.1016C245.32 90.6016 244.547 90.3438 243.516 90.3281H240.387V96.0469ZM257.707 105.234C255.902 105.234 254.438 104.668 253.312 103.535C252.195 102.395 251.637 100.879 251.637 98.9883V98.6367C251.637 97.3711 251.879 96.2422 252.363 95.25C252.855 94.25 253.543 93.4727 254.426 92.918C255.309 92.3633 256.293 92.0859 257.379 92.0859C259.105 92.0859 260.438 92.6367 261.375 93.7383C262.32 94.8398 262.793 96.3984 262.793 98.4141V99.5625H254.508C254.594 100.609 254.941 101.438 255.551 102.047C256.168 102.656 256.941 102.961 257.871 102.961C259.176 102.961 260.238 102.434 261.059 101.379L262.594 102.844C262.086 103.602 261.406 104.191 260.555 104.613C259.711 105.027 258.762 105.234 257.707 105.234ZM257.367 94.3711C256.586 94.3711 255.953 94.6445 255.469 95.1914C254.992 95.7383 254.688 96.5 254.555 97.4766H259.98V97.2656C259.918 96.3125 259.664 95.5938 259.219 95.1094C258.773 94.6172 258.156 94.3711 257.367 94.3711ZM272.121 101.555C272.121 101.047 271.91 100.66 271.488 100.395C271.074 100.129 270.383 99.8945 269.414 99.6914C268.445 99.4883 267.637 99.2305 266.988 98.918C265.566 98.2305 264.855 97.2344 264.855 95.9297C264.855 94.8359 265.316 93.9219 266.238 93.1875C267.16 92.4531 268.332 92.0859 269.754 92.0859C271.27 92.0859 272.492 92.4609 273.422 93.2109C274.359 93.9609 274.828 94.9336 274.828 96.1289H271.98C271.98 95.582 271.777 95.1289 271.371 94.7695C270.965 94.4023 270.426 94.2188 269.754 94.2188C269.129 94.2188 268.617 94.3633 268.219 94.6523C267.828 94.9414 267.633 95.3281 267.633 95.8125C267.633 96.25 267.816 96.5898 268.184 96.832C268.551 97.0742 269.293 97.3203 270.41 97.5703C271.527 97.8125 272.402 98.1055 273.035 98.4492C273.676 98.7852 274.148 99.1914 274.453 99.668C274.766 100.145 274.922 100.723 274.922 101.402C274.922 102.543 274.449 103.469 273.504 104.18C272.559 104.883 271.32 105.234 269.789 105.234C268.75 105.234 267.824 105.047 267.012 104.672C266.199 104.297 265.566 103.781 265.113 103.125C264.66 102.469 264.434 101.762 264.434 101.004H267.199C267.238 101.676 267.492 102.195 267.961 102.562C268.43 102.922 269.051 103.102 269.824 103.102C270.574 103.102 271.145 102.961 271.535 102.68C271.926 102.391 272.121 102.016 272.121 101.555ZM288.516 98.7891C288.516 100.75 288.07 102.316 287.18 103.488C286.289 104.652 285.094 105.234 283.594 105.234C282.203 105.234 281.09 104.777 280.254 103.863V109.875H277.406V92.3203H280.031L280.148 93.6094C280.984 92.5938 282.121 92.0859 283.559 92.0859C285.105 92.0859 286.316 92.6641 287.191 93.8203C288.074 94.9688 288.516 96.5664 288.516 98.6133V98.7891ZM285.68 98.543C285.68 97.2773 285.426 96.2734 284.918 95.5312C284.418 94.7891 283.699 94.418 282.762 94.418C281.598 94.418 280.762 94.8984 280.254 95.8594V101.484C280.77 102.469 281.613 102.961 282.785 102.961C283.691 102.961 284.398 102.598 284.906 101.871C285.422 101.137 285.68 100.027 285.68 98.543ZM293.965 105H291.117V92.3203H293.965V105ZM290.941 89.0273C290.941 88.5898 291.078 88.2266 291.352 87.9375C291.633 87.6484 292.031 87.5039 292.547 87.5039C293.062 87.5039 293.461 87.6484 293.742 87.9375C294.023 88.2266 294.164 88.5898 294.164 89.0273C294.164 89.457 294.023 89.8164 293.742 90.1055C293.461 90.3867 293.062 90.5273 292.547 90.5273C292.031 90.5273 291.633 90.3867 291.352 90.1055C291.078 89.8164 290.941 89.457 290.941 89.0273ZM303.715 94.9219C303.34 94.8594 302.953 94.8281 302.555 94.8281C301.25 94.8281 300.371 95.3281 299.918 96.3281V105H297.07V92.3203H299.789L299.859 93.7383C300.547 92.6367 301.5 92.0859 302.719 92.0859C303.125 92.0859 303.461 92.1406 303.727 92.25L303.715 94.9219ZM312.738 105C312.613 104.758 312.504 104.363 312.41 103.816C311.504 104.762 310.395 105.234 309.082 105.234C307.809 105.234 306.77 104.871 305.965 104.145C305.16 103.418 304.758 102.52 304.758 101.449C304.758 100.098 305.258 99.0625 306.258 98.3438C307.266 97.6172 308.703 97.2539 310.57 97.2539H312.316V96.4219C312.316 95.7656 312.133 95.2422 311.766 94.8516C311.398 94.4531 310.84 94.2539 310.09 94.2539C309.441 94.2539 308.91 94.418 308.496 94.7461C308.082 95.0664 307.875 95.4766 307.875 95.9766H305.027C305.027 95.2812 305.258 94.6328 305.719 94.0312C306.18 93.4219 306.805 92.9453 307.594 92.6016C308.391 92.2578 309.277 92.0859 310.254 92.0859C311.738 92.0859 312.922 92.4609 313.805 93.2109C314.688 93.9531 315.141 95 315.164 96.3516V102.07C315.164 103.211 315.324 104.121 315.645 104.801V105H312.738ZM309.609 102.949C310.172 102.949 310.699 102.812 311.191 102.539C311.691 102.266 312.066 101.898 312.316 101.438V99.0469H310.781C309.727 99.0469 308.934 99.2305 308.402 99.5977C307.871 99.9648 307.605 100.484 307.605 101.156C307.605 101.703 307.785 102.141 308.145 102.469C308.512 102.789 309 102.949 309.609 102.949ZM321.715 89.2383V92.3203H323.953V94.4297H321.715V101.508C321.715 101.992 321.809 102.344 321.996 102.562C322.191 102.773 322.535 102.879 323.027 102.879C323.355 102.879 323.688 102.84 324.023 102.762V104.965C323.375 105.145 322.75 105.234 322.148 105.234C319.961 105.234 318.867 104.027 318.867 101.613V94.4297H316.781V92.3203H318.867V89.2383H321.715ZM325.254 98.543C325.254 97.3008 325.5 96.1836 325.992 95.1914C326.484 94.1914 327.176 93.4258 328.066 92.8945C328.957 92.3555 329.98 92.0859 331.137 92.0859C332.848 92.0859 334.234 92.6367 335.297 93.7383C336.367 94.8398 336.945 96.3008 337.031 98.1211L337.043 98.7891C337.043 100.039 336.801 101.156 336.316 102.141C335.84 103.125 335.152 103.887 334.254 104.426C333.363 104.965 332.332 105.234 331.16 105.234C329.371 105.234 327.938 104.641 326.859 103.453C325.789 102.258 325.254 100.668 325.254 98.6836V98.543ZM328.102 98.7891C328.102 100.094 328.371 101.117 328.91 101.859C329.449 102.594 330.199 102.961 331.16 102.961C332.121 102.961 332.867 102.586 333.398 101.836C333.938 101.086 334.207 99.9883 334.207 98.543C334.207 97.2617 333.93 96.2461 333.375 95.4961C332.828 94.7461 332.082 94.3711 331.137 94.3711C330.207 94.3711 329.469 94.7422 328.922 95.4844C328.375 96.2188 328.102 97.3203 328.102 98.7891ZM346.09 94.9219C345.715 94.8594 345.328 94.8281 344.93 94.8281C343.625 94.8281 342.746 95.3281 342.293 96.3281V105H339.445V92.3203H342.164L342.234 93.7383C342.922 92.6367 343.875 92.0859 345.094 92.0859C345.5 92.0859 345.836 92.1406 346.102 92.25L346.09 94.9219ZM354.996 101.555C354.996 101.047 354.785 100.66 354.363 100.395C353.949 100.129 353.258 99.8945 352.289 99.6914C351.32 99.4883 350.512 99.2305 349.863 98.918C348.441 98.2305 347.73 97.2344 347.73 95.9297C347.73 94.8359 348.191 93.9219 349.113 93.1875C350.035 92.4531 351.207 92.0859 352.629 92.0859C354.145 92.0859 355.367 92.4609 356.297 93.2109C357.234 93.9609 357.703 94.9336 357.703 96.1289H354.855C354.855 95.582 354.652 95.1289 354.246 94.7695C353.84 94.4023 353.301 94.2188 352.629 94.2188C352.004 94.2188 351.492 94.3633 351.094 94.6523C350.703 94.9414 350.508 95.3281 350.508 95.8125C350.508 96.25 350.691 96.5898 351.059 96.832C351.426 97.0742 352.168 97.3203 353.285 97.5703C354.402 97.8125 355.277 98.1055 355.91 98.4492C356.551 98.7852 357.023 99.1914 357.328 99.668C357.641 100.145 357.797 100.723 357.797 101.402C357.797 102.543 357.324 103.469 356.379 104.18C355.434 104.883 354.195 105.234 352.664 105.234C351.625 105.234 350.699 105.047 349.887 104.672C349.074 104.297 348.441 103.781 347.988 103.125C347.535 102.469 347.309 101.762 347.309 101.004H350.074C350.113 101.676 350.367 102.195 350.836 102.562C351.305 102.922 351.926 103.102 352.699 103.102C353.449 103.102 354.02 102.961 354.41 102.68C354.801 102.391 354.996 102.016 354.996 101.555Z" fill="#304256"/>
<path d="M389.238 99.6797C389.043 101.477 388.398 102.852 387.305 103.805C386.219 104.758 384.77 105.234 382.957 105.234C381.691 105.234 380.57 104.918 379.594 104.285C378.625 103.652 377.875 102.758 377.344 101.602C376.812 100.438 376.543 99.1094 376.535 97.6172V95.4023C376.535 93.8867 376.801 92.543 377.332 91.3711C377.863 90.1992 378.625 89.2969 379.617 88.6641C380.617 88.0234 381.766 87.7031 383.062 87.7031C384.891 87.7031 386.332 88.1992 387.387 89.1914C388.449 90.1758 389.066 91.5391 389.238 93.2812H387.785C387.426 90.3828 385.852 88.9336 383.062 88.9336C381.516 88.9336 380.281 89.5117 379.359 90.668C378.445 91.8242 377.988 93.4219 377.988 95.4609V97.5469C377.988 99.5156 378.434 101.086 379.324 102.258C380.223 103.43 381.434 104.016 382.957 104.016C384.465 104.016 385.602 103.656 386.367 102.938C387.133 102.211 387.605 101.125 387.785 99.6797H389.238ZM405.352 97.3945C405.352 98.9648 405.078 100.344 404.531 101.531C403.992 102.719 403.219 103.633 402.211 104.273C401.203 104.914 400.039 105.234 398.719 105.234C396.727 105.234 395.117 104.523 393.891 103.102C392.664 101.672 392.051 99.7461 392.051 97.3242V95.5664C392.051 94.0117 392.324 92.6367 392.871 91.4414C393.426 90.2383 394.207 89.3164 395.215 88.6758C396.223 88.0273 397.383 87.7031 398.695 87.7031C400.008 87.7031 401.164 88.0195 402.164 88.6523C403.172 89.2852 403.949 90.1797 404.496 91.3359C405.043 92.4922 405.328 93.832 405.352 95.3555V97.3945ZM403.91 95.543C403.91 93.4883 403.445 91.8789 402.516 90.7148C401.586 89.5508 400.312 88.9688 398.695 88.9688C397.109 88.9688 395.844 89.5547 394.898 90.7266C393.961 91.8906 393.492 93.5195 393.492 95.6133V97.3945C393.492 99.418 393.961 101.023 394.898 102.211C395.836 103.391 397.109 103.98 398.719 103.98C400.352 103.98 401.625 103.398 402.539 102.234C403.453 101.062 403.91 99.4336 403.91 97.3477V95.543ZM413.871 102.891L413.965 103.254L414.07 102.891L419.438 87.9375H421.02L414.668 105H413.285L406.934 87.9375H408.504L413.871 102.891ZM427.125 98.0625H421.512V96.8789H427.125V98.0625ZM435.938 105H434.531V89.625L429.891 91.3477V90.0352L435.703 87.8789H435.938V105ZM453.41 105H442.723V103.922L448.57 97.2891C449.539 96.1719 450.211 95.25 450.586 94.5234C450.961 93.7969 451.148 93.0898 451.148 92.4023C451.148 91.3242 450.832 90.4727 450.199 89.8477C449.566 89.2148 448.695 88.8984 447.586 88.8984C446.438 88.8984 445.508 89.2656 444.797 90C444.094 90.7344 443.742 91.6875 443.742 92.8594H442.348C442.348 91.8984 442.562 91.0234 442.992 90.2344C443.43 89.4453 444.047 88.8281 444.844 88.3828C445.648 87.9297 446.562 87.7031 447.586 87.7031C449.148 87.7031 450.367 88.1133 451.242 88.9336C452.125 89.7539 452.566 90.8711 452.566 92.2852C452.566 93.082 452.316 93.9531 451.816 94.8984C451.324 95.8438 450.453 97.0234 449.203 98.4375L444.445 103.816H453.41V105ZM459.152 95.707H460.605C461.41 95.707 462.113 95.5664 462.715 95.2852C463.316 94.9961 463.773 94.6055 464.086 94.1133C464.406 93.6133 464.566 93.0391 464.566 92.3906C464.566 91.2969 464.258 90.4414 463.641 89.8242C463.023 89.207 462.137 88.8984 460.98 88.8984C459.887 88.8984 458.988 89.2227 458.285 89.8711C457.59 90.5117 457.242 91.3594 457.242 92.4141H455.836C455.836 91.5312 456.059 90.7266 456.504 90C456.949 89.2656 457.566 88.6992 458.355 88.3008C459.145 87.9023 460.02 87.7031 460.98 87.7031C462.527 87.7031 463.746 88.125 464.637 88.9688C465.527 89.8125 465.973 90.9688 465.973 92.4375C465.973 93.2578 465.711 94.0156 465.188 94.7109C464.672 95.3984 463.961 95.9141 463.055 96.2578C464.117 96.5547 464.922 97.0664 465.469 97.793C466.016 98.5117 466.289 99.3711 466.289 100.371C466.289 101.832 465.812 103.008 464.859 103.898C463.906 104.789 462.633 105.234 461.039 105.234C460.023 105.234 459.09 105.031 458.238 104.625C457.395 104.219 456.738 103.652 456.27 102.926C455.809 102.191 455.578 101.34 455.578 100.371H456.984C456.984 101.457 457.363 102.344 458.121 103.031C458.879 103.711 459.852 104.051 461.039 104.051C462.25 104.051 463.191 103.742 463.863 103.125C464.543 102.5 464.883 101.598 464.883 100.418C464.883 99.2773 464.516 98.4062 463.781 97.8047C463.055 97.2031 461.98 96.9023 460.559 96.9023H459.152V95.707ZM475.875 105H474.469V89.625L469.828 91.3477V90.0352L475.641 87.8789H475.875V105Z" fill="#6984A3"/>
<line x1="26" y1="148" x2="766" y2="148" stroke="#EAF2FD" stroke-width="2" stroke-linecap="round"/>
<line x1="26" y1="270" x2="766" y2="270" stroke="#EAF2FD" stroke-width="2" stroke-linecap="round"/>
<mask id="path-9-inside-1" fill="white">
<path fill-rule="evenodd" clip-rule="evenodd" d="M74.9412 91.3671C75.3393 92.3027 75.9264 93.1574 76.6624 93.8589C78.1214 95.2492 79 97.0423 79 98.9996C79 103.418 74.5228 107 69 107C63.4772 107 59 103.418 59 98.9996C59 97.0423 59.8786 95.2492 61.3376 93.8589C62.0736 93.1574 62.6607 92.3027 63.0588 91.3671C64.1617 88.7749 66.4081 87 69 87C71.5919 87 73.8383 88.7749 74.9412 91.3671Z"/>
</mask>
<path d="M61.3376 93.8589L60.3027 92.773L61.3376 93.8589ZM74.9412 91.3671L76.3215 90.7798L74.9412 91.3671ZM75.6276 94.9448C76.8377 96.0979 77.5 97.5147 77.5 98.9996H80.5C80.5 96.5698 79.4051 94.4005 77.6973 92.773L75.6276 94.9448ZM77.5 98.9996C77.5 102.294 74.0241 105.5 69 105.5V108.5C75.0216 108.5 80.5 104.541 80.5 98.9996H77.5ZM69 105.5C63.9759 105.5 60.5 102.294 60.5 98.9996H57.5C57.5 104.541 62.9784 108.5 69 108.5V105.5ZM60.5 98.9996C60.5 97.5147 61.1623 96.0979 62.3724 94.9448L60.3027 92.773C58.5949 94.4005 57.5 96.5698 57.5 98.9996H60.5ZM64.439 91.9544C65.3647 89.7789 67.1454 88.5 69 88.5V85.5C65.6708 85.5 62.9588 87.7709 61.6785 90.7798L64.439 91.9544ZM69 88.5C70.8546 88.5 72.6353 89.7789 73.561 91.9544L76.3215 90.7798C75.0412 87.7709 72.3292 85.5 69 85.5V88.5ZM62.3724 94.9448C63.2594 94.0995 63.9626 93.0741 64.439 91.9544L61.6785 90.7798C61.3588 91.5313 60.8879 92.2154 60.3027 92.773L62.3724 94.9448ZM77.6973 92.773C77.1121 92.2154 76.6412 91.5313 76.3215 90.7798L73.561 91.9544C74.0374 93.0741 74.7406 94.0995 75.6276 94.9448L77.6973 92.773Z" fill="white" mask="url(#path-9-inside-1)"/>
<path d="M66 93L67.4 91.1333C68.2 90.0667 69.8 90.0667 70.6 91.1333L72 93" stroke="white" stroke-width="1.5" stroke-linecap="round" stroke-linejoin="round"/>
<circle cx="69" cy="100" r="2.75" stroke="white" stroke-width="1.5"/>
<path d="M62 104L60.9542 105.046C59.8749 106.125 58.1251 106.125 57.0458 105.046V105.046C56.3925 104.392 56.1088 103.456 56.2901 102.55L56.6862 100.569C56.8934 99.5332 56.8934 98.4668 56.6862 97.4311L56.2901 95.4503C56.1088 94.5442 56.3925 93.6075 57.0458 92.9542V92.9542C58.1251 91.8749 59.8749 91.8749 60.9542 92.9542L62 94" stroke="white" stroke-width="1.5"/>
<path d="M76 104L77.0458 105.046C78.1251 106.125 79.8749 106.125 80.9542 105.046V105.046C81.6075 104.392 81.8912 103.456 81.7099 102.55L81.3138 100.569C81.1066 99.5332 81.1066 98.4668 81.3138 97.4311L81.7099 95.4503C81.8912 94.5442 81.6075 93.6075 80.9542 92.9542V92.9542C79.8749 91.8749 78.1251 91.8749 77.0458 92.9542L76 94" stroke="white" stroke-width="1.5"/>
<path d="M67 100H71" stroke="white" stroke-width="1.5"/>
<rect opacity="0.1" x="49" y="43" width="58" height="18" rx="4" fill="#304256"/>
<rect opacity="0.1" x="49" y="181" width="65" height="18" rx="4" fill="#304256"/>
<rect opacity="0.2" x="49" y="215" width="89" height="24" rx="4" fill="#304256"/>
<rect opacity="0.2" x="178" y="215" width="69" height="24" rx="4" fill="#304256"/>
<rect opacity="0.2" x="485" y="215" width="97" height="24" rx="4" fill="#304256"/>
<rect opacity="0.2" x="623" y="215" width="55" height="24" rx="4" fill="#304256"/>
<rect opacity="0.1" x="178" y="181" width="130" height="18" rx="4" fill="#304256"/>
<rect opacity="0.1" x="347" y="181" width="50" height="18" rx="4" fill="#304256"/>
<rect opacity="0.2" x="348" y="215" width="97" height="24" rx="4" fill="#2F80ED"/>
<rect opacity="0.1" x="485" y="181" width="61" height="18" rx="4" fill="#304256"/>
<rect opacity="0.1" x="622" y="181" width="69" height="18" rx="4" fill="#304256"/>
<rect opacity="0.1" x="49" y="373" width="694" height="64" rx="4" fill="#304256"/>
<rect opacity="0.2" x="49" y="327" width="171" height="30" rx="4" fill="#304256"/>
<rect opacity="0.1" x="49" y="445" width="694" height="64" rx="4" fill="#304256"/>
<defs>
<filter id="filter0_d" x="0" y="0" width="792" height="564" filterUnits="userSpaceOnUse" color-interpolation-filters="sRGB">
<feFlood flood-opacity="0" result="BackgroundImageFix"/>
<feColorMatrix in="SourceAlpha" type="matrix" values="0 0 0 0 0 0 0 0 0 0 0 0 0 0 0 0 0 0 127 0"/>
<feOffset dy="6"/>
<feGaussianBlur stdDeviation="4"/>
<feColorMatrix type="matrix" values="0 0 0 0 0.189684 0 0 0 0 0.258371 0 0 0 0 0.339179 0 0 0 0.15 0"/>
<feBlend mode="normal" in2="BackgroundImageFix" result="effect1_dropShadow"/>
<feBlend mode="normal" in="SourceGraphic" in2="effect1_dropShadow" result="shape"/>
</filter>
</defs>
</svg>
