<svg width="257" height="140" viewBox="0 0 257 140" fill="none" xmlns="http://www.w3.org/2000/svg">
<g filter="url(#filter0_d)">
<rect x="8" y="2" width="241" height="124" rx="4" fill="white"/>
<rect x="9" y="3" width="239" height="122" rx="3" stroke="#EAF2FD" stroke-width="2"/>
</g>
<path d="M74.1797 43H72.2031L67.1328 34.9297V43H65.1562V31.625H67.1328L72.2188 39.7266V31.625H74.1797V43ZM84.1641 37.9219H79.4922V41.4219H84.9531V43H77.5156V31.625H84.8984V33.2188H79.4922V36.3594H84.1641V37.9219ZM94.2109 37.9219H89.5391V41.4219H95V43H87.5625V31.625H94.9453V33.2188H89.5391V36.3594H94.2109V37.9219ZM97.6094 43V31.625H100.969C101.974 31.625 102.865 31.849 103.641 32.2969C104.422 32.7448 105.026 33.3802 105.453 34.2031C105.88 35.026 106.094 35.9688 106.094 37.0312V37.6016C106.094 38.6797 105.878 39.6276 105.445 40.4453C105.018 41.263 104.406 41.8932 103.609 42.3359C102.818 42.7786 101.909 43 100.883 43H97.6094ZM99.5859 33.2188V41.4219H100.875C101.911 41.4219 102.706 41.099 103.258 40.4531C103.815 39.8021 104.099 38.8698 104.109 37.6562V37.0234C104.109 35.7891 103.841 34.8464 103.305 34.1953C102.768 33.5443 101.99 33.2188 100.969 33.2188H99.5859ZM115.711 37.9219H111.039V41.4219H116.5V43H109.062V31.625H116.445V33.2188H111.039V36.3594H115.711V37.9219ZM119.109 43V31.625H122.469C123.474 31.625 124.365 31.849 125.141 32.2969C125.922 32.7448 126.526 33.3802 126.953 34.2031C127.38 35.026 127.594 35.9688 127.594 37.0312V37.6016C127.594 38.6797 127.378 39.6276 126.945 40.4453C126.518 41.263 125.906 41.8932 125.109 42.3359C124.318 42.7786 123.409 43 122.383 43H119.109ZM121.086 33.2188V41.4219H122.375C123.411 41.4219 124.206 41.099 124.758 40.4531C125.315 39.8021 125.599 38.8698 125.609 37.6562V37.0234C125.609 35.7891 125.341 34.8464 124.805 34.1953C124.268 33.5443 123.49 33.2188 122.469 33.2188H121.086ZM135.547 43V31.625H139.445C140.732 31.625 141.711 31.8828 142.383 32.3984C143.055 32.9141 143.391 33.6823 143.391 34.7031C143.391 35.224 143.25 35.6927 142.969 36.1094C142.688 36.526 142.276 36.849 141.734 37.0781C142.349 37.2448 142.823 37.5599 143.156 38.0234C143.495 38.4818 143.664 39.0339 143.664 39.6797C143.664 40.7474 143.32 41.5677 142.633 42.1406C141.951 42.7135 140.971 43 139.695 43H135.547ZM137.523 37.8672V41.4219H139.719C140.339 41.4219 140.823 41.2682 141.172 40.9609C141.521 40.6536 141.695 40.2266 141.695 39.6797C141.695 38.4974 141.091 37.8932 139.883 37.8672H137.523ZM137.523 36.4141H139.461C140.076 36.4141 140.555 36.276 140.898 36C141.247 35.7188 141.422 35.3229 141.422 34.8125C141.422 34.25 141.26 33.8438 140.938 33.5938C140.62 33.3438 140.122 33.2188 139.445 33.2188H137.523V36.4141ZM149.914 37.0156L152.531 31.625H154.719L150.906 38.8125V43H148.922V38.8125L145.102 31.625H147.297L149.914 37.0156Z" fill="#FF5A5A"/>
<path d="M54.0625 77.3281H48.7422V92H45.8008V77.3281H40.5273V74.9375H54.0625V77.3281ZM58.8438 80.7031C59.7734 79.625 60.9492 79.0859 62.3711 79.0859C65.0742 79.0859 66.4453 80.6289 66.4844 83.7148V92H63.6367V83.8203C63.6367 82.9453 63.4453 82.3281 63.0625 81.9688C62.6875 81.6016 62.1328 81.418 61.3984 81.418C60.2578 81.418 59.4062 81.9258 58.8438 82.9414V92H55.9961V74H58.8438V80.7031ZM72.4023 92H69.5547V79.3203H72.4023V92ZM69.3789 76.0273C69.3789 75.5898 69.5156 75.2266 69.7891 74.9375C70.0703 74.6484 70.4688 74.5039 70.9844 74.5039C71.5 74.5039 71.8984 74.6484 72.1797 74.9375C72.4609 75.2266 72.6016 75.5898 72.6016 76.0273C72.6016 76.457 72.4609 76.8164 72.1797 77.1055C71.8984 77.3867 71.5 77.5273 70.9844 77.5273C70.4688 77.5273 70.0703 77.3867 69.7891 77.1055C69.5156 76.8164 69.3789 76.457 69.3789 76.0273ZM82.6211 88.5547C82.6211 88.0469 82.4102 87.6602 81.9883 87.3945C81.5742 87.1289 80.8828 86.8945 79.9141 86.6914C78.9453 86.4883 78.1367 86.2305 77.4883 85.918C76.0664 85.2305 75.3555 84.2344 75.3555 82.9297C75.3555 81.8359 75.8164 80.9219 76.7383 80.1875C77.6602 79.4531 78.832 79.0859 80.2539 79.0859C81.7695 79.0859 82.9922 79.4609 83.9219 80.2109C84.8594 80.9609 85.3281 81.9336 85.3281 83.1289H82.4805C82.4805 82.582 82.2773 82.1289 81.8711 81.7695C81.4648 81.4023 80.9258 81.2188 80.2539 81.2188C79.6289 81.2188 79.1172 81.3633 78.7188 81.6523C78.3281 81.9414 78.1328 82.3281 78.1328 82.8125C78.1328 83.25 78.3164 83.5898 78.6836 83.832C79.0508 84.0742 79.793 84.3203 80.9102 84.5703C82.0273 84.8125 82.9023 85.1055 83.5352 85.4492C84.1758 85.7852 84.6484 86.1914 84.9531 86.668C85.2656 87.1445 85.4219 87.7227 85.4219 88.4023C85.4219 89.543 84.9492 90.4688 84.0039 91.1797C83.0586 91.8828 81.8203 92.2344 80.2891 92.2344C79.25 92.2344 78.3242 92.0469 77.5117 91.6719C76.6992 91.2969 76.0664 90.7812 75.6133 90.125C75.1602 89.4688 74.9336 88.7617 74.9336 88.0039H77.6992C77.7383 88.6758 77.9922 89.1953 78.4609 89.5625C78.9297 89.9219 79.5508 90.1016 80.3242 90.1016C81.0742 90.1016 81.6445 89.9609 82.0352 89.6797C82.4258 89.3906 82.6211 89.0156 82.6211 88.5547ZM107.547 87.7812L110.172 74.9375H113.113L109.176 92H106.34L103.094 79.543L99.7773 92H96.9297L92.9922 74.9375H95.9336L98.582 87.7578L101.84 74.9375H104.324L107.547 87.7812ZM120.215 92.2344C118.41 92.2344 116.945 91.668 115.82 90.5352C114.703 89.3945 114.145 87.8789 114.145 85.9883V85.6367C114.145 84.3711 114.387 83.2422 114.871 82.25C115.363 81.25 116.051 80.4727 116.934 79.918C117.816 79.3633 118.801 79.0859 119.887 79.0859C121.613 79.0859 122.945 79.6367 123.883 80.7383C124.828 81.8398 125.301 83.3984 125.301 85.4141V86.5625H117.016C117.102 87.6094 117.449 88.4375 118.059 89.0469C118.676 89.6562 119.449 89.9609 120.379 89.9609C121.684 89.9609 122.746 89.4336 123.566 88.3789L125.102 89.8438C124.594 90.6016 123.914 91.1914 123.062 91.6133C122.219 92.0273 121.27 92.2344 120.215 92.2344ZM119.875 81.3711C119.094 81.3711 118.461 81.6445 117.977 82.1914C117.5 82.7383 117.195 83.5 117.062 84.4766H122.488V84.2656C122.426 83.3125 122.172 82.5938 121.727 82.1094C121.281 81.6172 120.664 81.3711 119.875 81.3711ZM126.988 85.5664C126.988 83.6133 127.441 82.0469 128.348 80.8672C129.254 79.6797 130.469 79.0859 131.992 79.0859C133.336 79.0859 134.422 79.5547 135.25 80.4922V74H138.098V92H135.52L135.379 90.6875C134.527 91.7188 133.391 92.2344 131.969 92.2344C130.484 92.2344 129.281 91.6367 128.359 90.4414C127.445 89.2461 126.988 87.6211 126.988 85.5664ZM129.836 85.8125C129.836 87.1016 130.082 88.1094 130.574 88.8359C131.074 89.5547 131.781 89.9141 132.695 89.9141C133.859 89.9141 134.711 89.3945 135.25 88.3555V82.9414C134.727 81.9258 133.883 81.418 132.719 81.418C131.797 81.418 131.086 81.7852 130.586 82.5195C130.086 83.2461 129.836 84.3438 129.836 85.8125ZM143.711 79.3203L143.793 80.7852C144.73 79.6523 145.961 79.0859 147.484 79.0859C150.125 79.0859 151.469 80.5977 151.516 83.6211V92H148.668V83.7852C148.668 82.9805 148.492 82.3867 148.141 82.0039C147.797 81.6133 147.23 81.418 146.441 81.418C145.293 81.418 144.438 81.9375 143.875 82.9766V92H141.027V79.3203H143.711ZM160.012 92.2344C158.207 92.2344 156.742 91.668 155.617 90.5352C154.5 89.3945 153.941 87.8789 153.941 85.9883V85.6367C153.941 84.3711 154.184 83.2422 154.668 82.25C155.16 81.25 155.848 80.4727 156.73 79.918C157.613 79.3633 158.598 79.0859 159.684 79.0859C161.41 79.0859 162.742 79.6367 163.68 80.7383C164.625 81.8398 165.098 83.3984 165.098 85.4141V86.5625H156.812C156.898 87.6094 157.246 88.4375 157.855 89.0469C158.473 89.6562 159.246 89.9609 160.176 89.9609C161.48 89.9609 162.543 89.4336 163.363 88.3789L164.898 89.8438C164.391 90.6016 163.711 91.1914 162.859 91.6133C162.016 92.0273 161.066 92.2344 160.012 92.2344ZM159.672 81.3711C158.891 81.3711 158.258 81.6445 157.773 82.1914C157.297 82.7383 156.992 83.5 156.859 84.4766H162.285V84.2656C162.223 83.3125 161.969 82.5938 161.523 82.1094C161.078 81.6172 160.461 81.3711 159.672 81.3711ZM174.426 88.5547C174.426 88.0469 174.215 87.6602 173.793 87.3945C173.379 87.1289 172.688 86.8945 171.719 86.6914C170.75 86.4883 169.941 86.2305 169.293 85.918C167.871 85.2305 167.16 84.2344 167.16 82.9297C167.16 81.8359 167.621 80.9219 168.543 80.1875C169.465 79.4531 170.637 79.0859 172.059 79.0859C173.574 79.0859 174.797 79.4609 175.727 80.2109C176.664 80.9609 177.133 81.9336 177.133 83.1289H174.285C174.285 82.582 174.082 82.1289 173.676 81.7695C173.27 81.4023 172.73 81.2188 172.059 81.2188C171.434 81.2188 170.922 81.3633 170.523 81.6523C170.133 81.9414 169.938 82.3281 169.938 82.8125C169.938 83.25 170.121 83.5898 170.488 83.832C170.855 84.0742 171.598 84.3203 172.715 84.5703C173.832 84.8125 174.707 85.1055 175.34 85.4492C175.98 85.7852 176.453 86.1914 176.758 86.668C177.07 87.1445 177.227 87.7227 177.227 88.4023C177.227 89.543 176.754 90.4688 175.809 91.1797C174.863 91.8828 173.625 92.2344 172.094 92.2344C171.055 92.2344 170.129 92.0469 169.316 91.6719C168.504 91.2969 167.871 90.7812 167.418 90.125C166.965 89.4688 166.738 88.7617 166.738 88.0039H169.504C169.543 88.6758 169.797 89.1953 170.266 89.5625C170.734 89.9219 171.355 90.1016 172.129 90.1016C172.879 90.1016 173.449 89.9609 173.84 89.6797C174.23 89.3906 174.426 89.0156 174.426 88.5547ZM179.184 85.5664C179.184 83.6133 179.637 82.0469 180.543 80.8672C181.449 79.6797 182.664 79.0859 184.188 79.0859C185.531 79.0859 186.617 79.5547 187.445 80.4922V74H190.293V92H187.715L187.574 90.6875C186.723 91.7188 185.586 92.2344 184.164 92.2344C182.68 92.2344 181.477 91.6367 180.555 90.4414C179.641 89.2461 179.184 87.6211 179.184 85.5664ZM182.031 85.8125C182.031 87.1016 182.277 88.1094 182.77 88.8359C183.27 89.5547 183.977 89.9141 184.891 89.9141C186.055 89.9141 186.906 89.3945 187.445 88.3555V82.9414C186.922 81.9258 186.078 81.418 184.914 81.418C183.992 81.418 183.281 81.7852 182.781 82.5195C182.281 83.2461 182.031 84.3438 182.031 85.8125ZM200.84 92C200.715 91.7578 200.605 91.3633 200.512 90.8164C199.605 91.7617 198.496 92.2344 197.184 92.2344C195.91 92.2344 194.871 91.8711 194.066 91.1445C193.262 90.418 192.859 89.5195 192.859 88.4492C192.859 87.0977 193.359 86.0625 194.359 85.3438C195.367 84.6172 196.805 84.2539 198.672 84.2539H200.418V83.4219C200.418 82.7656 200.234 82.2422 199.867 81.8516C199.5 81.4531 198.941 81.2539 198.191 81.2539C197.543 81.2539 197.012 81.418 196.598 81.7461C196.184 82.0664 195.977 82.4766 195.977 82.9766H193.129C193.129 82.2812 193.359 81.6328 193.82 81.0312C194.281 80.4219 194.906 79.9453 195.695 79.6016C196.492 79.2578 197.379 79.0859 198.355 79.0859C199.84 79.0859 201.023 79.4609 201.906 80.2109C202.789 80.9531 203.242 82 203.266 83.3516V89.0703C203.266 90.2109 203.426 91.1211 203.746 91.8008V92H200.84ZM197.711 89.9492C198.273 89.9492 198.801 89.8125 199.293 89.5391C199.793 89.2656 200.168 88.8984 200.418 88.4375V86.0469H198.883C197.828 86.0469 197.035 86.2305 196.504 86.5977C195.973 86.9648 195.707 87.4844 195.707 88.1562C195.707 88.7031 195.887 89.1406 196.246 89.4688C196.613 89.7891 197.102 89.9492 197.711 89.9492ZM210.496 87.9219L213.074 79.3203H216.109L211.07 93.9219C210.297 96.0547 208.984 97.1211 207.133 97.1211C206.719 97.1211 206.262 97.0508 205.762 96.9102V94.707L206.301 94.7422C207.02 94.7422 207.559 94.6094 207.918 94.3438C208.285 94.0859 208.574 93.6484 208.785 93.0312L209.195 91.9414L204.742 79.3203H207.812L210.496 87.9219Z" fill="#304256"/>
<path d="M49.1406 35.1429C49.1406 34.9821 49.0156 34.8571 48.8549 34.8571H48.2835C48.1228 34.8571 47.9978 34.9821 47.9978 35.1429V38.2857H45.9978C45.8371 38.2857 45.7121 38.4107 45.7121 38.5714V39.1429C45.7121 39.3036 45.8371 39.4286 45.9978 39.4286H48.8549C49.0156 39.4286 49.1406 39.3036 49.1406 39.1429V35.1429ZM52.8549 38.2857C52.8549 40.9643 50.6763 43.1429 47.9978 43.1429C45.3192 43.1429 43.1406 40.9643 43.1406 38.2857C43.1406 35.6071 45.3192 33.4286 47.9978 33.4286C50.6763 33.4286 52.8549 35.6071 52.8549 38.2857ZM54.8549 38.2857C54.8549 34.5 51.7835 31.4286 47.9978 31.4286C44.2121 31.4286 41.1406 34.5 41.1406 38.2857C41.1406 42.0714 44.2121 45.1429 47.9978 45.1429C51.7835 45.1429 54.8549 42.0714 54.8549 38.2857Z" fill="#FF5A5A"/>
<defs>
<filter id="filter0_d" x="0" y="0" width="257" height="140" filterUnits="userSpaceOnUse" color-interpolation-filters="sRGB">
<feFlood flood-opacity="0" result="BackgroundImageFix"/>
<feColorMatrix in="SourceAlpha" type="matrix" values="0 0 0 0 0 0 0 0 0 0 0 0 0 0 0 0 0 0 127 0"/>
<feOffset dy="6"/>
<feGaussianBlur stdDeviation="4"/>
<feColorMatrix type="matrix" values="0 0 0 0 0.189684 0 0 0 0 0.258371 0 0 0 0 0.339179 0 0 0 0.15 0"/>
<feBlend mode="normal" in2="BackgroundImageFix" result="effect1_dropShadow"/>
<feBlend mode="normal" in="SourceGraphic" in2="effect1_dropShadow" result="shape"/>
</filter>
</defs>
</svg>
