<svg width="215" height="140" viewBox="0 0 215 140" fill="none" xmlns="http://www.w3.org/2000/svg">
<g filter="url(#filter0_d)">
<rect x="8" y="2" width="199" height="124" rx="4" fill="white"/>
<rect x="9" y="3" width="197" height="122" rx="3" stroke="#EAF2FD" stroke-width="2"/>
</g>
<path d="M74.1953 37.6094C74.1953 38.6875 74.0234 39.6224 73.6797 40.4141C73.3411 41.2005 72.8646 41.8255 72.25 42.2891L74.2031 43.8125L72.9219 44.9688L70.5 43.0547C70.1823 43.1224 69.8411 43.1562 69.4766 43.1562C68.5599 43.1562 67.7396 42.9323 67.0156 42.4844C66.2969 42.0312 65.7396 41.388 65.3438 40.5547C64.9531 39.7214 64.7552 38.7604 64.75 37.6719V37.0312C64.75 35.9219 64.9453 34.9427 65.3359 34.0938C65.7318 33.2448 66.2865 32.5964 67 32.1484C67.7188 31.6953 68.5391 31.4688 69.4609 31.4688C70.3984 31.4688 71.224 31.6927 71.9375 32.1406C72.6562 32.5833 73.2109 33.224 73.6016 34.0625C73.9922 34.8958 74.1901 35.8672 74.1953 36.9766V37.6094ZM72.2109 37.0156C72.2109 35.7344 71.9714 34.763 71.4922 34.1016C71.013 33.4401 70.3359 33.1094 69.4609 33.1094C68.612 33.1094 67.9453 33.4453 67.4609 34.1172C66.9818 34.7839 66.737 35.7266 66.7266 36.9453V37.6094C66.7266 38.8385 66.9661 39.7995 67.4453 40.4922C67.9297 41.1849 68.6068 41.5312 69.4766 41.5312C70.3568 41.5312 71.0312 41.1979 71.5 40.5312C71.974 39.8646 72.2109 38.8906 72.2109 37.6094V37.0156ZM85.5234 31.625V39.2266C85.5234 40.4349 85.1354 41.3932 84.3594 42.1016C83.5885 42.8047 82.5599 43.1562 81.2734 43.1562C79.9714 43.1562 78.9375 42.8099 78.1719 42.1172C77.4062 41.4193 77.0234 40.4531 77.0234 39.2188V31.625H78.9922V39.2344C78.9922 39.9948 79.1849 40.5755 79.5703 40.9766C79.9557 41.3776 80.5234 41.5781 81.2734 41.5781C82.7943 41.5781 83.5547 40.776 83.5547 39.1719V31.625H85.5234ZM94.8359 40.3516H90.4297L89.5078 43H87.4531L91.75 31.625H93.5234L97.8281 43H95.7656L94.8359 40.3516ZM90.9844 38.7578H94.2812L92.6328 34.0391L90.9844 38.7578ZM109.148 43H107.172L102.102 34.9297V43H100.125V31.625H102.102L107.188 39.7266V31.625H109.148V43ZM120.469 33.2188H116.922V43H114.961V33.2188H111.445V31.625H120.469V33.2188ZM125.055 43H123.086V31.625H125.055V43ZM136.469 33.2188H132.922V43H130.961V33.2188H127.445V31.625H136.469V33.2188ZM142.805 37.0156L145.422 31.625H147.609L143.797 38.8125V43H141.812V38.8125L137.992 31.625H140.188L142.805 37.0156Z" fill="#FF5A5A"/>
<path d="M48.9883 92H46.1523V78.3008L41.9688 79.7305V77.3281L48.625 74.8789H48.9883V92ZM66.0391 84.8164C66.0391 87.2695 65.5781 89.1211 64.6562 90.3711C63.7422 91.6133 62.3477 92.2344 60.4727 92.2344C58.6289 92.2344 57.2383 91.6289 56.3008 90.418C55.3711 89.1992 54.8945 87.3984 54.8711 85.0156V82.0625C54.8711 79.6094 55.3281 77.7695 56.2422 76.543C57.1641 75.3164 58.5664 74.7031 60.4492 74.7031C62.3164 74.7031 63.707 75.3008 64.6211 76.4961C65.543 77.6914 66.0156 79.4805 66.0391 81.8633V84.8164ZM63.1914 81.6289C63.1914 80.0273 62.9727 78.8555 62.5352 78.1133C62.0977 77.3633 61.4023 76.9883 60.4492 76.9883C59.5195 76.9883 58.8359 77.3438 58.3984 78.0547C57.9609 78.7578 57.7305 79.8594 57.707 81.3594V85.2266C57.707 86.8203 57.9297 88.0078 58.375 88.7891C58.8203 89.5703 59.5195 89.9609 60.4727 89.9609C61.3867 89.9609 62.0625 89.6016 62.5 88.8828C62.9375 88.1562 63.168 87.0234 63.1914 85.4844V81.6289ZM69.1445 95.8438L67.6094 94.9297C68.0625 94.2188 68.3711 93.5977 68.5352 93.0664C68.707 92.543 68.7969 92.0078 68.8047 91.4609V89.2461H71.3711L71.3594 91.2969C71.3516 92.125 71.1406 92.9531 70.7266 93.7812C70.3203 94.6172 69.793 95.3047 69.1445 95.8438ZM84.9531 84.8164C84.9531 87.2695 84.4922 89.1211 83.5703 90.3711C82.6562 91.6133 81.2617 92.2344 79.3867 92.2344C77.543 92.2344 76.1523 91.6289 75.2148 90.418C74.2852 89.1992 73.8086 87.3984 73.7852 85.0156V82.0625C73.7852 79.6094 74.2422 77.7695 75.1562 76.543C76.0781 75.3164 77.4805 74.7031 79.3633 74.7031C81.2305 74.7031 82.6211 75.3008 83.5352 76.4961C84.457 77.6914 84.9297 79.4805 84.9531 81.8633V84.8164ZM82.1055 81.6289C82.1055 80.0273 81.8867 78.8555 81.4492 78.1133C81.0117 77.3633 80.3164 76.9883 79.3633 76.9883C78.4336 76.9883 77.75 77.3438 77.3125 78.0547C76.875 78.7578 76.6445 79.8594 76.6211 81.3594V85.2266C76.6211 86.8203 76.8438 88.0078 77.2891 88.7891C77.7344 89.5703 78.4336 89.9609 79.3867 89.9609C80.3008 89.9609 80.9766 89.6016 81.4141 88.8828C81.8516 88.1562 82.082 87.0234 82.1055 85.4844V81.6289ZM98.5938 84.8164C98.5938 87.2695 98.1328 89.1211 97.2109 90.3711C96.2969 91.6133 94.9023 92.2344 93.0273 92.2344C91.1836 92.2344 89.793 91.6289 88.8555 90.418C87.9258 89.1992 87.4492 87.3984 87.4258 85.0156V82.0625C87.4258 79.6094 87.8828 77.7695 88.7969 76.543C89.7188 75.3164 91.1211 74.7031 93.0039 74.7031C94.8711 74.7031 96.2617 75.3008 97.1758 76.4961C98.0977 77.6914 98.5703 79.4805 98.5938 81.8633V84.8164ZM95.7461 81.6289C95.7461 80.0273 95.5273 78.8555 95.0898 78.1133C94.6523 77.3633 93.957 76.9883 93.0039 76.9883C92.0742 76.9883 91.3906 77.3438 90.9531 78.0547C90.5156 78.7578 90.2852 79.8594 90.2617 81.3594V85.2266C90.2617 86.8203 90.4844 88.0078 90.9297 88.7891C91.375 89.5703 92.0742 89.9609 93.0273 89.9609C93.9414 89.9609 94.6172 89.6016 95.0547 88.8828C95.4922 88.1562 95.7227 87.0234 95.7461 85.4844V81.6289ZM112.234 84.8164C112.234 87.2695 111.773 89.1211 110.852 90.3711C109.938 91.6133 108.543 92.2344 106.668 92.2344C104.824 92.2344 103.434 91.6289 102.496 90.418C101.566 89.1992 101.09 87.3984 101.066 85.0156V82.0625C101.066 79.6094 101.523 77.7695 102.438 76.543C103.359 75.3164 104.762 74.7031 106.645 74.7031C108.512 74.7031 109.902 75.3008 110.816 76.4961C111.738 77.6914 112.211 79.4805 112.234 81.8633V84.8164ZM109.387 81.6289C109.387 80.0273 109.168 78.8555 108.73 78.1133C108.293 77.3633 107.598 76.9883 106.645 76.9883C105.715 76.9883 105.031 77.3438 104.594 78.0547C104.156 78.7578 103.926 79.8594 103.902 81.3594V85.2266C103.902 86.8203 104.125 88.0078 104.57 88.7891C105.016 89.5703 105.715 89.9609 106.668 89.9609C107.582 89.9609 108.258 89.6016 108.695 88.8828C109.133 88.1562 109.363 87.0234 109.387 85.4844V81.6289ZM133.668 74.9375V86.3398C133.668 88.1523 133.086 89.5898 131.922 90.6523C130.766 91.707 129.223 92.2344 127.293 92.2344C125.34 92.2344 123.789 91.7148 122.641 90.6758C121.492 89.6289 120.918 88.1797 120.918 86.3281V74.9375H123.871V86.3516C123.871 87.4922 124.16 88.3633 124.738 88.9648C125.316 89.5664 126.168 89.8672 127.293 89.8672C129.574 89.8672 130.715 88.6641 130.715 86.2578V74.9375H133.668ZM139.211 79.3203L139.293 80.7852C140.23 79.6523 141.461 79.0859 142.984 79.0859C145.625 79.0859 146.969 80.5977 147.016 83.6211V92H144.168V83.7852C144.168 82.9805 143.992 82.3867 143.641 82.0039C143.297 81.6133 142.73 81.418 141.941 81.418C140.793 81.418 139.938 81.9375 139.375 82.9766V92H136.527V79.3203H139.211ZM152.957 92H150.109V79.3203H152.957V92ZM149.934 76.0273C149.934 75.5898 150.07 75.2266 150.344 74.9375C150.625 74.6484 151.023 74.5039 151.539 74.5039C152.055 74.5039 152.453 74.6484 152.734 74.9375C153.016 75.2266 153.156 75.5898 153.156 76.0273C153.156 76.457 153.016 76.8164 152.734 77.1055C152.453 77.3867 152.055 77.5273 151.539 77.5273C151.023 77.5273 150.625 77.3867 150.344 77.1055C150.07 76.8164 149.934 76.457 149.934 76.0273ZM159.637 76.2383V79.3203H161.875V81.4297H159.637V88.5078C159.637 88.9922 159.73 89.3438 159.918 89.5625C160.113 89.7734 160.457 89.8789 160.949 89.8789C161.277 89.8789 161.609 89.8398 161.945 89.7617V91.9648C161.297 92.1445 160.672 92.2344 160.07 92.2344C157.883 92.2344 156.789 91.0273 156.789 88.6133V81.4297H154.703V79.3203H156.789V76.2383H159.637ZM171.168 88.5547C171.168 88.0469 170.957 87.6602 170.535 87.3945C170.121 87.1289 169.43 86.8945 168.461 86.6914C167.492 86.4883 166.684 86.2305 166.035 85.918C164.613 85.2305 163.902 84.2344 163.902 82.9297C163.902 81.8359 164.363 80.9219 165.285 80.1875C166.207 79.4531 167.379 79.0859 168.801 79.0859C170.316 79.0859 171.539 79.4609 172.469 80.2109C173.406 80.9609 173.875 81.9336 173.875 83.1289H171.027C171.027 82.582 170.824 82.1289 170.418 81.7695C170.012 81.4023 169.473 81.2188 168.801 81.2188C168.176 81.2188 167.664 81.3633 167.266 81.6523C166.875 81.9414 166.68 82.3281 166.68 82.8125C166.68 83.25 166.863 83.5898 167.23 83.832C167.598 84.0742 168.34 84.3203 169.457 84.5703C170.574 84.8125 171.449 85.1055 172.082 85.4492C172.723 85.7852 173.195 86.1914 173.5 86.668C173.812 87.1445 173.969 87.7227 173.969 88.4023C173.969 89.543 173.496 90.4688 172.551 91.1797C171.605 91.8828 170.367 92.2344 168.836 92.2344C167.797 92.2344 166.871 92.0469 166.059 91.6719C165.246 91.2969 164.613 90.7812 164.16 90.125C163.707 89.4688 163.48 88.7617 163.48 88.0039H166.246C166.285 88.6758 166.539 89.1953 167.008 89.5625C167.477 89.9219 168.098 90.1016 168.871 90.1016C169.621 90.1016 170.191 89.9609 170.582 89.6797C170.973 89.3906 171.168 89.0156 171.168 88.5547Z" fill="#304256"/>
<path d="M48.6362 38.5714H46.9353L47.3638 36.8571H49.0647L48.6362 38.5714ZM53.779 35.1964C53.7924 35.1295 53.779 35.0625 53.7388 35.0089C53.6987 34.9621 53.6384 34.9286 53.5714 34.9286H51.4888L52.0112 32.8393C52.0246 32.7723 52.0112 32.7054 51.971 32.6518C51.9308 32.6049 51.8638 32.5714 51.8036 32.5714H50.3036C50.2031 32.5714 50.1161 32.6384 50.0893 32.7321L49.5469 34.9286H47.846L48.3683 32.8393C48.3817 32.7723 48.3683 32.7054 48.3281 32.6518C48.2879 32.6049 48.221 32.5714 48.1607 32.5714H46.6607C46.5603 32.5714 46.4732 32.6384 46.4464 32.7321L45.904 34.9286H43.7143C43.6138 34.9286 43.5268 34.9955 43.5067 35.0893L43.1317 36.5893C43.1116 36.6562 43.1317 36.7232 43.1719 36.7768C43.2121 36.8237 43.2723 36.8571 43.3393 36.8571H45.4219L44.9933 38.5714H42.8036C42.7031 38.5714 42.6228 38.6384 42.596 38.7321L42.221 40.2321C42.2076 40.2991 42.221 40.3661 42.2612 40.4196C42.3013 40.4665 42.3616 40.5 42.4286 40.5H44.5112L43.9888 42.5893C43.9754 42.6563 43.9888 42.7232 44.029 42.7768C44.0692 42.8237 44.1362 42.8571 44.1964 42.8571H45.7031C45.7969 42.8571 45.8839 42.7902 45.9107 42.6964L46.4531 40.5H48.154L47.6317 42.5893C47.6183 42.6563 47.6317 42.7232 47.6719 42.7768C47.7121 42.8237 47.779 42.8571 47.846 42.8571H49.346C49.4397 42.8571 49.5268 42.7902 49.5536 42.6964L50.096 40.5H52.2857C52.3862 40.5 52.4732 40.433 52.4933 40.3393L52.8683 38.8393C52.8884 38.7723 52.8683 38.7054 52.8281 38.6518C52.7879 38.6049 52.7277 38.5714 52.6607 38.5714H50.5781L51.0067 36.8571H53.1964C53.2969 36.8571 53.3772 36.7902 53.404 36.6964L53.779 35.1964Z" fill="#FF5A5A"/>
<defs>
<filter id="filter0_d" x="0" y="0" width="215" height="140" filterUnits="userSpaceOnUse" color-interpolation-filters="sRGB">
<feFlood flood-opacity="0" result="BackgroundImageFix"/>
<feColorMatrix in="SourceAlpha" type="matrix" values="0 0 0 0 0 0 0 0 0 0 0 0 0 0 0 0 0 0 127 0"/>
<feOffset dy="6"/>
<feGaussianBlur stdDeviation="4"/>
<feColorMatrix type="matrix" values="0 0 0 0 0.189684 0 0 0 0 0.258371 0 0 0 0 0.339179 0 0 0 0.15 0"/>
<feBlend mode="normal" in2="BackgroundImageFix" result="effect1_dropShadow"/>
<feBlend mode="normal" in="SourceGraphic" in2="effect1_dropShadow" result="shape"/>
</filter>
</defs>
</svg>
