<svg width="225" height="140" viewBox="0 0 225 140" fill="none" xmlns="http://www.w3.org/2000/svg">
<g filter="url(#filter0_d)">
<rect x="8" y="2" width="209" height="124" rx="4" fill="white"/>
<rect x="9" y="3" width="207" height="122" rx="3" stroke="#EAF2FD" stroke-width="2"/>
</g>
<path d="M67.1328 41.4219H72.2969V43H65.1562V31.625H67.1328V41.4219ZM83.3906 37.6094C83.3906 38.724 83.1979 39.7031 82.8125 40.5469C82.4271 41.3854 81.875 42.0312 81.1562 42.4844C80.4427 42.9323 79.6198 43.1562 78.6875 43.1562C77.7656 43.1562 76.9427 42.9323 76.2188 42.4844C75.5 42.0312 74.9427 41.388 74.5469 40.5547C74.1562 39.7214 73.9583 38.7604 73.9531 37.6719V37.0312C73.9531 35.9219 74.1484 34.9427 74.5391 34.0938C74.9349 33.2448 75.4896 32.5964 76.2031 32.1484C76.9219 31.6953 77.7448 31.4688 78.6719 31.4688C79.599 31.4688 80.4193 31.6927 81.1328 32.1406C81.8516 32.5833 82.4062 33.224 82.7969 34.0625C83.1875 34.8958 83.3854 35.8672 83.3906 36.9766V37.6094ZM81.4141 37.0156C81.4141 35.7552 81.1745 34.7891 80.6953 34.1172C80.2214 33.4453 79.5469 33.1094 78.6719 33.1094C77.8177 33.1094 77.1484 33.4453 76.6641 34.1172C76.1849 34.7839 75.9401 35.7292 75.9297 36.9531V37.6094C75.9297 38.8594 76.1719 39.8255 76.6562 40.5078C77.1458 41.1901 77.8229 41.5312 78.6875 41.5312C79.5625 41.5312 80.2344 41.1979 80.7031 40.5312C81.1771 39.8646 81.4141 38.8906 81.4141 37.6094V37.0156ZM95.0391 39.2969C94.9245 40.5104 94.4766 41.4583 93.6953 42.1406C92.9141 42.8177 91.875 43.1562 90.5781 43.1562C89.6719 43.1562 88.8724 42.9427 88.1797 42.5156C87.4922 42.0833 86.9609 41.4714 86.5859 40.6797C86.2109 39.888 86.0156 38.9688 86 37.9219V36.8594C86 35.7865 86.1901 34.8411 86.5703 34.0234C86.9505 33.2057 87.4948 32.5755 88.2031 32.1328C88.9167 31.6901 89.7396 31.4688 90.6719 31.4688C91.9271 31.4688 92.9375 31.8099 93.7031 32.4922C94.4688 33.1745 94.9141 34.138 95.0391 35.3828H93.0703C92.9766 34.5651 92.737 33.9766 92.3516 33.6172C91.9714 33.2526 91.4115 33.0703 90.6719 33.0703C89.8125 33.0703 89.151 33.3854 88.6875 34.0156C88.2292 34.6406 87.9948 35.5599 87.9844 36.7734V37.7812C87.9844 39.0104 88.2031 39.9479 88.6406 40.5938C89.0833 41.2396 89.7292 41.5625 90.5781 41.5625C91.3542 41.5625 91.9375 41.388 92.3281 41.0391C92.7188 40.6901 92.9661 40.1094 93.0703 39.2969H95.0391ZM104.18 40.3516H99.7734L98.8516 43H96.7969L101.094 31.625H102.867L107.172 43H105.109L104.18 40.3516ZM100.328 38.7578H103.625L101.977 34.0391L100.328 38.7578ZM116.75 33.2188H113.203V43H111.242V33.2188H107.727V31.625H116.75V33.2188ZM121.336 43H119.367V31.625H121.336V43ZM133.844 37.6094C133.844 38.724 133.651 39.7031 133.266 40.5469C132.88 41.3854 132.328 42.0312 131.609 42.4844C130.896 42.9323 130.073 43.1562 129.141 43.1562C128.219 43.1562 127.396 42.9323 126.672 42.4844C125.953 42.0312 125.396 41.388 125 40.5547C124.609 39.7214 124.411 38.7604 124.406 37.6719V37.0312C124.406 35.9219 124.602 34.9427 124.992 34.0938C125.388 33.2448 125.943 32.5964 126.656 32.1484C127.375 31.6953 128.198 31.4688 129.125 31.4688C130.052 31.4688 130.872 31.6927 131.586 32.1406C132.305 32.5833 132.859 33.224 133.25 34.0625C133.641 34.8958 133.839 35.8672 133.844 36.9766V37.6094ZM131.867 37.0156C131.867 35.7552 131.628 34.7891 131.148 34.1172C130.674 33.4453 130 33.1094 129.125 33.1094C128.271 33.1094 127.602 33.4453 127.117 34.1172C126.638 34.7839 126.393 35.7292 126.383 36.9531V37.6094C126.383 38.8594 126.625 39.8255 127.109 40.5078C127.599 41.1901 128.276 41.5312 129.141 41.5312C130.016 41.5312 130.688 41.1979 131.156 40.5312C131.63 39.8646 131.867 38.8906 131.867 37.6094V37.0156ZM145.836 43H143.859L138.789 34.9297V43H136.812V31.625H138.789L143.875 39.7266V31.625H145.836V43Z" fill="#FF5A5A"/>
<path d="M55.2695 92H52.3047L44.6992 79.8945V92H41.7344V74.9375H44.6992L52.3281 87.0898V74.9375H55.2695V92ZM64.082 92.2344C62.2773 92.2344 60.8125 91.668 59.6875 90.5352C58.5703 89.3945 58.0117 87.8789 58.0117 85.9883V85.6367C58.0117 84.3711 58.2539 83.2422 58.7383 82.25C59.2305 81.25 59.918 80.4727 60.8008 79.918C61.6836 79.3633 62.668 79.0859 63.7539 79.0859C65.4805 79.0859 66.8125 79.6367 67.75 80.7383C68.6953 81.8398 69.168 83.3984 69.168 85.4141V86.5625H60.8828C60.9688 87.6094 61.3164 88.4375 61.9258 89.0469C62.543 89.6562 63.3164 89.9609 64.2461 89.9609C65.5508 89.9609 66.6133 89.4336 67.4336 88.3789L68.9688 89.8438C68.4609 90.6016 67.7812 91.1914 66.9297 91.6133C66.0859 92.0273 65.1367 92.2344 64.082 92.2344ZM63.7422 81.3711C62.9609 81.3711 62.3281 81.6445 61.8438 82.1914C61.3672 82.7383 61.0625 83.5 60.9297 84.4766H66.3555V84.2656C66.293 83.3125 66.0391 82.5938 65.5938 82.1094C65.1484 81.6172 64.5312 81.3711 63.7422 81.3711ZM82.5273 88.0742L84.543 79.3203H87.3203L83.8633 92H81.5195L78.8008 83.293L76.1289 92H73.7852L70.3164 79.3203H73.0938L75.1445 87.9805L77.7461 79.3203H79.8906L82.5273 88.0742ZM101.043 83.0234L104.969 74.9375H108.25L102.531 85.7188V92H99.5547V85.7188L93.8242 74.9375H97.1172L101.043 83.0234ZM108.52 85.543C108.52 84.3008 108.766 83.1836 109.258 82.1914C109.75 81.1914 110.441 80.4258 111.332 79.8945C112.223 79.3555 113.246 79.0859 114.402 79.0859C116.113 79.0859 117.5 79.6367 118.562 80.7383C119.633 81.8398 120.211 83.3008 120.297 85.1211L120.309 85.7891C120.309 87.0391 120.066 88.1562 119.582 89.1406C119.105 90.125 118.418 90.8867 117.52 91.4258C116.629 91.9648 115.598 92.2344 114.426 92.2344C112.637 92.2344 111.203 91.6406 110.125 90.4531C109.055 89.2578 108.52 87.668 108.52 85.6836V85.543ZM111.367 85.7891C111.367 87.0938 111.637 88.1172 112.176 88.8594C112.715 89.5938 113.465 89.9609 114.426 89.9609C115.387 89.9609 116.133 89.5859 116.664 88.8359C117.203 88.0859 117.473 86.9883 117.473 85.543C117.473 84.2617 117.195 83.2461 116.641 82.4961C116.094 81.7461 115.348 81.3711 114.402 81.3711C113.473 81.3711 112.734 81.7422 112.188 82.4844C111.641 83.2188 111.367 84.3203 111.367 85.7891ZM129.355 81.9219C128.98 81.8594 128.594 81.8281 128.195 81.8281C126.891 81.8281 126.012 82.3281 125.559 83.3281V92H122.711V79.3203H125.43L125.5 80.7383C126.188 79.6367 127.141 79.0859 128.359 79.0859C128.766 79.0859 129.102 79.1406 129.367 79.25L129.355 81.9219ZM135.273 86.5625L134.008 87.8633V92H131.16V74H134.008V84.3828L134.898 83.2695L138.402 79.3203H141.824L137.113 84.6055L142.328 92H139.035L135.273 86.5625ZM144.098 95.8438L142.562 94.9297C143.016 94.2188 143.324 93.5977 143.488 93.0664C143.66 92.543 143.75 92.0078 143.758 91.4609V89.2461H146.324L146.312 91.2969C146.305 92.125 146.094 92.9531 145.68 93.7812C145.273 94.6172 144.746 95.3047 144.098 95.8438ZM168.754 92H165.789L158.184 79.8945V92H155.219V74.9375H158.184L165.812 87.0898V74.9375H168.754V92ZM177.496 83.0234L181.422 74.9375H184.703L178.984 85.7188V92H176.008V85.7188L170.277 74.9375H173.57L177.496 83.0234Z" fill="#304256"/>
<path d="M50.2868 36C50.2868 37.2589 49.26 38.2857 48.0011 38.2857C46.7422 38.2857 45.7154 37.2589 45.7154 36C45.7154 34.7411 46.7422 33.7143 48.0011 33.7143C49.26 33.7143 50.2868 34.7411 50.2868 36ZM52.5725 36C52.5725 33.4732 50.5279 31.4286 48.0011 31.4286C45.4743 31.4286 43.4297 33.4732 43.4297 36C43.4297 36.5446 43.4922 37.1071 43.7243 37.5982L46.9833 44.5089C47.1618 44.9018 47.5725 45.1429 48.0011 45.1429C48.4297 45.1429 48.8404 44.9018 49.0279 44.5089L52.2779 37.5982C52.51 37.1071 52.5725 36.5446 52.5725 36Z" fill="#FF5A5A"/>
<defs>
<filter id="filter0_d" x="0" y="0" width="225" height="140" filterUnits="userSpaceOnUse" color-interpolation-filters="sRGB">
<feFlood flood-opacity="0" result="BackgroundImageFix"/>
<feColorMatrix in="SourceAlpha" type="matrix" values="0 0 0 0 0 0 0 0 0 0 0 0 0 0 0 0 0 0 127 0"/>
<feOffset dy="6"/>
<feGaussianBlur stdDeviation="4"/>
<feColorMatrix type="matrix" values="0 0 0 0 0.189684 0 0 0 0 0.258371 0 0 0 0 0.339179 0 0 0 0.15 0"/>
<feBlend mode="normal" in2="BackgroundImageFix" result="effect1_dropShadow"/>
<feBlend mode="normal" in="SourceGraphic" in2="effect1_dropShadow" result="shape"/>
</filter>
</defs>
</svg>
